<svg id="Layer_1" data-name="Layer 1" xmlns="http://www.w3.org/2000/svg" viewBox="0 0 221.03 65.45"><title>1012DS_Logo_Native_Black</title><path d="M24.06,28.77c2.85-2.43,4.31-6.17,4.31-11.13,0-1.71,0-6.87-3.82-10.65C21,3.46,17,3.46,13,3.46H3.42v28.4H13.9C17.88,31.86,21.13,31.33,24.06,28.77ZM8.58,27.07V8.33h3.9c1,0,1.87,0,2.68.05a10.44,10.44,0,0,1,2.28.36c3.53,1,5.24,4,5.24,9,0,4.11-1.3,7-3.82,8.37-1.71.94-3.49,1-5.85,1Z" transform="translate(-2.28 -2.69)"/><rect x="29.18" y="0.77" width="5.24" height="28.4"/><path d="M69.17,15.85H55.11v4.92h8.08A8.88,8.88,0,0,1,54.54,28c-5.08,0-9.07-4.63-9.07-10.48s3.86-10.24,9-10.24a8.66,8.66,0,0,1,7.84,4.92h6.09c-1.74-5.45-7-9.55-13.85-9.55-8.42,0-14.75,6.46-14.75,15.07A14.43,14.43,0,0,0,54.46,32.63c8.45,0,14.79-6.46,14.79-15.07A14.75,14.75,0,0,0,69.17,15.85Z" transform="translate(-2.28 -2.69)"/><rect x="70.66" y="0.77" width="5.24" height="28.4"/><polygon points="92.48 29.18 92.48 5.57 100.49 5.57 100.49 0.77 79.32 0.77 79.32 5.57 87.32 5.57 87.32 29.18 92.48 29.18"/><path d="M115.24,3.46h-5.36L99.27,31.86h5.45l2.48-7h10.4l2.56,7h5.69ZM108.9,20.08l3.46-9.8,3.49,9.8Z" transform="translate(-2.28 -2.69)"/><polygon points="131.17 0.77 126.01 0.77 126.01 29.18 148.03 29.18 148.03 24.38 131.17 24.38 131.17 0.77"/><path d="M20.81,51.15a19.11,19.11,0,0,0-3.45-1l-3.82-.89C11.1,48.63,9,47.94,9,45.83c0-2.48,2.84-3.34,5.2-3.34a7.2,7.2,0,0,1,4.26,1.1,4.51,4.51,0,0,1,1.75,3.78h5.36a9.25,9.25,0,0,0-3.73-7.31c-2-1.43-4.47-2-7.73-2a11.44,11.44,0,0,0-7.72,2.43,7.42,7.42,0,0,0-2.76,5.81,6.74,6.74,0,0,0,3.54,6.26,13.41,13.41,0,0,0,3.29,1.38c1.14.33,2.27.57,3.29.78l2.32.52c3.08.65,4.42,1.63,4.42,3.62,0,2.76-2.23,4.43-5.85,4.43a7.41,7.41,0,0,1-5-1.54,5,5,0,0,1-1.5-2.48,4.09,4.09,0,0,1-.2-1.14c0-.33,0-.61-.08-.85H2.28c0,9.38,8.62,10.52,12.15,10.52a13.49,13.49,0,0,0,7.76-2A8.33,8.33,0,0,0,26,58.55,7.7,7.7,0,0,0,20.81,51.15Z" transform="translate(-2.28 -2.69)"/><path d="M42.43,42.49a8.24,8.24,0,0,1,8,5.69h6C54.7,41.85,49.21,37.9,42.51,37.9c-8.45,0-14.79,6.51-14.79,15.12s6.34,15.12,14.79,15.12c6.7,0,12.19-4,13.86-10.28h-6a8.24,8.24,0,0,1-8,5.64c-5.16,0-9-4.22-9-10.48S37.27,42.49,42.43,42.49Z" transform="translate(-2.28 -2.69)"/><rect x="57.38" y="35.99" width="5.24" height="28.4"/><polygon points="71.76 52.2 84.76 52.2 84.76 47.33 71.76 47.33 71.76 40.78 86.71 40.78 86.71 35.99 66.56 35.99 66.56 64.39 87.16 64.39 87.16 59.56 71.76 59.56 71.76 52.2"/><polygon points="109.23 54.64 95.53 35.99 90.58 35.99 90.58 64.39 95.86 64.39 95.86 45.7 109.51 64.39 114.51 64.39 114.51 35.99 109.23 35.99 109.23 54.64"/><polygon points="118 40.78 126 40.78 126 64.39 131.16 64.39 131.16 40.78 139.17 40.78 139.17 35.99 118 35.99 118 40.78"/><rect x="142.76" y="35.99" width="5.24" height="28.4"/><path d="M171.33,51.15a19.11,19.11,0,0,0-3.45-1l-3.82-.89c-2.44-.61-4.59-1.3-4.59-3.41,0-2.48,2.84-3.34,5.2-3.34a7.23,7.23,0,0,1,4.27,1.1,4.53,4.53,0,0,1,1.74,3.78h5.37a9.23,9.23,0,0,0-3.74-7.31c-1.95-1.43-4.47-2-7.72-2a11.44,11.44,0,0,0-7.72,2.43,7.39,7.39,0,0,0-2.76,5.81,6.75,6.75,0,0,0,3.53,6.26,13.58,13.58,0,0,0,3.29,1.38c1.14.33,2.28.57,3.29.78l2.32.52c3.09.65,4.43,1.63,4.43,3.62,0,2.76-2.24,4.43-5.85,4.43a7.39,7.39,0,0,1-5-1.54,5,5,0,0,1-1.5-2.48,3.78,3.78,0,0,1-.21-1.14c0-.33,0-.61-.08-.85h-5.52c0,9.38,8.61,10.52,12.14,10.52a13.53,13.53,0,0,0,7.77-2,8.35,8.35,0,0,0,3.82-7.19A7.71,7.71,0,0,0,171.33,51.15Z" transform="translate(-2.28 -2.69)"/><polygon points="175.47 40.78 183.48 40.78 183.48 64.39 188.64 64.39 188.64 40.78 196.64 40.78 196.64 35.99 175.47 35.99 175.47 40.78"/><path d="M218.11,51.15a19.25,19.25,0,0,0-3.46-1l-3.82-.89c-2.44-.61-4.59-1.3-4.59-3.41,0-2.48,2.84-3.34,5.2-3.34a7.23,7.23,0,0,1,4.27,1.1,4.53,4.53,0,0,1,1.74,3.78h5.37a9.23,9.23,0,0,0-3.74-7.31c-2-1.43-4.47-2-7.72-2a11.44,11.44,0,0,0-7.72,2.43,7.39,7.39,0,0,0-2.76,5.81,6.75,6.75,0,0,0,3.53,6.26,13.58,13.58,0,0,0,3.29,1.38c1.14.33,2.28.57,3.29.78l2.32.52c3.09.65,4.43,1.63,4.43,3.62,0,2.76-2.24,4.43-5.85,4.43a7.41,7.41,0,0,1-5-1.54,5,5,0,0,1-1.5-2.48,3.78,3.78,0,0,1-.21-1.14c0-.33,0-.61-.08-.85h-5.52c0,9.38,8.61,10.52,12.15,10.52a13.52,13.52,0,0,0,7.76-2,8.35,8.35,0,0,0,3.82-7.19A7.7,7.7,0,0,0,218.11,51.15Z" transform="translate(-2.28 -2.69)"/></svg>