<?xml version="1.0" encoding="UTF-8"?>
<svg xmlns="http://www.w3.org/2000/svg" width="217" height="38" viewBox="0 0 217 38" fill="none">
  <path d="M14.1722 13.3335H25.5055V10.5002H14.1722V13.3335ZM14.1722 17.5835H25.5055V14.7502H14.1722V17.5835ZM14.1722 21.8335H21.2555V19.0002H14.1722V21.8335ZM9.9222 13.3335C10.3236 13.3335 10.6603 13.198 10.9323 12.9269C11.2033 12.6549 11.3389 12.3182 11.3389 11.9168C11.3389 11.5154 11.2033 11.1787 10.9323 10.9067C10.6603 10.6357 10.3236 10.5002 9.9222 10.5002C9.52081 10.5002 9.18412 10.6357 8.91212 10.9067C8.64106 11.1787 8.50553 11.5154 8.50553 11.9168C8.50553 12.3182 8.64106 12.6549 8.91212 12.9269C9.18412 13.198 9.52081 13.3335 9.9222 13.3335ZM9.9222 17.5835C10.3236 17.5835 10.6603 17.4475 10.9323 17.1755C11.2033 16.9044 11.3389 16.5682 11.3389 16.1668C11.3389 15.7654 11.2033 15.4287 10.9323 15.1567C10.6603 14.8857 10.3236 14.7502 9.9222 14.7502C9.52081 14.7502 9.18412 14.8857 8.91212 15.1567C8.64106 15.4287 8.50553 15.7654 8.50553 16.1668C8.50553 16.5682 8.64106 16.9044 8.91212 17.1755C9.18412 17.4475 9.52081 17.5835 9.9222 17.5835ZM9.9222 21.8335C10.3236 21.8335 10.6603 21.6975 10.9323 21.4255C11.2033 21.1544 11.3389 20.8182 11.3389 20.4168C11.3389 20.0154 11.2033 19.6787 10.9323 19.4067C10.6603 19.1357 10.3236 19.0002 9.9222 19.0002C9.52081 19.0002 9.18412 19.1357 8.91212 19.4067C8.64106 19.6787 8.50553 20.0154 8.50553 20.4168C8.50553 20.8182 8.64106 21.1544 8.91212 21.4255C9.18412 21.6975 9.52081 21.8335 9.9222 21.8335ZM2.83887 33.1668V7.66683C2.83887 6.88766 3.11653 6.22041 3.67187 5.66508C4.22626 5.11069 4.89303 4.8335 5.6722 4.8335H28.3389C29.118 4.8335 29.7853 5.11069 30.3406 5.66508C30.895 6.22041 31.1722 6.88766 31.1722 7.66683V24.6668C31.1722 25.446 30.895 26.1132 30.3406 26.6686C29.7853 27.223 29.118 27.5002 28.3389 27.5002H8.50553L2.83887 33.1668Z" fill="black"></path>
  <path opacity="0.7" d="M45.2949 27H48.5391V20.4688H55.5215V27H58.7656V11.499H55.5215V17.7939H48.5391V11.499H45.2949V27ZM66.3174 27.2363C69.6045 27.2363 71.1943 25.292 71.5488 23.5947L71.5811 23.4766H68.7021L68.6807 23.541C68.4551 24.1855 67.6709 24.8945 66.3818 24.8945C64.7812 24.8945 63.7822 23.8203 63.75 21.9834H71.6777V21.0166C71.6777 17.5361 69.5615 15.248 66.1885 15.248C62.8154 15.248 60.6562 17.5898 60.6562 21.2529V21.2637C60.6562 24.9482 62.7939 27.2363 66.3174 27.2363ZM66.2422 17.5898C67.542 17.5898 68.4766 18.417 68.6699 20.0068H63.7822C63.9863 18.4492 64.9531 17.5898 66.2422 17.5898ZM76.7266 27.1826C78.2412 27.1826 79.4658 26.4629 80.1211 25.2812H80.1855V27H83.3223V19.1045C83.3223 16.7842 81.3994 15.248 78.4238 15.248C75.3838 15.248 73.5576 16.7734 73.3857 18.9004L73.375 19.0293H76.2432L76.2646 18.9326C76.415 18.1914 77.124 17.6436 78.2949 17.6436C79.5195 17.6436 80.1855 18.2773 80.1855 19.2979V20.0068L77.3389 20.1787C74.4814 20.3613 72.8594 21.5859 72.8594 23.6807V23.7021C72.8594 25.7324 74.417 27.1826 76.7266 27.1826ZM75.9639 23.541V23.5195C75.9639 22.7031 76.5977 22.1875 77.8115 22.1123L80.1855 21.9619V22.7891C80.1855 23.9922 79.1543 24.8945 77.7471 24.8945C76.6621 24.8945 75.9639 24.3896 75.9639 23.541ZM85.4277 27H88.5645V11.499H85.4277V27ZM95.2568 27.2363C95.9121 27.2363 96.417 27.1719 96.7715 27.1182V24.8193C96.5781 24.8408 96.374 24.873 96.0947 24.873C95.1494 24.873 94.666 24.5078 94.666 23.4336V17.8477H96.7715V15.4844H94.666V12.6699H91.4971V15.4844H89.8965V17.8477H91.4971V23.7773C91.4971 26.248 92.7002 27.2363 95.2568 27.2363ZM98.5762 27H101.713V20.4043C101.713 18.9004 102.604 17.8477 103.99 17.8477C105.419 17.8477 106.214 18.8037 106.214 20.415V27H109.351V19.7705C109.351 16.9883 107.804 15.248 105.312 15.248C103.582 15.248 102.368 16.043 101.777 17.4717H101.713V11.499H98.5762V27ZM118.535 27.2686C122.284 27.2686 125.002 24.916 125.303 21.6182L125.313 21.5H122.155L122.134 21.6074C121.715 23.4443 120.404 24.5186 118.535 24.5186C116.054 24.5186 114.464 22.499 114.464 19.2334V19.2227C114.464 15.9785 116.054 13.9805 118.535 13.9805C120.469 13.9805 121.736 15.0977 122.102 16.8057L122.145 16.9883H125.303L125.292 16.8916C124.991 13.6045 122.295 11.2305 118.535 11.2305C114.013 11.2305 111.155 14.2383 111.155 19.2334V19.2441C111.155 24.2393 114.002 27.2686 118.535 27.2686ZM132.339 27.2363C135.819 27.2363 138.043 25.002 138.043 21.2422V21.2207C138.043 17.4932 135.776 15.248 132.328 15.248C128.891 15.248 126.635 17.5146 126.635 21.2207V21.2422C126.635 24.9912 128.837 27.2363 132.339 27.2363ZM132.35 24.7764C130.803 24.7764 129.825 23.498 129.825 21.2422V21.2207C129.825 18.9971 130.813 17.708 132.328 17.708C133.854 17.708 134.853 18.9971 134.853 21.2207V21.2422C134.853 23.4873 133.875 24.7764 132.35 24.7764ZM139.665 27H142.802V20.3828C142.802 18.8789 143.693 17.8477 145.101 17.8477C146.508 17.8477 147.217 18.707 147.217 20.2109V27H150.354V19.5664C150.354 16.8701 148.914 15.248 146.379 15.248C144.639 15.248 143.457 16.0537 142.866 17.375H142.802V15.4844H139.665V27ZM156.917 27.2363C157.572 27.2363 158.077 27.1719 158.432 27.1182V24.8193C158.238 24.8408 158.034 24.873 157.755 24.873C156.81 24.873 156.326 24.5078 156.326 23.4336V17.8477H158.432V15.4844H156.326V12.6699H153.157V15.4844H151.557V17.8477H153.157V23.7773C153.157 26.248 154.36 27.2363 156.917 27.2363ZM165.231 27.2363C168.519 27.2363 170.108 25.292 170.463 23.5947L170.495 23.4766H167.616L167.595 23.541C167.369 24.1855 166.585 24.8945 165.296 24.8945C163.695 24.8945 162.696 23.8203 162.664 21.9834H170.592V21.0166C170.592 17.5361 168.476 15.248 165.103 15.248C161.729 15.248 159.57 17.5898 159.57 21.2529V21.2637C159.57 24.9482 161.708 27.2363 165.231 27.2363ZM165.156 17.5898C166.456 17.5898 167.391 18.417 167.584 20.0068H162.696C162.9 18.4492 163.867 17.5898 165.156 17.5898ZM171.258 27H174.556L176.715 23.0039H176.779L178.971 27H182.376L178.81 21.1777L182.408 15.4844H178.992L176.951 19.373H176.887L174.813 15.4844H171.279L174.867 21.2637L171.258 27ZM188.241 27.2363C188.896 27.2363 189.401 27.1719 189.756 27.1182V24.8193C189.562 24.8408 189.358 24.873 189.079 24.873C188.134 24.873 187.65 24.5078 187.65 23.4336V17.8477H189.756V15.4844H187.65V12.6699H184.481V15.4844H182.881V17.8477H184.481V23.7773C184.481 26.248 185.685 27.2363 188.241 27.2363ZM193.118 27.1826C194.085 27.1826 194.858 26.4092 194.858 25.4424C194.858 24.4648 194.085 23.7021 193.118 23.7021C192.141 23.7021 191.378 24.4648 191.378 25.4424C191.378 26.4092 192.141 27.1826 193.118 27.1826ZM196.072 27H199.478L200.648 23.2402H206.127L207.298 27H210.703L205.3 11.499H201.486L196.072 27ZM203.355 14.5068H203.42L205.375 20.8125H201.4L203.355 14.5068ZM212.293 27H215.537V11.499H212.293V27Z" fill="black"></path>
</svg>
