<?xml version="1.0" encoding="UTF-8"?>
<svg xmlns="http://www.w3.org/2000/svg" width="162" height="29" viewBox="0 0 162 29" fill="none">
  <path d="M8.04547 22L0.905466 0.999999H5.34547L10.4455 16.69L15.3355 0.999999H19.7155L12.5455 22H8.04547ZM20.8611 22V0.999999H29.8311C33.8811 0.999999 36.9111 2.29 36.9111 6.49C36.9111 8.44 35.8311 10.21 33.9111 10.99C36.3711 11.8 37.6311 13.27 37.6311 15.79C37.6311 19.99 34.8111 22 29.9211 22H20.8611ZM25.0611 9.43H30.1011C31.7211 9.43 32.7711 8.59 32.7711 6.97C32.7711 5.35 31.7211 4.6 30.1011 4.6H25.0611V9.43ZM25.0611 18.4H30.0411C32.0811 18.4 33.4311 17.65 33.4311 15.7C33.4311 13.78 32.0811 12.97 30.0411 12.97H25.0611V18.4ZM49.328 22.36C43.298 22.36 39.218 18.07 39.218 11.44C39.218 5.08 43.328 0.64 49.328 0.64C54.308 0.64 57.938 3.67 58.898 8.35H54.548C53.798 5.74 51.938 4.39 49.328 4.39C45.728 4.39 43.418 7.18 43.418 11.5C43.418 15.82 45.728 18.61 49.328 18.61C51.938 18.61 53.798 17.14 54.578 14.35H58.898C57.878 19.24 54.278 22.36 49.328 22.36ZM67.8261 22L71.4861 0.999999H74.3061L70.6461 22H67.8261ZM74.4484 22L77.0284 7.27H79.5784L79.2784 9.13C80.4484 7.63 81.9184 6.94 83.6884 6.94C86.6884 6.94 88.0984 8.71 88.0984 11.17C88.0984 11.74 88.0384 12.34 87.9184 13L86.3584 22H83.6584L85.1884 13.24C85.3084 12.55 85.3984 12.07 85.3984 11.47C85.3984 10.15 84.6184 9.28 82.9984 9.28C80.6284 9.28 79.0084 11.26 78.4684 14.29L77.1484 22H74.4484ZM95.0909 22.33C91.6709 22.33 89.3909 20.62 89.3909 17.65H92.0909C92.0909 19.39 93.3509 20.08 95.3309 20.08C97.4309 20.08 98.6009 19.27 98.6009 17.92C98.6009 16.6 97.4909 16.12 96.2009 15.79L94.4909 15.34C93.2009 15.01 90.8609 14.11 90.8609 11.41C90.8609 8.59 93.1409 6.94 96.5909 6.94C100.101 6.94 101.991 8.56 102.081 11.41H99.3809C99.2609 9.64 98.2409 9.19 96.5009 9.19C94.6409 9.19 93.5609 9.91 93.5609 11.2C93.5609 12.4 94.4009 12.88 95.8109 13.24L97.5209 13.69C99.2909 14.17 101.301 15.13 101.301 17.71C101.301 20.56 98.9309 22.33 95.0909 22.33ZM106.12 4.36L106.6 1.45H109.33L108.85 4.36H106.12ZM103 22L105.61 7.27H108.31L105.7 22H103ZM114.258 28.81C110.208 28.81 108.558 26.92 108.558 23.53H111.228C111.198 25.57 112.128 26.53 114.498 26.53C117.228 26.53 118.728 24.79 119.178 21.79L119.448 19.99C118.248 21.49 116.628 22.15 114.948 22.15C111.618 22.15 109.458 19.87 109.458 16.06C109.458 10.81 112.728 6.94 117.018 6.94C119.058 6.94 120.648 7.87 121.428 9.43L121.818 7.27H124.368L121.818 21.85C121.068 26.32 118.788 28.81 114.258 28.81ZM115.548 19.81C118.458 19.81 120.588 16.9 120.588 13C120.588 10.54 119.298 9.28 117.018 9.28C114.228 9.28 112.188 12.1 112.188 15.91C112.188 18.46 113.388 19.81 115.548 19.81ZM125.341 22L129.031 0.999999H131.731L130.321 8.95C131.461 7.57 132.871 6.94 134.581 6.94C137.581 6.94 138.991 8.71 138.991 11.17C138.991 11.74 138.931 12.34 138.811 13L137.251 22H134.551L136.081 13.24C136.201 12.55 136.291 12.07 136.291 11.47C136.291 10.15 135.511 9.28 133.891 9.28C131.521 9.28 129.871 11.26 129.361 14.29L128.041 22H125.341ZM144.783 22.24C142.623 22.24 141.483 21.04 141.483 19.24C141.483 18.97 141.513 18.7 141.573 18.34L143.133 9.61H141.123L141.513 7.27H143.523L144.273 2.95H146.973L146.223 7.27H149.253L148.833 9.61H145.833L144.363 17.83C144.303 18.16 144.273 18.49 144.273 18.73C144.273 19.42 144.663 19.84 145.653 19.84C146.163 19.84 146.523 19.78 147.063 19.63L146.673 21.97C146.073 22.15 145.383 22.24 144.783 22.24ZM154.077 22.33C150.657 22.33 148.377 20.62 148.377 17.65H151.077C151.077 19.39 152.337 20.08 154.317 20.08C156.417 20.08 157.587 19.27 157.587 17.92C157.587 16.6 156.477 16.12 155.187 15.79L153.477 15.34C152.187 15.01 149.847 14.11 149.847 11.41C149.847 8.59 152.127 6.94 155.577 6.94C159.087 6.94 160.977 8.56 161.067 11.41H158.367C158.247 9.64 157.227 9.19 155.487 9.19C153.627 9.19 152.547 9.91 152.547 11.2C152.547 12.4 153.387 12.88 154.797 13.24L156.507 13.69C158.277 14.17 160.287 15.13 160.287 17.71C160.287 20.56 157.917 22.33 154.077 22.33Z" fill="black"></path>
</svg>
