<?xml version="1.0" encoding="UTF-8"?>
<svg xmlns="http://www.w3.org/2000/svg" width="117" height="48" viewBox="0 0 117 48" fill="none">
  <path d="M100.058 44.8983V36.0183C100.105 35.2353 99.9991 34.4506 99.7456 33.7093C99.4921 32.968 99.0963 32.2846 98.5811 31.6983C98.0529 31.1711 97.4219 30.7611 96.7282 30.4944C96.0346 30.2276 95.2937 30.11 94.5526 30.1491C93.8043 30.096 93.0539 30.2145 92.3572 30.4956C91.6605 30.7767 91.0355 31.2133 90.5289 31.7727L89.9142 30.4203H87.5078V44.8959H90.8504V34.4379C91.1999 33.9932 91.6468 33.6366 92.1557 33.3963C92.6401 33.1362 93.1773 32.9929 93.7255 32.9775C94.1464 32.9366 94.5709 32.992 94.9677 33.1395C95.3645 33.287 95.7235 33.5228 96.018 33.8295C96.5515 34.6227 96.7995 35.5771 96.7205 36.5331V44.8995L100.058 44.8983Z" fill="black"></path>
  <path d="M63.9719 41.9788C63.9719 44.1068 64.7293 45.1704 66.2442 45.1695C66.7807 45.2114 67.3175 45.0929 67.7879 44.8287C68.2584 44.5646 68.6417 44.1665 68.8903 43.684C67.8398 43.3408 67.3137 42.2772 67.3121 40.4932V24.2188L63.9707 25.03L63.9719 41.9788Z" fill="black"></path>
  <path d="M116.772 7.79768C116.037 7.43822 115.223 7.27308 114.408 7.31768C113.777 7.29217 113.148 7.40804 112.567 7.65698C111.985 7.90592 111.465 8.28179 111.044 8.75768V7.55768H108.036V20.6209H111.049V13.1809C111.025 12.322 111.315 11.4843 111.863 10.8277C112.082 10.5362 112.363 10.2985 112.685 10.1323C113.008 9.96605 113.363 9.8756 113.725 9.86768C114.355 9.86459 114.972 10.0518 115.497 10.4053L116.772 7.79768Z" fill="black"></path>
  <path d="M91.6656 7.56738H88.4701L85.156 15.539L82.0708 7.56738H78.7686L84.6018 20.8658H85.6852L91.6656 7.56738Z" fill="black"></path>
  <path d="M62.22 20.8658V2.76855H59.2072V13.5446L50.8703 2.76855H49.3633V20.6342H52.376V9.56656L60.9456 20.8658H62.22Z" fill="black"></path>
  <path d="M117 36.8159C117.029 35.9297 116.876 35.0471 116.552 34.2233C116.227 33.3996 115.738 32.6525 115.114 32.0291C113.726 30.7769 111.919 30.105 110.059 30.1495C108.199 30.1941 106.425 30.9518 105.097 32.2692C104.394 33.0009 103.846 33.8697 103.487 34.8227C103.127 35.7757 102.963 36.7928 103.005 37.8119C102.947 38.7973 103.085 39.7844 103.413 40.7143C103.74 41.6442 104.25 42.4978 104.911 43.224C105.598 43.8873 106.412 44.4016 107.302 44.7352C108.193 45.0689 109.142 45.215 110.09 45.1643C111.956 45.3038 113.813 44.7958 115.355 43.7244L114.058 41.142C113.588 41.5672 113.038 41.8925 112.442 42.0986C111.845 42.3048 111.213 42.3875 110.584 42.342C109.528 42.3983 108.49 42.0562 107.67 41.3819C107.301 41.0397 107.006 40.6241 106.804 40.1611C106.601 39.6981 106.496 39.1978 106.494 38.6916H116.719C116.874 38.0774 116.968 37.449 117 36.8159ZM106.615 36.1536C107.078 34.0344 108.265 32.9752 110.175 32.976C110.614 32.9281 111.059 32.9748 111.48 33.1129C111.901 33.2511 112.288 33.4776 112.616 33.7776C112.944 34.0777 113.205 34.4444 113.383 34.8539C113.561 35.2634 113.652 35.7063 113.649 36.1536H106.615Z" fill="black"></path>
  <path d="M82.7612 32.1517C81.3973 30.8525 79.5902 30.1356 77.7165 30.1506C75.8429 30.1656 74.0472 30.9112 72.7037 32.2321C71.4082 33.7151 70.7307 35.6478 70.8135 37.6249C70.7152 39.6172 71.3616 41.5739 72.6242 43.1065C73.9815 44.4259 75.79 45.1646 77.6727 45.1684C79.5553 45.1722 81.3667 44.4408 82.7292 43.1269C83.9148 41.5503 84.5595 39.6256 84.5655 37.6449C84.5715 35.6642 83.9385 33.7356 82.7624 32.1517H82.7612ZM80.1757 41.1685C79.8954 41.5661 79.5224 41.8876 79.0898 42.1045C78.6572 42.3214 78.1783 42.4269 77.6957 42.4117C75.4238 42.4117 74.2878 40.8165 74.2878 37.6261C74.2156 36.3979 74.5396 35.1793 75.211 34.1533C75.4927 33.7558 75.8668 33.4345 76.3004 33.2179C76.7339 33.0013 77.2135 32.896 77.6969 32.9113C79.9601 32.9113 81.0921 34.4829 81.0929 37.6261C81.1679 38.8762 80.8448 40.1177 80.1709 41.1685H80.1757Z" fill="black"></path>
  <path d="M53.3799 24.8271H51.8552L44.0498 44.8983H47.9121L49.2755 40.8855H55.9809L57.4049 44.8983H61.2423L53.3799 24.8271ZM50.2651 38.1939L52.617 30.8823L54.97 38.1939H50.2651Z" fill="black"></path>
  <path d="M105.376 13.3332C105.403 12.5336 105.266 11.737 104.973 10.9936C104.681 10.2501 104.24 9.57587 103.677 9.01324C102.425 7.88407 100.795 7.27854 99.1175 7.31932C97.4402 7.36009 95.8409 8.04413 94.6436 9.23284C94.01 9.89267 93.5159 10.6761 93.1915 11.5354C92.8672 12.3947 92.7193 13.3118 92.7569 14.2308C92.7041 15.1194 92.8289 16.0097 93.1239 16.8485C93.4189 17.6872 93.8781 18.4572 94.4739 19.1124C95.0936 19.7103 95.8275 20.1739 96.6306 20.4747C97.4337 20.7756 98.2891 20.9074 99.1443 20.862C100.827 20.9857 102.501 20.526 103.891 19.5588L102.722 17.2308C102.297 17.614 101.801 17.907 101.263 18.0925C100.724 18.2781 100.154 18.3523 99.5869 18.3108C98.6354 18.3621 97.699 18.0537 96.9598 17.4456C96.6269 17.1372 96.3608 16.7624 96.1782 16.3448C95.9956 15.9272 95.9006 15.4758 95.899 15.0192H105.118C105.26 14.4675 105.347 13.9026 105.376 13.3332ZM96.0117 12.7332C96.0798 11.9309 96.4504 11.1858 97.0468 10.6523C97.6433 10.1189 98.4198 9.83789 99.2155 9.86764C99.6122 9.82453 100.013 9.86665 100.393 9.99125C100.772 10.1158 101.121 10.3201 101.417 10.5906C101.713 10.8612 101.95 11.1919 102.11 11.5611C102.271 11.9304 102.353 12.3298 102.351 12.7332H96.0117Z" fill="black"></path>
  <path d="M77.6781 13.3332C77.7049 12.5336 77.5678 11.7369 77.2753 10.9935C76.9829 10.25 76.5415 9.57578 75.9789 9.01324C74.7265 7.88407 73.0966 7.27854 71.4192 7.31932C69.7419 7.36009 68.1426 8.04413 66.9454 9.23284C66.3117 9.89263 65.8176 10.6761 65.4932 11.5354C65.1688 12.3947 65.021 13.3118 65.0587 14.2308C65.0058 15.1195 65.1307 16.0097 65.4257 16.8485C65.7207 17.6872 66.1798 18.4572 66.7757 19.1124C67.3954 19.7103 68.1292 20.1739 68.9323 20.4747C69.7354 20.7756 70.5908 20.9074 71.4461 20.862C73.1287 20.9858 74.8028 20.5261 76.1924 19.5588L75.0237 17.2308C74.5993 17.614 74.1031 17.9071 73.5646 18.0926C73.026 18.2782 72.4561 18.3524 71.8887 18.3108C70.9376 18.3618 70.0017 18.0534 69.2628 17.4456C68.93 17.1371 68.6639 16.7623 68.4813 16.3447C68.2988 15.9271 68.2037 15.4758 68.202 15.0192H77.4218C77.563 14.4674 77.6489 13.9025 77.6781 13.3332ZM68.3135 12.7332C68.3818 11.931 68.7525 11.1861 69.3489 10.6527C69.9453 10.1193 70.7216 9.83818 71.5173 9.86764C71.914 9.82434 72.3153 9.86632 72.6948 9.99084C73.0743 10.1154 73.4236 10.3196 73.7196 10.5902C74.0156 10.8608 74.2517 11.1916 74.4124 11.5609C74.5732 11.9302 74.6549 12.3297 74.6523 12.7332H68.3135Z" fill="black"></path>
  <path d="M19.9817 45.1561C19.7799 45.5329 19.5877 45.8881 19.399 46.2253C19.3362 46.3369 19.2721 46.4473 19.208 46.5565C19.7621 47.4601 20.2759 48.0541 20.8253 47.9965C22.0463 47.8669 23.5035 44.5033 23.9425 39.9385C22.2647 40.9105 21.0057 43.2517 19.9817 45.1561Z" fill="black"></path>
  <path d="M12.9648 0.000166365C10.7765 -0.00369807 8.67266 0.854563 7.0995 2.39297C6.29992 3.16825 5.66367 4.09908 5.22902 5.12948C4.79438 6.15987 4.57031 7.26853 4.57031 8.38876C4.57031 9.509 4.79438 10.6177 5.22902 11.6481C5.66367 12.6784 6.29992 13.6093 7.0995 14.3846C8.06896 15.3711 9.26455 16.1 10.5799 16.5063C11.8952 16.9127 13.2894 16.9838 14.6385 16.7135C15.9876 16.4433 17.2497 15.8399 18.3125 14.9571C19.3753 14.0743 20.2058 12.9395 20.7301 11.6537C21.2544 10.3678 21.4562 8.97086 21.3176 7.58708C21.1791 6.2033 20.7044 4.87562 19.9358 3.72221C19.1672 2.5688 18.1286 1.62543 16.9124 0.97605C15.6962 0.326673 14.3401 -0.00856703 12.9648 0.000166365Z" fill="black"></path>
  <path d="M24.6941 0.000206363C22.7353 -0.00205195 20.8371 0.687188 19.3271 1.94901C20.1799 2.78511 20.8578 3.78591 21.3208 4.89203C21.7838 5.99816 22.0224 7.18706 22.0224 8.3882C22.0224 9.58935 21.7838 10.7783 21.3208 11.8844C20.8578 12.9905 20.1799 13.9913 19.3271 14.8274C20.349 15.7135 21.5679 16.3362 22.8796 16.6421C24.1913 16.9479 25.5567 16.928 26.8591 16.5839C28.1615 16.2398 29.3621 15.5818 30.3582 14.6662C31.3544 13.7506 32.1164 12.6046 32.5791 11.3262C33.0418 10.0478 33.1915 8.67515 33.0153 7.32554C32.8391 5.97593 32.3423 4.68957 31.5674 3.57646C30.7924 2.46335 29.7624 1.55661 28.5654 0.933815C27.3685 0.311016 26.0402 -0.0093186 24.6941 0.000206363Z" fill="black"></path>
  <path d="M25.9611 32.7935C26.0193 32.7719 26.0798 32.7503 26.1344 32.7275L25.96 32.7947L25.9611 32.7935Z" fill="black"></path>
  <path d="M27.1699 32.195C27.2103 32.1698 27.253 32.1458 27.2886 32.1182C27.247 32.1458 27.2055 32.1698 27.1699 32.195Z" fill="black"></path>
  <path d="M26.3666 32.6281L26.5304 32.5537C26.4758 32.5801 26.42 32.6053 26.3643 32.6293L26.3666 32.6281Z" fill="black"></path>
  <path d="M26.766 32.43C26.8159 32.4036 26.8669 32.3772 26.9156 32.3496C26.8657 32.3784 26.8147 32.4048 26.7637 32.4312L26.766 32.43Z" fill="black"></path>
  <path d="M13.9492 32.9834C14.2304 33.0422 14.5283 33.0962 14.851 33.1442C14.5283 33.0962 14.2304 33.0422 13.9492 32.9834Z" fill="black"></path>
  <path d="M15.3957 33.2185C15.245 33.2005 15.1014 33.1801 14.959 33.1597C15.1014 33.1801 15.2438 33.2005 15.3957 33.2185Z" fill="black"></path>
  <path d="M17.5241 33.3816C17.25 33.3708 16.9854 33.3576 16.7314 33.3408C16.9854 33.3576 17.25 33.3672 17.5241 33.3816Z" fill="black"></path>
  <path d="M16.6039 33.3339C16.4093 33.3207 16.2218 33.3051 16.0391 33.2871C16.223 33.3039 16.4093 33.3195 16.6039 33.3339Z" fill="black"></path>
  <path d="M15.9787 33.2821C15.8197 33.2677 15.6702 33.2497 15.5195 33.2329C15.6702 33.2497 15.8197 33.2725 15.9787 33.2821Z" fill="black"></path>
  <path d="M24.6442 33.1515C24.7083 33.1407 24.77 33.1263 24.8317 33.1143L24.6406 33.1527L24.6442 33.1515Z" fill="black"></path>
  <path d="M25.5397 32.9368L25.7201 32.8804L25.5361 32.938L25.5397 32.9368Z" fill="black"></path>
  <path d="M24.16 33.2295L24.3428 33.2007L24.1553 33.2295H24.16Z" fill="black"></path>
  <path d="M25.103 33.0541L25.2892 33.0073L25.1006 33.0553L25.103 33.0541Z" fill="black"></path>
  <path d="M23.6481 33.2907L23.7917 33.2739H23.7988L23.6445 33.2919L23.6481 33.2907Z" fill="black"></path>
  <path d="M22.3055 33.378L22.5239 33.3696L22.3008 33.378H22.3055Z" fill="black"></path>
  <path d="M23.0053 33.3423H23.105L22.9863 33.3495L23.0053 33.3423Z" fill="black"></path>
  <path fill-rule="evenodd" clip-rule="evenodd" d="M34.0764 23.9775C33.0712 22.186 31.7501 20.5958 30.1785 19.2855C29.2764 18.5941 28.2325 18.116 27.1237 17.8861C26.0149 17.6562 24.8692 17.6805 23.7709 17.9571C23.6404 17.9871 23.5134 18.0219 23.3912 18.0627L23.2797 18.0999L23.161 18.1395C21.7962 18.6665 20.3328 18.8809 18.8762 18.7671C17.2718 18.7642 15.6771 18.5154 14.1465 18.0291C12.2349 17.5779 9.93647 18.0723 9.15333 19.8915C8.96699 20.3242 8.8668 20.7898 8.85845 21.2617C8.8501 21.7336 8.93377 22.2025 9.10468 22.6417C9.27559 23.0809 9.53039 23.4817 9.85452 23.8212C10.1786 24.1608 10.5658 24.4325 10.9937 24.6207C11.4097 24.8012 11.833 24.9636 12.2623 25.1075C12.2092 24.6322 12.2411 24.1493 12.3583 23.6822C12.5431 22.9875 12.9369 22.3682 13.4852 21.9098C14.0335 21.4514 14.7091 21.1768 15.4185 21.1238C15.5063 21.113 15.5953 21.113 15.6831 21.113L15.6843 21.1154C16.3505 21.119 17.0014 21.3181 17.5579 21.6886C18.1143 22.059 18.5525 22.5848 18.8193 23.2022C19.1027 22.5424 19.582 21.9881 20.1907 21.6159C20.7995 21.2437 21.5075 21.0721 22.217 21.1248C22.9264 21.1776 23.602 21.452 24.1504 21.9102C24.6988 22.3684 25.0928 22.9876 25.2779 23.6822C25.419 24.245 25.4364 24.8307 25.3305 25.3984C25.9296 25.3829 26.525 25.5164 27.0637 25.7892C27.6989 26.111 28.2279 26.6126 28.5861 27.2331C28.9377 28.0036 29.038 28.8673 28.8724 29.6992C28.7069 30.5312 28.2842 31.2884 27.6653 31.8615C25.5959 33.4215 23.466 33.4335 18.7481 33.4143C17.1131 33.4335 15.4804 33.2859 13.8748 32.9739C13.5705 35.0138 13.4869 37.0812 13.6256 39.1395C13.9614 44.1051 15.5182 47.8551 16.808 47.9919C17.4761 48.0627 18.1133 47.1603 18.8193 45.8967C19.0049 45.566 19.196 45.2107 19.3944 44.8417L19.3945 44.8415C20.549 42.6941 21.9536 40.0816 24.007 39.1539C24.511 38.9214 25.0586 38.8019 25.6125 38.8035C28.5778 38.7869 30.3813 42.1706 31.8035 44.8389C32.7556 46.6252 33.5368 48.091 34.3814 48.0015C36.8803 47.7303 40.3832 33.9531 34.0764 23.9775ZM25.1443 26.0774C25.2248 26.068 25.3059 26.0636 25.387 26.0643C25.9112 26.0552 26.4285 26.186 26.8868 26.4434C27.3451 26.7008 27.7282 27.0759 27.9975 27.5307C28.2795 28.1594 28.3613 28.8611 28.2314 29.5388C28.1015 30.2165 27.7664 30.8366 27.2725 31.3131C25.5603 32.6019 23.7448 32.7363 20.0118 32.7363H18.7552C17.1654 32.7534 15.5778 32.6107 14.0159 32.3103L13.3265 32.1639L13.2209 32.8683C12.924 34.8638 12.8341 36.8852 12.9528 38.8995C12.9437 38.8974 12.9347 38.8941 12.9257 38.8908C12.9097 38.885 12.8935 38.8791 12.8768 38.8791C12.8462 38.8719 12.8143 38.8673 12.7824 38.8627C12.7612 38.8596 12.7399 38.8566 12.719 38.8527L12.6688 38.8433C12.6071 38.8315 12.5451 38.8197 12.4817 38.8131C12.4259 38.8035 12.3654 38.8035 12.3073 38.8035H12.3072C12.2965 38.8028 12.2858 38.8021 12.275 38.8014C12.2667 38.8008 12.2583 38.8002 12.2499 38.7996C12.1934 38.7955 12.1371 38.7915 12.0794 38.7915H12.0367C11.9931 38.7915 11.9504 38.7952 11.908 38.7988C11.8661 38.8024 11.8246 38.8059 11.7828 38.8059C11.7617 38.807 11.7416 38.8078 11.7221 38.8086C11.6791 38.8102 11.6389 38.8118 11.5965 38.8167C11.5051 38.8287 11.4162 38.8467 11.3272 38.8647L11.3271 38.8647C11.3032 38.8695 11.279 38.8733 11.2548 38.8771C11.224 38.8819 11.1933 38.8868 11.1634 38.8935C11.0692 38.9165 10.9783 38.946 10.8865 38.9758L10.8738 38.9799C10.8565 38.9854 10.8387 38.9905 10.8208 38.9957C10.796 39.0028 10.771 39.0099 10.7469 39.0183C10.6112 39.0672 10.4781 39.1233 10.3482 39.1863C10.3194 39.2002 10.2919 39.2157 10.2642 39.2315L10.2641 39.2315L10.2641 39.2315C10.2461 39.2417 10.228 39.252 10.2094 39.2619C10.199 39.2675 10.1887 39.2731 10.1783 39.2787C10.1659 39.2853 10.1535 39.2919 10.141 39.2985C10.0817 39.3301 10.0224 39.3616 9.96492 39.3963C9.94514 39.4102 9.92674 39.4234 9.90845 39.4365L9.90841 39.4365L9.90829 39.4366C9.87286 39.462 9.83784 39.4871 9.79405 39.5163C9.77286 39.5305 9.75058 39.5448 9.72829 39.5591C9.6807 39.5896 9.63307 39.6201 9.59589 39.6495C9.57444 39.6665 9.55261 39.684 9.53028 39.702C9.4958 39.7297 9.4601 39.7584 9.42265 39.7875C9.40667 39.8 9.39053 39.8122 9.37444 39.8245L9.37441 39.8245C9.32837 39.8595 9.28273 39.8942 9.24229 39.9315L9.19495 39.9754L9.19493 39.9754C9.15312 40.0141 9.10923 40.0548 9.06905 40.0911C9.05199 40.1065 9.03483 40.1213 9.01769 40.136L9.01767 40.136C8.97876 40.1694 8.93999 40.2027 8.90292 40.2435C8.87103 40.2786 8.83407 40.3163 8.79859 40.3525L8.79858 40.3525C8.77466 40.3769 8.75141 40.4006 8.73087 40.4223C8.71124 40.4431 8.69231 40.4623 8.67321 40.4816C8.64266 40.5126 8.61166 40.544 8.57662 40.5831C8.53184 40.6331 8.48265 40.6905 8.4406 40.7396L8.44048 40.7398L8.40812 40.7775C8.39192 40.7964 8.37641 40.8139 8.36079 40.8316C8.33065 40.8658 8.30009 40.9005 8.26336 40.9455C8.237 40.9778 8.20931 41.0137 8.18256 41.0483L8.18252 41.0483C8.15268 41.0869 8.124 41.124 8.09961 41.1531C8.05391 41.2076 8.01862 41.2539 7.96405 41.3256L7.96403 41.3256L7.96196 41.3283C7.93157 41.3682 7.89871 41.4142 7.86818 41.4569L7.86816 41.4569C7.84268 41.4925 7.81883 41.5259 7.7994 41.5515C7.76682 41.5945 7.74184 41.6299 7.70761 41.6783L7.67243 41.7279C7.63864 41.7755 7.60621 41.8239 7.57374 41.8725C7.55376 41.9023 7.53377 41.9322 7.51343 41.9619L7.48443 42.0054C7.45455 42.0502 7.42432 42.0954 7.39477 42.1407C7.36183 42.1911 7.3298 42.2418 7.29783 42.2925C7.27798 42.324 7.25815 42.3555 7.23814 42.3867C7.20677 42.4348 7.17454 42.4864 7.14292 42.537L7.1266 42.5631C7.07439 42.6483 7.02218 42.7347 6.97116 42.8199L6.86674 42.9927C6.81453 43.0791 6.76469 43.1655 6.71486 43.2531L6.61518 43.4259C6.5606 43.5207 6.50839 43.6143 6.45618 43.7091L6.37549 43.8519L6.19869 44.1759L6.14411 44.2767C6.04668 44.4569 5.95104 44.6347 5.85691 44.8098L5.85668 44.8103L5.68015 45.1383L5.62794 45.2343L5.46894 45.5283L5.39062 45.6687C5.34672 45.7527 5.30282 45.8319 5.25891 45.9087C5.24245 45.9385 5.2256 45.9676 5.2088 45.9965C5.19654 46.0176 5.18431 46.0387 5.17229 46.0599C5.14252 46.1137 5.10658 46.1759 5.07802 46.2253L5.07796 46.2254L5.05363 46.2675L5.03554 46.2993L5.03552 46.2994C5.01539 46.335 4.99795 46.3658 4.96464 46.4163C4.92192 46.4811 4.87564 46.5519 4.84598 46.6011C4.82181 46.6412 4.8 46.6749 4.77349 46.7159L4.77347 46.7159L4.75461 46.7451C4.71902 46.8003 4.67986 46.8603 4.64782 46.9071C4.61578 46.9539 4.58849 46.9923 4.55408 47.0403C4.5375 47.0634 4.5201 47.0874 4.50306 47.1109C4.48474 47.1361 4.46684 47.1607 4.45085 47.1831L4.44917 47.1855C4.419 47.2277 4.39208 47.2654 4.35829 47.3031C4.33649 47.3275 4.31373 47.3547 4.29213 47.3805L4.29195 47.3807L4.29189 47.3808C4.27949 47.3956 4.26747 47.41 4.25624 47.4231C4.23515 47.4477 4.21516 47.469 4.19401 47.4915L4.19391 47.4916L4.16369 47.5239C4.13047 47.5599 4.09487 47.5959 4.06283 47.6259C4.04108 47.6463 4.02096 47.6633 3.99989 47.6812L3.99297 47.6871C3.98521 47.6937 3.9773 47.7004 3.96909 47.7075C3.93586 47.7363 3.90027 47.7651 3.86942 47.7879C3.83856 47.8107 3.8089 47.8299 3.77568 47.8491L3.75031 47.864C3.72595 47.8785 3.7019 47.8927 3.67719 47.9043C3.64628 47.9189 3.61459 47.9317 3.58226 47.9427C3.54957 47.9544 3.5163 47.9645 3.48259 47.9727C3.45121 47.9789 3.41952 47.9833 3.38766 47.9859C3.34189 47.9903 3.29579 47.9903 3.25002 47.9859C2.3138 47.8863 1.23519 45.8871 0.586127 42.9003C0.478148 42.4023 0.382033 41.8779 0.300158 41.3295C-0.108393 38.535 -0.101192 35.6943 0.321519 32.9019C0.777081 29.7286 1.8811 26.686 3.56328 23.9679C3.61834 23.8811 3.67953 23.7824 3.74707 23.6734C3.89785 23.4303 4.08024 23.1361 4.29659 22.8087C4.42237 22.6167 4.56001 22.4163 4.70833 22.2087C5.03145 21.7553 5.37761 21.3191 5.74541 20.9019C6.26582 20.3112 6.84031 19.7716 7.46122 19.2903C7.62971 19.1631 7.80177 19.0431 7.97739 18.9303C8.04859 18.8846 8.12213 18.8428 8.19548 18.8011L8.24674 18.7719C8.28028 18.7527 8.31479 18.7316 8.34914 18.7105L8.34917 18.7105C8.40717 18.6749 8.46468 18.6396 8.5161 18.6147C8.55816 18.5944 8.59929 18.5756 8.6398 18.5571L8.63982 18.5571C8.67814 18.5396 8.71592 18.5224 8.75342 18.5043C8.7804 18.4911 8.80731 18.4778 8.83422 18.4644L8.83429 18.4644C8.91504 18.4244 8.99579 18.3843 9.07854 18.3483C9.1165 18.3327 9.15489 18.3187 9.19344 18.3047L9.19349 18.3047C9.21999 18.2951 9.24656 18.2854 9.27314 18.2751L9.35831 18.2415C9.45543 18.203 9.55248 18.1646 9.65166 18.1311C9.68115 18.121 9.71139 18.1127 9.74174 18.1044L9.74175 18.1044C9.76515 18.098 9.78861 18.0916 9.81185 18.0843C9.25171 18.4715 8.8092 19.0088 8.53389 19.6359C8.08889 20.6738 8.06909 21.8477 8.47884 22.9003C8.88859 23.9529 9.69442 24.7982 10.7196 25.2507C11.2771 25.4927 11.8471 25.7035 12.427 25.882C12.623 26.5111 12.9287 27.0999 13.3301 27.6206C14.2254 28.6936 15.2821 29.6173 16.4615 30.3578C17.2439 30.9042 18.0298 31.4466 18.8193 31.985C19.6103 31.4474 20.3954 30.905 21.1746 30.3578C22.3541 29.6174 23.4109 28.6937 24.306 27.6206C24.6656 27.1542 24.9484 26.6331 25.1443 26.0774Z" fill="black"></path>
</svg>
