<?xml version="1.0" encoding="UTF-8"?>
<svg xmlns="http://www.w3.org/2000/svg" width="120" height="120" viewBox="0 0 120 120" fill="none">
  <rect width="120" height="120" rx="60" fill="#F1F2EA"></rect>
  <g clip-path="url(#clip0_11321_13732)">
    <path d="M66.6255 71.3094C66.6255 71.3094 72.7713 66.4672 76.6012 63.5199C80.6255 60.4187 83.7591 61.7304 86.2773 64.3215L67.0708 82.8559H44.5" stroke="#231F20" stroke-width="2" stroke-linecap="round" stroke-linejoin="round"></path>
    <path d="M32.9009 74.3952C37.6215 68.3304 41.3624 66.0146 46.0183 66.0146C49.913 66.0146 51.994 66.4843 55.3138 68.7758H62.4474C63.5972 68.7758 67.3786 69.294 67.3786 75.0106H52.3584" stroke="#231F20" stroke-width="2" stroke-linecap="round" stroke-linejoin="round"></path>
    <path d="M26.7144 76.7349L30.5929 72.7188L44.8277 87.3503L40.9492 91.3665" fill="white"></path>
    <path d="M26.7144 76.7349L30.5929 72.7188L44.8277 87.3503L40.9492 91.3665" stroke="#231F20" stroke-width="2" stroke-linecap="round" stroke-linejoin="round"></path>
  </g>
  <circle cx="59.952" cy="45.952" r="17.452" fill="#26D9C4" stroke="#231F20" stroke-width="2"></circle>
  <path d="M53.4395 48.1871L56.3997 51.3795L66.4644 40.5254" stroke="#231F20" stroke-width="2" stroke-linecap="round" stroke-linejoin="round"></path>
  <defs>
    <clipPath id="clip0_11321_13732">
      <rect width="62" height="32.081" fill="white" transform="translate(25.5 60.5)"></rect>
    </clipPath>
  </defs>
</svg>
