<?xml version="1.0" encoding="UTF-8"?>
<svg xmlns="http://www.w3.org/2000/svg" width="130" height="38" viewBox="0 0 130 38" fill="none">
  <g clip-path="url(#clip0_133_6091)">
    <path d="M12.8104 15.148C14.4808 13.7313 15.3454 11.5599 15.3454 8.68592C15.3454 7.6931 15.3454 4.69723 13.0986 2.50258C11.0166 0.447266 8.62864 0.447266 6.31131 0.447266H0.670898V16.942H6.83477C9.17563 16.942 11.0871 16.6343 12.8104 15.148ZM3.70578 14.1551V3.28057H5.99959C6.5701 3.28057 7.09944 3.28057 7.57584 3.3038C8.05225 3.32702 8.4816 3.39669 8.91684 3.51862C10.9989 4.11083 11.9988 5.82939 11.9988 8.73237C11.9988 11.1128 11.2342 12.814 9.75202 13.592C8.74627 14.1319 7.69936 14.1609 6.31131 14.1609H3.70578V14.1551Z" fill="white"></path>
    <path d="M20.244 0.447266H17.1621V16.9362H20.244V0.447266Z" fill="white"></path>
    <path d="M39.3357 7.6465H31.0662V10.503H35.8244C35.248 13.0751 33.1483 14.724 30.731 14.724C27.7431 14.724 25.4023 12.0358 25.4023 8.63932C25.4023 5.24283 27.6726 2.69402 30.6839 2.69402C32.666 2.69402 34.4834 3.82618 35.2951 5.55055H38.8769C37.8477 2.3863 34.7422 0.00585938 30.7251 0.00585938C25.7787 0.00585938 22.0498 3.75651 22.0498 8.76125C22.0498 13.766 25.7552 17.3947 30.678 17.3947C35.6009 17.3947 39.3769 13.6441 39.3769 8.63932C39.3769 8.44772 39.3769 8.02389 39.3298 7.6465H39.3357Z" fill="white"></path>
    <path d="M44.6405 0.447266H41.5586V16.9362H44.6405V0.447266Z" fill="white"></path>
    <path d="M54.3925 16.942V3.23413H59.1036V0.447266H46.6523V3.23413H51.3576V16.942H54.3925Z" fill="white"></path>
    <path d="M66.4378 0.447266H63.2853L57.0449 16.9362H60.2504L61.709 12.8778H67.8258L69.3315 16.9362H72.6781L66.4378 0.447266ZM62.7089 10.0968L64.738 4.41274L66.7965 10.0968H62.7089Z" fill="white"></path>
    <path d="M77.1482 0.447266H74.1133V16.942H87.0645V14.1551H77.1482V0.447266Z" fill="white"></path>
    <path d="M10.8985 28.1351C10.3515 27.897 9.79867 27.7577 8.86938 27.5428L6.62263 27.0261C5.18753 26.6719 3.923 26.2713 3.923 25.0463C3.923 23.6064 5.59336 23.1129 6.98141 23.1129C8.05773 23.1129 8.89291 23.3277 9.49283 23.7516C10.1398 24.2218 10.475 24.8837 10.5221 25.9462H13.6746C13.5805 24.6224 13.2217 22.9736 11.4749 21.702C10.328 20.8776 8.84586 20.5234 6.93435 20.5234C5.69334 20.5234 3.89947 20.6628 2.39379 21.9401C1.29394 22.8574 0.770484 24.0186 0.770484 25.3134C0.770484 27.1538 1.65272 28.2628 2.85255 28.9479C3.45247 29.302 4.11709 29.5633 4.78759 29.7491C5.45808 29.9349 6.12858 30.08 6.72262 30.1962L8.08714 30.5039C9.90454 30.8813 10.6927 31.4444 10.6927 32.6056C10.6927 34.2081 9.38108 35.1777 7.25196 35.1777C6.01095 35.1777 5.02873 34.8932 4.31118 34.2836C3.81125 33.8365 3.54658 33.314 3.42895 32.8437C3.35837 32.6056 3.31132 32.3966 3.31132 32.1818C3.28779 31.9902 3.28779 31.8276 3.26426 31.6883H0C0.0235262 37.1401 5.06402 37.7962 7.14609 37.7962C9.05759 37.7962 10.5397 37.3956 11.7102 36.6176C13.1688 35.648 13.9569 34.2139 13.9569 32.4431C13.9569 31.2877 13.5511 29.2324 10.8985 28.1467V28.1351Z" fill="white"></path>
    <path d="M23.6147 23.1142C25.7203 23.1142 27.6083 24.3392 28.2964 26.4177H31.8077C30.8255 22.7368 27.6024 20.4492 23.6559 20.4492C18.6859 20.4492 14.957 24.2231 14.957 29.2278C14.957 34.2326 18.6859 38.0064 23.6559 38.0064C27.5965 38.0064 30.8255 35.7189 31.8077 32.0379H28.2964C27.6024 34.0932 25.7144 35.3183 23.6147 35.3183C20.5798 35.3183 18.3095 32.8624 18.3095 29.2336C18.3095 25.6049 20.5798 23.1258 23.6147 23.1258V23.1142Z" fill="white"></path>
    <path d="M36.83 20.8965H33.748V37.3854H36.83V20.8965Z" fill="white"></path>
    <path d="M42.2059 30.3079H49.8519V27.4804H42.2059V23.6775H50.9988V20.8965H39.1475V37.3854H51.2635V34.5811H42.2059V30.3079Z" fill="white"></path>
    <path d="M64.2445 31.7246L56.1868 20.8965H53.2754V37.3854H56.3809V26.5341L64.4092 37.3854H67.35V20.8965H64.2445V31.7246Z" fill="white"></path>
    <path d="M69.4023 23.6775H74.1076V37.3854H77.1425V23.6775H81.8536V20.8965H69.4023V23.6775Z" fill="white"></path>
    <path d="M87.0468 20.8965H83.9648V37.3854H87.0468V20.8965Z" fill="white"></path>
    <path d="M99.4278 28.1351C98.8749 27.897 98.3279 27.7577 97.3986 27.5428L95.1519 27.0261C93.7168 26.6719 92.4523 26.2713 92.4523 25.0463C92.4523 23.6064 94.1226 23.1129 95.5107 23.1129C96.587 23.1129 97.4222 23.3277 98.0221 23.7516C98.6691 24.2218 99.0043 24.8837 99.0514 25.9462H102.204C102.11 24.6224 101.751 22.9736 100.004 21.702C98.8573 20.8776 97.3751 20.5234 95.4636 20.5234C94.2226 20.5234 92.4287 20.6628 90.923 21.9401C89.8232 22.8574 89.2997 24.0186 89.2997 25.3134C89.2997 27.1538 90.182 28.2628 91.3818 28.9479C91.9817 29.302 92.6463 29.5633 93.3168 29.7491C93.9873 29.9349 94.6578 30.08 95.2519 30.1962L96.6164 30.5039C98.4338 30.8813 99.2219 31.4444 99.2219 32.6056C99.2219 34.2081 97.9103 35.1777 95.7812 35.1777C94.5402 35.1777 93.558 34.8932 92.8404 34.2836C92.3405 33.8365 92.0758 33.314 91.9582 32.8437C91.8876 32.6056 91.8406 32.3966 91.8406 32.1818C91.817 31.9902 91.817 31.8276 91.7935 31.6883H88.541C88.5645 37.1401 93.605 37.7962 95.6871 37.7962C97.5986 37.7962 99.0808 37.3956 100.251 36.6176C101.71 35.648 102.498 34.2139 102.498 32.4431C102.498 31.2877 102.092 29.2324 99.4395 28.1467L99.4278 28.1351Z" fill="white"></path>
    <path d="M103.204 23.6775H107.915V37.3854H110.95V23.6775H115.655V20.8965H103.204V23.6775Z" fill="white"></path>
    <path d="M126.936 28.1351C126.389 27.897 125.836 27.7577 124.906 27.5428L122.66 27.0261C121.225 26.6719 119.96 26.2713 119.96 25.0463C119.96 23.6064 121.63 23.1129 123.018 23.1129C124.095 23.1129 124.93 23.3277 125.53 23.7516C126.177 24.2218 126.512 24.8837 126.559 25.9462H129.712C129.618 24.6224 129.259 22.9736 127.512 21.702C126.365 20.8776 124.883 20.5234 122.971 20.5234C121.73 20.5234 119.937 20.6628 118.431 21.9401C117.331 22.8574 116.808 24.0186 116.808 25.3134C116.808 27.1538 117.69 28.2628 118.89 28.9479C119.49 29.302 120.154 29.5633 120.825 29.7491C121.495 29.9349 122.166 30.08 122.76 30.1962L124.124 30.5039C125.942 30.8813 126.73 31.4444 126.73 32.6056C126.73 34.2081 125.418 35.1777 123.289 35.1777C122.048 35.1777 121.066 34.8932 120.348 34.2836C119.848 33.8365 119.584 33.314 119.466 32.8437C119.395 32.6056 119.348 32.3966 119.348 32.1818C119.325 31.9902 119.325 31.8276 119.301 31.6883H116.049C116.072 37.1401 121.113 37.7962 123.195 37.7962C125.106 37.7962 126.589 37.3956 127.759 36.6176C129.218 35.648 130.006 34.2139 130.006 32.4431C130.006 31.2877 129.6 29.2324 126.947 28.1467L126.936 28.1351Z" fill="white"></path>
  </g>
  <defs>
    <clipPath id="clip0_133_6091">
      <rect width="130" height="38" fill="white"></rect>
    </clipPath>
  </defs>
</svg>
