<?xml version="1.0" encoding="UTF-8"?>
<svg xmlns="http://www.w3.org/2000/svg" width="170" height="170" viewBox="0 0 170 170" fill="none">
  <rect width="170" height="170" rx="85" fill="white"></rect>
  <g clip-path="url(#clip0_11371_18655)">
    <circle cx="124" cy="85" r="3" fill="#26D9C4"></circle>
    <circle cx="124" cy="114" r="3" fill="#26D9C4"></circle>
    <circle cx="46" cy="114" r="3" fill="#26D9C4"></circle>
    <circle cx="46" cy="85" r="3" fill="#26D9C4"></circle>
    <circle cx="46" cy="56" r="3" fill="#26D9C4"></circle>
    <circle cx="56" cy="46" r="3" fill="#26D9C4"></circle>
    <circle cx="85" cy="46" r="3" fill="#26D9C4"></circle>
    <circle cx="114" cy="46" r="3" fill="#26D9C4"></circle>
    <circle cx="124" cy="56" r="3" fill="#26D9C4"></circle>
    <circle cx="114" cy="124" r="3" fill="#26D9C4"></circle>
    <circle cx="85" cy="124" r="3" fill="#26D9C4"></circle>
    <circle cx="56" cy="124" r="3" fill="#26D9C4"></circle>
    <path fill-rule="evenodd" clip-rule="evenodd" d="M100.487 90.8233L95.3474 87.2975C95.1766 87.1805 94.9742 87.1181 94.7672 87.1186H93.2306V77.2423C93.2306 76.9717 93.1231 76.7122 92.9318 76.5209C92.7404 76.3296 92.4809 76.2221 92.2104 76.2221H78.8111V72.0136H100.487V90.8233ZM91.1892 87.1186V78.2625H78.8111V87.1186H91.1892ZM91.1892 93.3676V89.1591H77.789C77.5184 89.1591 77.2589 89.0516 77.0676 88.8602C76.8763 88.6689 76.7688 88.4094 76.7688 88.1388V78.2625H69.516V97.0723L74.6529 93.5465C74.8237 93.4294 75.026 93.367 75.2331 93.3676H91.1892ZM101.507 69.9741H77.789C77.5186 69.9741 77.2592 70.0814 77.0679 70.2726C76.8766 70.4637 76.769 70.7229 76.7688 70.9933V76.2221H68.4929C68.2224 76.2224 67.9631 76.3299 67.7718 76.5212C67.5805 76.7125 67.4729 76.9718 67.4727 77.2423V99.0083C67.4724 99.1941 67.523 99.3765 67.6189 99.5356C67.7148 99.6948 67.8524 99.8247 68.0168 99.9113C68.1812 99.998 68.3661 100.038 68.5516 100.027C68.7371 100.016 68.9161 99.9549 69.0692 99.8496L75.5484 95.408H92.2104C92.4809 95.408 92.7404 95.3005 92.9318 95.1092C93.1231 94.9179 93.2306 94.6584 93.2306 94.3878V89.1591H94.4529L100.932 93.6006C101.103 93.7178 101.305 93.7802 101.512 93.7795C101.678 93.7799 101.841 93.7393 101.987 93.6616C102.152 93.5751 102.289 93.4454 102.385 93.2864C102.481 93.1274 102.532 92.9451 102.532 92.7593V70.9933C102.532 70.7229 102.425 70.4637 102.233 70.2726C102.042 70.0814 101.783 69.9741 101.512 69.9741H101.507ZM123.812 82.3357C124.339 82.3355 124.855 82.4916 125.293 82.7844C125.731 83.0771 126.073 83.4933 126.275 83.9802C126.477 84.4672 126.53 85.0031 126.427 85.5202C126.324 86.0372 126.071 86.5122 125.698 86.885C125.325 87.2578 124.85 87.5118 124.333 87.6147C123.816 87.7176 123.28 87.6649 122.793 87.4632C122.306 87.2615 121.89 86.9199 121.597 86.4816C121.304 86.0433 121.148 85.528 121.148 85.0008C121.149 84.2944 121.43 83.6171 121.929 83.1175C122.428 82.6179 123.106 82.3367 123.812 82.3357ZM126.477 113.758C126.477 114.286 126.321 114.801 126.028 115.239C125.736 115.678 125.32 116.02 124.833 116.221C124.346 116.423 123.81 116.476 123.293 116.373C122.776 116.271 122.301 116.017 121.928 115.644C121.555 115.272 121.301 114.797 121.198 114.28C121.095 113.763 121.148 113.227 121.35 112.74C121.551 112.253 121.893 111.836 122.331 111.543C122.77 111.251 123.285 111.094 123.812 111.094C124.519 111.095 125.196 111.376 125.696 111.875C126.195 112.375 126.476 113.052 126.477 113.758ZM108.542 106.332V63.671C108.541 63.085 108.308 62.5232 107.894 62.1087C107.48 61.6943 106.918 61.4611 106.332 61.4603H63.6693C63.0834 61.4611 62.5216 61.6943 62.1074 62.1087C61.6931 62.5232 61.4602 63.085 61.4597 63.671V106.332C61.4604 106.917 61.6935 107.479 62.1077 107.893C62.5219 108.307 63.0835 108.541 63.6693 108.541H106.332C106.918 108.541 107.479 108.307 107.894 107.893C108.308 107.479 108.541 106.917 108.542 106.332ZM113.764 121.148C114.291 121.148 114.806 121.304 115.244 121.597C115.683 121.89 116.024 122.306 116.226 122.793C116.428 123.28 116.48 123.816 116.378 124.333C116.275 124.85 116.021 125.324 115.648 125.697C115.275 126.07 114.801 126.324 114.284 126.427C113.767 126.529 113.231 126.477 112.744 126.275C112.257 126.073 111.84 125.732 111.548 125.293C111.255 124.855 111.098 124.34 111.098 123.813C111.099 123.106 111.38 122.428 111.88 121.929C112.379 121.429 113.057 121.148 113.764 121.148ZM87.6653 123.813C87.6653 124.34 87.509 124.855 87.2161 125.293C86.9233 125.732 86.507 126.073 86.0201 126.275C85.5331 126.477 84.9972 126.529 84.4802 126.427C83.9632 126.324 83.4883 126.07 83.1156 125.697C82.7429 125.324 82.4891 124.85 82.3862 124.333C82.2834 123.816 82.3362 123.28 82.5379 122.793C82.7396 122.306 83.0812 121.89 83.5195 121.597C83.9578 121.304 84.473 121.148 85.0001 121.148C85.7068 121.148 86.3842 121.429 86.8838 121.929C87.3835 122.429 87.6645 123.106 87.6653 123.813ZM56.2425 126.478C55.7154 126.478 55.2001 126.322 54.7619 126.029C54.3236 125.736 53.982 125.32 53.7803 124.833C53.5785 124.346 53.5258 123.81 53.6286 123.293C53.7314 122.776 53.9853 122.301 54.358 121.928C54.7307 121.555 55.2056 121.302 55.7226 121.199C56.2396 121.096 56.7754 121.149 57.2624 121.35C57.7494 121.552 58.1657 121.894 58.4585 122.332C58.7514 122.77 58.9077 123.286 58.9077 123.813C58.9072 124.519 58.6262 125.197 58.1265 125.697C57.6268 126.196 56.9492 126.477 56.2425 126.478ZM46.1854 116.421C45.6585 116.42 45.1435 116.264 44.7055 115.971C44.2675 115.678 43.9262 115.262 43.7247 114.775C43.5232 114.289 43.4706 113.753 43.5735 113.236C43.6764 112.719 43.9302 112.245 44.3028 111.872C44.6755 111.5 45.1502 111.246 45.6669 111.143C46.1837 111.041 46.7193 111.094 47.2061 111.295C47.6929 111.497 48.1089 111.838 48.4016 112.276C48.6943 112.715 48.8505 113.23 48.8505 113.757C48.8495 114.463 48.5683 115.14 48.0687 115.64C47.5691 116.139 46.8918 116.42 46.1854 116.421ZM46.1854 87.664C45.6583 87.6635 45.1432 87.5066 44.7053 87.2133C44.2674 86.92 43.9262 86.5035 43.725 86.0163C43.5238 85.5292 43.4715 84.9933 43.5748 84.4765C43.6782 83.9596 43.9324 83.485 44.3055 83.1126C44.6785 82.7403 45.1536 82.4869 45.6706 82.3845C46.1876 82.2821 46.7234 82.3354 47.2102 82.5374C47.697 82.7395 48.1129 83.0814 48.4054 83.5199C48.6979 83.9584 48.8538 84.4737 48.8534 85.0008C48.8524 85.7073 48.5713 86.3846 48.0717 86.8842C47.5721 87.3838 46.8948 87.6649 46.1883 87.666L46.1854 87.664ZM43.5231 56.2442C43.5229 55.717 43.6791 55.2016 43.9718 54.7632C44.2646 54.3248 44.6807 53.9831 45.1677 53.7812C45.6547 53.5793 46.1906 53.5264 46.7076 53.6291C47.2247 53.7319 47.6997 53.9856 48.0725 54.3583C48.4453 54.731 48.6992 55.2059 48.8021 55.7229C48.9051 56.2399 48.8523 56.7758 48.6506 57.2629C48.449 57.7499 48.1074 58.1662 47.6691 58.4591C47.2308 58.752 46.7154 58.9083 46.1883 58.9083C45.4818 58.9076 44.8045 58.6267 44.3049 58.1272C43.8053 57.6278 43.5242 56.9506 43.5231 56.2442ZM56.2425 48.8541C55.7154 48.8541 55.2001 48.6978 54.7619 48.4049C54.3236 48.1121 53.982 47.6958 53.7803 47.2089C53.5785 46.7219 53.5258 46.186 53.6286 45.669C53.7314 45.152 53.9853 44.6771 54.358 44.3044C54.7307 43.9317 55.2056 43.6779 55.7226 43.575C56.2396 43.4722 56.7754 43.525 57.2624 43.7267C57.7494 43.9284 58.1657 44.27 58.4585 44.7083C58.7514 45.1466 58.9077 45.6618 58.9077 46.1889C58.9072 46.8956 58.6262 47.5732 58.1265 48.0729C57.6268 48.5726 56.9492 48.8536 56.2425 48.8541ZM82.335 46.1889C82.335 45.6618 82.4913 45.1466 82.7842 44.7083C83.077 44.27 83.4933 43.9284 83.9802 43.7267C84.4672 43.525 85.0031 43.4722 85.5201 43.575C86.0371 43.6779 86.512 43.9317 86.8847 44.3044C87.2574 44.6771 87.5112 45.152 87.6141 45.669C87.7169 46.186 87.6641 46.7219 87.4624 47.2089C87.2607 47.6958 86.9191 48.1121 86.4808 48.4049C86.0425 48.6978 85.5273 48.8541 85.0001 48.8541C84.2936 48.8531 83.6163 48.5719 83.1167 48.0724C82.6172 47.5728 82.336 46.8955 82.335 46.1889ZM113.764 43.5238C114.291 43.5238 114.806 43.6801 115.244 43.973C115.683 44.2658 116.024 44.6821 116.226 45.169C116.428 45.656 116.48 46.1919 116.378 46.7089C116.275 47.2259 116.021 47.7008 115.648 48.0735C115.275 48.4462 114.801 48.7 114.284 48.8029C113.767 48.9057 113.231 48.8529 112.744 48.6512C112.257 48.4495 111.84 48.1079 111.548 47.6696C111.255 47.2313 111.098 46.7161 111.098 46.1889C111.099 45.4823 111.38 44.8049 111.88 44.3053C112.38 43.8056 113.057 43.5246 113.764 43.5238ZM123.821 53.5809C124.348 53.5808 124.863 53.7369 125.302 54.0296C125.74 54.3224 126.082 54.7385 126.284 55.2255C126.486 55.7125 126.538 56.2484 126.436 56.7654C126.333 57.2825 126.079 57.7575 125.707 58.1303C125.334 58.5031 124.859 58.757 124.342 58.86C123.825 58.9629 123.289 58.9101 122.802 58.7085C122.315 58.5068 121.899 58.1652 121.606 57.7269C121.313 57.2886 121.157 56.7732 121.157 56.2461C121.157 55.5397 121.438 54.8624 121.938 54.3627C122.437 53.8631 123.114 53.582 123.821 53.5809ZM116.745 68.658C116.924 68.6582 117.1 68.6113 117.256 68.5218C117.411 68.4323 117.54 68.3035 117.63 68.1483L121.998 60.5813C123.068 61.0305 124.267 61.0689 125.364 60.689C126.461 60.3092 127.379 59.5379 127.943 58.5229C128.506 57.508 128.675 56.3208 128.417 55.1889C128.16 54.057 127.493 53.06 126.546 52.389C125.599 51.718 124.437 51.4201 123.284 51.5526C122.131 51.6851 121.067 52.2385 120.296 53.1068C119.526 53.9751 119.103 55.0972 119.108 56.2581C119.114 57.4189 119.548 58.5369 120.327 59.3977L116.157 66.6272H110.581V63.671C110.581 62.5435 110.134 61.4621 109.337 60.6643C108.54 59.8665 107.459 59.4176 106.332 59.416H103.379V53.844L110.602 49.6741C111.459 50.4459 112.57 50.8745 113.724 50.878C114.877 50.8814 115.991 50.4594 116.852 49.6927C117.713 48.926 118.262 47.8686 118.392 46.7229C118.522 45.5771 118.225 44.4236 117.558 43.4831C116.891 42.5427 115.9 41.8814 114.776 41.6258C113.651 41.3703 112.472 41.5385 111.464 42.0982C110.456 42.658 109.689 43.5699 109.312 44.6594C108.934 45.7489 108.971 46.9395 109.417 48.0031L101.849 52.3712C101.694 52.4613 101.566 52.5902 101.476 52.7453C101.387 52.9003 101.34 53.0761 101.339 53.2551V59.4209H86.0194V50.7814C87.1508 50.5302 88.1496 49.8702 88.8245 48.928C89.4993 47.9858 89.8026 46.8277 89.6762 45.6757C89.5499 44.5237 89.0028 43.4588 88.1398 42.6853C87.2767 41.9118 86.1586 41.484 84.9997 41.484C83.8407 41.484 82.7226 41.9118 81.8596 42.6853C80.9966 43.4588 80.4495 44.5237 80.3231 45.6757C80.1967 46.8277 80.5001 47.9858 81.1749 48.928C81.8497 49.8702 82.8486 50.5302 83.9799 50.7814V59.4209H68.6573V53.2551C68.6572 53.076 68.6101 52.9001 68.5206 52.745C68.4312 52.5899 68.3026 52.461 68.1477 52.3712L60.5826 48.0031C61.0321 46.9322 61.0705 45.7331 60.6906 44.6356C60.3107 43.5382 59.5391 42.6195 58.5237 42.0557C57.5083 41.4919 56.3206 41.3227 55.1882 41.5805C54.0558 41.8383 53.0583 42.5049 52.387 43.4527C51.7157 44.4004 51.4178 45.5625 51.5503 46.7163C51.6829 47.8701 52.2366 48.9344 53.1053 49.7052C53.9741 50.476 55.0967 50.8991 56.2581 50.8933C57.4194 50.8876 58.5378 50.4535 59.3989 49.6741L66.6207 53.844V59.4209H63.6693C62.5419 59.4224 61.4611 59.8714 60.6644 60.6692C59.8677 61.4669 59.4202 62.5483 59.4202 63.6758V66.6272H53.8433L49.6735 59.4054C50.452 58.5483 50.8869 57.4341 50.8947 56.2762C50.9026 55.1184 50.483 53.9983 49.7163 53.1307C48.9495 52.263 47.8896 51.7088 46.7395 51.5743C45.5895 51.4397 44.4303 51.7343 43.4839 52.4015C42.5376 53.0687 41.8707 54.0616 41.6111 55.19C41.3515 56.3184 41.5174 57.5029 42.077 58.5166C42.6367 59.5302 43.5507 60.3017 44.6439 60.6833C45.7371 61.0648 46.9327 61.0295 48.0015 60.5842L52.3705 68.1512C52.4601 68.3064 52.5889 68.4351 52.7441 68.5246C52.8993 68.6141 53.0753 68.6611 53.2544 68.6609H59.4202V83.9816H50.7807C50.5295 82.8502 49.8696 81.8513 48.9274 81.1765C47.9852 80.5017 46.827 80.1984 45.675 80.3247C44.523 80.4511 43.4582 80.9982 42.6846 81.8612C41.9111 82.7242 41.4833 83.8424 41.4833 85.0013C41.4833 86.1602 41.9111 87.2784 42.6846 88.1414C43.4582 89.0044 44.523 89.5515 45.675 89.6779C46.827 89.8042 47.9852 89.5009 48.9274 88.8261C49.8696 88.1513 50.5295 87.1524 50.7807 86.021H59.4202V101.344H53.2544C53.0753 101.344 52.8994 101.391 52.7443 101.48C52.5892 101.57 52.4603 101.698 52.3705 101.853L48.0015 109.418C46.9307 108.969 45.7319 108.931 44.6348 109.312C43.5377 109.692 42.6196 110.464 42.0563 111.479C41.493 112.494 41.3242 113.682 41.5823 114.814C41.8403 115.946 42.5071 116.943 43.4548 117.614C44.4024 118.285 45.5643 118.582 46.7178 118.449C47.8713 118.317 48.9352 117.763 49.7056 116.894C50.4761 116.025 50.8988 114.903 50.8929 113.742C50.8869 112.581 50.4527 111.463 49.6735 110.602L53.8433 103.38H59.4202V106.332C59.4215 107.458 59.8695 108.538 60.6661 109.335C61.4627 110.132 62.5427 110.58 63.6693 110.582H66.6207V116.158L59.3989 120.327C58.5402 119.551 57.4251 119.119 56.2674 119.113C55.1096 119.108 53.9906 119.53 53.1247 120.298C52.2587 121.067 51.7068 122.128 51.5745 123.278C51.4423 124.428 51.7391 125.587 52.408 126.532C53.0769 127.476 54.071 128.141 55.1998 128.399C56.3286 128.656 57.5126 128.488 58.5252 127.927C59.5377 127.366 60.3076 126.45 60.6872 125.357C61.0669 124.263 61.0296 123.067 60.5826 121.999L68.1506 117.629C68.3057 117.54 68.4345 117.411 68.524 117.256C68.6134 117.101 68.6604 116.926 68.6602 116.747V110.582H83.9799V119.22C82.8483 119.471 81.8492 120.132 81.1742 121.074C80.4992 122.016 80.1958 123.175 80.3221 124.327C80.4485 125.479 80.9957 126.544 81.8589 127.318C82.7221 128.092 83.8405 128.52 84.9997 128.52C86.1589 128.52 87.2773 128.092 88.1404 127.318C89.0036 126.544 89.5509 125.479 89.6772 124.327C89.8036 123.175 89.5002 122.016 88.8251 121.074C88.1501 120.132 87.151 119.471 86.0194 119.22V110.582H101.343V116.747C101.343 116.925 101.39 117.101 101.48 117.256C101.569 117.411 101.698 117.54 101.853 117.629L109.421 121.999C108.97 123.071 108.931 124.272 109.311 125.371C109.69 126.47 110.462 127.39 111.479 127.955C112.495 128.52 113.684 128.69 114.818 128.433C115.952 128.175 116.951 127.508 117.624 126.56C118.296 125.611 118.595 124.448 118.463 123.293C118.331 122.137 117.777 121.071 116.908 120.299C116.038 119.527 114.914 119.103 113.752 119.108C112.589 119.113 111.469 119.548 110.606 120.327L103.382 116.158V110.582H106.336C107.462 110.58 108.542 110.132 109.339 109.335C110.136 108.538 110.584 107.458 110.585 106.332V103.38H116.161L120.331 110.602C119.555 111.46 119.124 112.575 119.119 113.731C119.114 114.888 119.536 116.006 120.304 116.871C121.072 117.736 122.132 118.287 123.281 118.419C124.43 118.551 125.588 118.254 126.532 117.585C127.476 116.917 128.14 115.923 128.397 114.795C128.654 113.667 128.486 112.484 127.925 111.473C127.363 110.461 126.449 109.692 125.356 109.313C124.263 108.934 123.069 108.972 122.002 109.418L117.634 101.85C117.544 101.695 117.415 101.567 117.259 101.477C117.104 101.388 116.928 101.341 116.749 101.341H110.581V86.021H119.22C119.471 87.1527 120.131 88.1518 121.073 88.8268C122.016 89.5018 123.174 89.8052 124.326 89.6788C125.479 89.5525 126.544 89.0053 127.317 88.1421C128.091 87.2789 128.519 86.1605 128.519 85.0013C128.519 83.8421 128.091 82.7237 127.317 81.8605C126.544 80.9973 125.479 80.4501 124.326 80.3238C123.174 80.1974 122.016 80.5008 121.073 81.1758C120.131 81.8508 119.471 82.8499 119.22 83.9816H110.581V68.658H116.745Z" fill="black"></path>
  </g>
  <defs>
    <clipPath id="clip0_11371_18655">
      <rect width="88" height="88" fill="white" transform="translate(41 41)"></rect>
    </clipPath>
  </defs>
</svg>
