<?xml version="1.0" encoding="UTF-8"?>
<svg xmlns="http://www.w3.org/2000/svg" width="170" height="170" viewBox="0 0 170 170" fill="none">
  <rect width="170" height="170" rx="85" fill="white"></rect>
  <path d="M51.4146 102.162L49.3315 106.469C45.5504 100.201 43.375 92.8551 43.375 85C43.375 62.0112 62.0112 43.375 85 43.375C107.989 43.375 126.625 62.0112 126.625 85C126.625 92.8551 124.45 100.201 120.669 106.469L118.585 102.162C121.221 97.0137 122.708 91.1799 122.708 85C122.708 64.1742 105.826 47.2917 85 47.2917C64.1742 47.2917 47.2917 64.1742 47.2917 85C47.2917 91.1801 48.7786 97.0137 51.4146 102.162Z" fill="#333333" stroke="white" stroke-width="0.75"></path>
  <circle cx="84.9996" cy="80.6364" r="7.63636" fill="#26D9C4"></circle>
  <path d="M73.708 80.3337C73.708 74.0975 78.7635 69.042 84.9997 69.042C91.2358 69.042 96.2913 74.0975 96.2913 80.3337C96.2913 86.5698 91.2358 91.6253 84.9997 91.6253C78.7635 91.6253 73.708 86.5698 73.708 80.3337ZM84.9997 72.9587C80.9265 72.9587 77.6247 76.2605 77.6247 80.3337C77.6247 84.4069 80.9265 87.7087 84.9997 87.7087C89.0729 87.7087 92.3747 84.4069 92.3747 80.3337C92.3747 76.2605 89.0729 72.9587 84.9997 72.9587Z" fill="#333333" stroke="white" stroke-width="0.75"></path>
  <path d="M62.1481 88.0695L62.1481 88.0694C62.2408 87.8497 62.3416 87.6354 62.4502 87.4263L62.5109 87.3093L62.4852 87.1801C62.1943 85.7211 62.0416 84.2117 62.0416 82.6663C62.0416 69.9869 72.3205 59.708 84.9999 59.708C97.6794 59.708 107.958 69.9869 107.958 82.6663C107.958 84.2114 107.806 85.7208 107.515 87.1797L107.489 87.3086L107.55 87.4254C107.658 87.6351 107.759 87.8498 107.852 88.0694L107.852 88.0695L118.882 114.181C121.377 120.087 117.041 126.625 110.63 126.625L102.656 126.625L102.649 126.625C102.552 126.627 102.456 126.627 102.36 126.625L102.36 126.625H102.353L67.6469 126.625L67.64 126.625C67.5438 126.627 67.4474 126.627 67.351 126.625L67.351 126.625H67.3441H59.3706C52.9593 126.625 48.6235 120.087 51.1182 114.181L50.7728 114.035L51.1182 114.181L62.1481 88.0695ZM65.9647 83.1612L65.9798 83.7419L66.5028 83.489C67.4326 83.0395 68.4449 82.7484 69.4997 82.6422C69.5975 83.9877 69.8666 85.2858 70.2854 86.515C68.3052 86.5599 66.5295 87.7621 65.7559 89.5935L54.7262 115.705C53.3221 119.029 55.7623 122.708 59.3706 122.708H60.1215H60.7142L60.4603 122.173C59.5361 120.223 59.4218 117.902 60.3383 115.764L66.1266 102.259C68.0898 97.6781 72.5938 94.708 77.5774 94.708H92.4223C97.4061 94.708 101.91 97.6781 103.873 102.259L109.661 115.764C110.578 117.902 110.464 120.223 109.54 122.173L109.286 122.708H109.878H110.63C114.238 122.708 116.678 119.029 115.274 115.705L104.244 89.5935L103.899 89.7394L104.244 89.5935C103.471 87.762 101.695 86.5598 99.7145 86.515C100.133 85.2858 100.402 83.9877 100.5 82.6422C101.555 82.7484 102.567 83.0395 103.497 83.4891L104.021 83.7423L104.035 83.1607C104.039 82.9965 104.042 82.8317 104.042 82.6663C104.042 72.1499 95.5164 63.6247 84.9999 63.6247C74.4835 63.6247 65.9583 72.1499 65.9583 82.6663C65.9583 82.8318 65.9604 82.9967 65.9647 83.1612ZM102.56 122.709L102.567 122.708C103.056 122.7 103.551 122.598 104.026 122.395C105.993 121.552 106.905 119.273 106.062 117.307L100.273 103.801C98.9274 100.661 95.8392 98.6247 92.4223 98.6247H77.5774C74.1604 98.6247 71.0725 100.661 69.7264 103.801L70.071 103.949L69.7264 103.801L63.9383 117.307L64.283 117.454L63.9383 117.307C63.0954 119.273 64.0065 121.552 65.9734 122.395C66.4489 122.598 66.9441 122.7 67.4332 122.708V122.708H67.4395L67.5587 122.709L67.5652 122.708C68.4861 122.693 69.3764 122.348 70.0688 121.736C70.1401 121.673 70.2145 121.616 70.2916 121.566L70.3903 121.501L70.4342 121.391L75.015 109.939C75.4166 108.935 76.5563 108.446 77.5606 108.848C78.5648 109.25 79.0533 110.389 78.6516 111.394L74.3314 122.194L74.1257 122.708H74.6796H95.3203H95.8742L95.6685 122.194L91.3483 111.394C90.9466 110.389 91.4351 109.25 92.4393 108.848C93.4435 108.446 94.5833 108.935 94.9849 109.939L99.566 121.392L99.6097 121.501L99.7081 121.566C99.7856 121.617 99.8601 121.673 99.9307 121.736L99.9307 121.736C100.623 122.347 101.513 122.693 102.434 122.708V122.708H102.441L102.56 122.709Z" fill="#333333" stroke="white" stroke-width="0.75"></path>
  <path d="M84.9432 55.4594C81.3421 55.434 77.7702 56.0944 74.418 57.404L72.9444 53.7748C76.7734 52.2719 80.8552 51.5138 84.9708 51.5428C89.0861 51.5717 93.1569 52.3871 96.9643 53.9438L95.44 57.5519C92.1064 56.1952 88.5442 55.4847 84.9432 55.4594Z" fill="#333333" stroke="white" stroke-width="0.75"></path>
</svg>
