<?xml version="1.0" encoding="UTF-8"?>
<svg xmlns="http://www.w3.org/2000/svg" xmlns:xlink="http://www.w3.org/1999/xlink" width="170px" height="170px" viewBox="0 0 170 170" version="1.1">
  <title>Group 4</title>
  <g id="Page-1" stroke="none" stroke-width="1" fill="none" fill-rule="evenodd">
    <g id="Mobile-Requirements-in-Healthcare" transform="translate(-535, -112)">
      <g id="Group-4" transform="translate(535, 112)">
        <rect id="Rectangle" fill="#FFFFFF" fill-rule="nonzero" x="0" y="0" width="170" height="170" rx="85"></rect>
        <path d="M67.495,66.144 C78.535,66.144 104.517,59.034 105.345,88.93 C85.631,88.93 69.072,93.644 67.495,66.144 Z" id="Path" fill="#26D9C4" fill-rule="nonzero"></path>
        <path d="M105.66,97.769 C105.627,108.412 96.972,117.021 86.339,116.989 L66.713,116.989 L54.856,129 L54.856,116.704 C46.661,114.352 41,106.848 41,98.305 L41,85.418 C41,74.775 49.622,66.144 60.255,66.144 L63,66.144 M105.66,97.769 L105.66,95.45" id="Shape" stroke="#231F20" stroke-width="3" stroke-linecap="round" stroke-linejoin="round"></path>
        <path d="M68.322,66.144 L86.219,66.144 C96.403,66.034 104.916,73.878 105.648,84.051 L105.648,89.439" id="Path" stroke="#231F20" stroke-width="3" stroke-linejoin="round"></path>
        <path d="M67.582,57.463 C67.582,57.427 67.583,57.391 67.586,57.356 C68.322,47.206 76.878,39.396 87.097,39.501 L111.154,39.501 C121.827,39.501 130.5,48.098 130.5,58.721 L130.5,70.568 C130.5,78.719 125.3,85.912 117.657,88.582 L117.657,98.788 C117.657,99.396 117.291,99.943 116.73,100.175 C116.168,100.407 115.523,100.277 115.094,99.846 L104.545,89.246 L86.98,89.246 C76.309,89.277 67.605,80.703 67.572,70.08 L67.572,70.076 L67.572,70.076 L67.572,70.075 L67.572,70.075 L67.572,70.075 L67.572,70.075 L67.572,70.075 L67.572,70.075 L67.572,70.075 L67.572,70.075 L67.572,70.075 L67.572,70.074 L67.572,70.074 L67.572,70.074 L67.572,70.074 L67.572,70.074 L67.572,70.074 L67.572,70.074 L67.572,70.074 L67.572,70.073 L67.572,70.073 L67.572,70.073 L67.572,70.073 L67.572,70.073 L67.572,70.073 L67.572,70.073 L67.572,70.073 L67.572,70.073 L67.572,70.072 L67.572,70.072 L67.572,70.072 L67.572,70.072 L67.572,70.072 L67.572,70.072 L67.572,70.072 L67.572,70.072 L67.572,70.071 L67.572,70.071 L67.572,70.071 L67.572,70.071 L67.572,70.071 L67.572,70.071 L67.572,70.071 L67.572,70.071 L67.572,70.071 L67.572,70.07 L67.572,70.07 L67.572,70.07 L67.572,70.07 L67.572,70.07 L67.572,70.07 L67.572,70.07 L67.572,70.07 L67.572,70.069 L67.572,70.069 L67.572,70.069 L67.572,70.069 L67.572,70.069 L67.572,70.069 L67.572,70.069 L67.572,70.069 L67.572,70.069 L67.572,70.068 L67.572,70.068 L67.572,70.068 L67.572,70.068 L67.572,70.068 L67.572,70.068 L67.572,70.068 L67.572,70.068 L67.572,70.067 L67.572,70.067 L67.572,70.067 L67.572,70.067 L67.572,70.067 L67.572,70.067 L67.572,70.067 L67.572,70.067 L67.572,70.067 L67.572,70.066 L67.572,70.066 L67.572,70.066 L67.572,70.066 L67.572,70.066 L67.572,70.066 L67.572,70.066 L67.572,70.066 L67.572,70.065 L67.572,70.065 L67.572,70.065 L67.572,70.065 L67.572,70.065 L67.572,70.065 L67.572,70.065 L67.572,70.065 L67.572,70.065 L67.572,70.064 L67.572,70.064 L67.572,70.064 L67.572,70.064 L67.572,70.064 L67.572,70.064 L67.572,70.064 L67.572,70.064 L67.572,70.064 L67.572,70.063 L67.572,70.063 L67.572,70.063 L67.572,70.063 L67.572,70.063 L67.572,70.063 L67.572,70.063 L67.572,70.063 L67.572,70.062 L67.572,70.062 L67.572,70.062 L67.572,70.062 L67.572,70.062 L67.572,70.062 L67.572,70.062 L67.572,70.062 L67.572,70.062 L67.572,70.061 L67.572,70.061 L67.572,70.061 L67.572,70.061 L67.572,70.061 L67.572,70.061 L67.572,70.061 L67.572,70.061 L67.572,70.061 L67.572,70.06 L67.572,70.06 L67.572,70.06 L67.572,70.06 L67.572,70.06 L67.572,70.06 L67.572,70.06 L67.572,70.06 L67.572,70.059 L67.572,70.059 L67.572,70.059 L67.572,70.059 L67.572,70.059 L67.572,70.059 L67.572,70.059 L67.572,70.059 L67.572,70.059 L67.572,70.058 L67.572,70.058 L67.572,70.058 L67.572,70.058 L67.572,70.058 L67.572,70.058 L67.572,70.058 L67.572,70.058 L67.572,70.058 L67.572,70.057 L67.572,70.057 L67.572,70.057 L67.572,70.057 L67.572,70.057 L67.572,70.057 L67.572,70.057 L67.572,70.057 L67.572,70.057 L67.572,70.056 L67.572,70.056 L67.572,70.056 L67.572,70.056 L67.572,70.056 L67.572,70.056 L67.572,70.056 L67.572,70.056 L67.572,70.056 L67.572,70.055 L67.572,70.055 L67.572,70.055 L67.572,70.055 L67.572,70.055 L67.572,70.055 L67.572,70.055 L67.572,70.055 L67.572,70.055 L67.572,70.054 L67.572,70.054 L67.572,70.054 L67.572,70.054 L67.572,70.054 L67.572,70.054 L67.572,70.054 L67.572,70.054 L67.572,70.054 L67.572,70.053 L67.572,70.053 L67.572,70.053 L67.572,70.053 L67.572,70.053 L67.572,70.053 L67.572,70.053 L67.572,70.053 L67.572,70.053 L67.572,70.052 L67.572,70.052 L67.572,70.052 L67.572,70.052 L67.572,70.052 L67.572,70.052 L67.572,70.052 L67.572,70.052 L67.572,70.052 L67.572,70.052 L67.572,70.051 L67.572,70.051 L67.572,70.051 L67.572,70.051 L67.572,70.051 L67.572,70.051 L67.572,70.051 L67.572,70.051 L67.572,70.051 L67.572,70.05 L67.572,70.05 L67.572,70.05 L67.572,70.05 L67.572,70.05 L67.572,70.05 L67.572,70.05 L67.572,70.05 L67.572,70.05 L67.572,70.049 L67.572,70.049 L67.572,70.049 L67.572,70.049 L67.572,70.049 L67.572,70.049 L67.572,70.049 L67.572,70.049 L67.572,70.049 L67.572,70.049 L67.572,70.048 L67.572,70.048 L67.572,70.048 L67.572,70.048 L67.572,70.048 L67.572,70.048 L67.572,70.048 L67.572,70.048 L67.572,70.048 L67.572,70.047 L67.572,70.047 L67.572,70.047 L67.572,70.047 L67.572,70.047 L67.572,70.047 L67.572,70.047 L67.572,70.047 L67.572,70.047 L67.572,70.047 L67.572,70.046 L67.572,70.046 L67.572,70.046 L67.572,70.046 L67.572,70.046 L67.572,70.046 L67.572,70.046 L67.572,70.046 L67.572,70.046 L67.572,70.046 L67.572,70.045 L67.572,70.045 L67.572,70.045 L67.572,70.045 L67.572,70.045 L67.572,70.045 L67.572,70.045 L67.572,70.045 L67.572,70.045 L67.572,70.045 L67.572,70.044 L67.572,70.044 L67.572,70.044 L67.572,70.044 L67.572,70.044 L67.572,70.044 L67.572,70.044 L67.572,70.044 L67.572,70.044 L67.572,70.044 L67.572,70.043 L67.572,70.043 L67.572,70.043 L67.572,70.043 L67.572,70.043 L67.572,70.043 L67.572,70.043 L67.572,70.043 L67.572,70.043 L67.572,70.043 L67.572,70.042 L67.572,70.042 L67.572,70.042 L67.572,70.042 L67.572,70.042 L67.572,70.042 L67.572,70.042 L67.572,70.042 L67.572,70.042 L67.572,70.042 L67.572,70.041 L67.572,70.041 L67.572,70.041 L67.572,70.041 L67.572,70.041 L67.572,70.041 L67.572,70.041 L67.572,70.041 L67.572,70.041 L67.572,70.041 L67.572,70.041 L67.572,70.04 L67.572,70.04 L67.572,70.04 L67.572,70.04 L67.572,70.04 L67.572,70.04 L67.572,70.04 L67.572,70.04 L67.572,70.04 L67.572,70.04 L67.572,70.039 L67.572,70.039 L67.572,70.039 L67.572,70.039 L67.572,70.039 L67.572,70.039 L67.572,70.039 L67.572,70.039 L67.572,70.039 L67.572,70.039 L67.572,70.039 L67.572,70.038 L67.572,70.038 L67.572,70.038 L67.572,70.038 L67.572,70.038 L67.572,70.038 L67.572,70.038 L67.572,70.038 L67.572,70.038 L67.572,70.038 L67.572,70.038 L67.572,70.037 L67.572,70.037 L67.572,70.037 L67.572,70.037 L67.572,70.037 L67.572,70.037 L67.572,70.037 L67.572,70.037 L67.572,70.037 L67.572,70.037 L67.572,70.037 L67.572,70.036 L67.572,70.036 L67.572,70.036 L67.572,70.036 L67.572,70.036 L67.572,70.036 L67.572,70.036 L67.572,70.036 L67.572,70.036 L67.572,70.036 L67.572,70.036 L67.572,70.036 L67.572,70.035 L67.572,70.035 L67.572,70.035 L67.572,70.035 L67.572,70.035 L67.572,70.035 L67.572,70.035 L67.572,70.035 L67.572,70.035 L67.572,70.035 L67.572,70.035 L67.572,70.034 L67.572,70.034 L67.572,70.034 L67.572,70.034 L67.572,70.034 L67.572,70.034 L67.572,70.034 L67.572,70.034 L67.572,70.034 L67.572,70.034 L67.572,70.034 L67.572,70.034 L67.572,70.033 L67.572,70.033 L67.572,70.033 L67.572,70.033 L67.572,70.033 L67.572,70.033 L67.572,70.033 L67.572,70.033 L67.572,70.033 L67.572,70.033 L67.572,70.033 L67.572,70.033 L67.572,70.033 L67.572,70.032 L67.572,70.032 L67.572,70.032 L67.572,70.032 L67.572,70.032 L67.572,70.032 L67.572,70.032 L67.572,70.032 L67.572,70.032 L67.572,70.032 L67.572,70.032 L67.572,70.032 L67.572,70.031 L67.572,70.031 L67.572,70.031 L67.572,70.031 L67.572,70.031 L67.572,70.031 L67.572,70.031 L67.572,70.031 L67.572,70.031 L67.572,70.031 L67.572,70.031 L67.572,70.031 L67.572,70.031 L67.572,70.031 L67.572,70.03 L67.572,70.03 L67.572,70.03 L67.572,70.03 L67.572,70.03 L67.572,70.03 L67.572,70.03 L67.572,70.03 L67.572,70.03 L67.572,70.03 L67.572,70.03 L67.572,70.03 L67.572,70.03 L67.572,70.029 L67.572,70.029 L67.572,70.029 L67.572,70.029 L67.572,70.029 L67.572,70.029 L67.572,70.029 L67.572,70.029 L67.572,70.029 L67.572,70.029 L67.572,70.029 L67.572,70.029 L67.572,70.029 L67.572,70.029 L67.572,70.028 L67.572,70.028 L67.572,70.028 L67.572,70.028 L67.572,70.028 L67.572,70.028 L67.572,70.028 L67.572,70.028 L67.572,70.028 L67.572,70.028 L67.572,70.028 L67.572,70.028 L67.572,70.028 L67.572,70.028 L67.572,70.028 L67.572,70.027 L67.572,70.027 L67.572,70.027 L67.572,70.027 L67.572,70.027 L67.572,70.027 L67.572,70.027 L67.572,70.027 L67.572,70.027 L67.572,70.027 L67.572,70.027 L67.572,70.027 L67.572,70.027 L67.572,70.027 L67.572,70.027 L67.572,70.026 L67.572,70.026 L67.572,70.026 L67.572,70.026 L67.572,70.026 L67.572,70.026 L67.572,70.026 L67.572,70.026 L67.572,70.026 L67.572,70.026 L67.572,70.026 L67.572,70.026 L67.572,70.026 L67.572,70.026 L67.572,70.026 L67.572,70.026 L67.572,70.026 L67.572,70.025 L67.572,70.025 L67.572,70.024 L67.582,57.463 Z" id="Path" stroke="#231F20" stroke-width="3" stroke-linejoin="round"></path>
      </g>
    </g>
  </g>
</svg>
