<?xml version="1.0" encoding="UTF-8"?>
<svg xmlns="http://www.w3.org/2000/svg" width="170" height="170" viewBox="0 0 170 170" fill="none">
  <rect width="170" height="170" rx="85" fill="white"></rect>
  <path d="M52 116.167C52 117.179 52.8208 118 53.8333 118H118V114.333H55.6667V74H57.2638C60.9591 74 64.6361 75.1226 68.0147 77.3271C71.3987 79.5352 74.3986 82.7751 76.75 86.8354C79.3508 91.3267 82.7294 95.016 86.6546 97.5774C90.5853 100.142 94.9519 101.5 99.4095 101.5H111.338L105.703 107.137C104.988 107.853 104.988 109.014 105.704 109.73C106.42 110.446 107.581 110.445 108.297 109.729L117.06 100.962C117.776 100.246 117.776 99.0861 117.06 98.3701L108.297 89.6031C107.581 88.887 106.42 88.8869 105.704 89.6026C104.988 90.3185 104.988 91.4792 105.703 92.1953L111.339 97.8333H99.4093C95.714 97.8335 92.0369 96.7112 88.6582 94.5066C85.2743 92.2985 82.2744 89.0585 79.9231 84.9978C77.3222 80.5069 73.9437 76.8175 70.0184 74.2563C66.0879 71.6916 61.7214 70.3333 57.2638 70.3333H55.6667V52H52V116.167Z" fill="#333333"></path>
  <path d="M99.7498 55.6462V54.7853L98.8986 54.6573C98.4986 54.5971 98.1915 54.2502 98.1915 53.8333C98.1915 53.3731 98.5646 53 99.0248 53H102.142C102.602 53 102.975 53.3731 102.975 53.8333C102.975 54.2502 102.668 54.5971 102.268 54.6573L101.417 54.7853V55.6462V58.3829V59.2315L102.254 59.3696C103.82 59.6279 105.266 60.2439 106.506 61.1319L107.195 61.6259L107.795 61.026L109.606 59.2154L110.313 58.5083L109.606 57.8012L109.344 57.5393C109.019 57.2138 109.019 56.6862 109.344 56.3607C109.669 56.0353 110.197 56.0353 110.522 56.3607L110.522 56.3607L113.639 59.4774C113.964 59.8028 113.964 60.3305 113.639 60.6559C113.314 60.9813 112.786 60.9813 112.461 60.6559L112.199 60.3939L111.492 59.6868L110.784 60.3939L108.974 62.2045L108.374 62.8044L108.868 63.494C109.756 64.7336 110.372 66.1798 110.63 67.746L110.768 68.5833H111.617H114.354H115.215L115.343 67.7319C115.403 67.3321 115.75 67.025 116.167 67.025C116.627 67.025 117 67.3981 117 67.8583V70.975C117 71.4353 116.627 71.8083 116.167 71.8083C115.75 71.8083 115.403 71.5012 115.343 71.1014L115.215 70.25H114.354H111.617H110.768L110.63 71.0873C110.43 72.3027 110.014 73.4455 109.423 74.4755L109.043 75.1392L109.584 75.6802L112.343 78.4394L113.05 79.1465L113.757 78.4394L114.019 78.1774L113.312 77.4703L114.019 78.1774C114.344 77.852 114.872 77.852 115.197 78.1774C115.523 78.5028 115.523 79.0305 115.197 79.3559L112.081 82.4726C111.755 82.798 111.228 82.798 110.902 82.4726C110.577 82.1472 110.577 81.6195 110.902 81.2941L111.164 81.0321L111.871 80.325L111.164 79.6179L108.664 77.1178L108.002 76.4552L107.297 77.0733C105.9 78.2996 104.166 79.1483 102.254 79.4637L101.417 79.6018V80.4504V83.1872V84.0481L102.268 84.1761C102.668 84.2362 102.975 84.5831 102.975 85C102.975 85.4603 102.602 85.8333 102.142 85.8333H99.0248C98.5646 85.8333 98.1915 85.4603 98.1915 85C98.1915 84.5831 98.4986 84.2362 98.8984 84.1761L99.7498 84.0481V83.1872V80.4504V79.6018L98.9125 79.4637C97.3463 79.2055 95.9001 78.5894 94.6605 77.7015L93.9709 77.2075L93.371 77.8073L91.5604 79.6179L90.8533 80.325L91.5604 81.0321L91.8224 81.2941C92.1478 81.6195 92.1478 82.1472 91.8224 82.4726C91.497 82.798 90.9693 82.798 90.6439 82.4726L87.5273 79.3559C87.2019 79.0305 87.2019 78.5028 87.5273 78.1774C87.8527 77.852 88.3804 77.852 88.7057 78.1774L88.9677 78.4394L89.6748 79.1465L90.3819 78.4394L92.1925 76.6288L92.7924 76.029L92.2984 75.3394C91.4104 74.0997 90.7943 72.6536 90.5361 71.0873L90.3981 70.25H89.5494H86.8126H85.9517L85.8237 71.1014C85.7637 71.5012 85.4167 71.8083 84.9998 71.8083C84.5396 71.8083 84.1665 71.4353 84.1665 70.975V67.8583C84.1665 67.3981 84.5396 67.025 84.9998 67.025C85.4167 67.025 85.7637 67.3321 85.8237 67.7319L85.9517 68.5833H86.8126H89.5494H90.3981L90.5361 67.746C90.7943 66.1798 91.4104 64.7336 92.2984 63.494L92.7924 62.8044L92.1925 62.2045L90.3819 60.3939L89.6748 59.6868L88.9677 60.3939L88.7057 60.6559C88.3804 60.9813 87.8527 60.9813 87.5273 60.6559C87.2019 60.3305 87.2019 59.8028 87.5273 59.4774C87.5273 59.4774 87.5273 59.4774 87.5273 59.4774L90.6439 56.3607L90.6439 56.3607C90.9693 56.0353 91.497 56.0353 91.8224 56.3607C92.1478 56.6862 92.1478 57.2138 91.8224 57.5393L91.5605 57.8012L90.8533 58.5083L91.5604 59.2154L93.371 61.026L93.9709 61.6259L94.6605 61.1319C95.9001 60.2439 97.3463 59.6279 98.9126 59.3696L99.7498 59.2315V58.3829V55.6462Z" fill="#26D9C4" stroke="#333333" stroke-width="2"></path>
</svg>
