<?xml version="1.0" encoding="UTF-8"?>
<svg xmlns="http://www.w3.org/2000/svg" width="165" height="48" viewBox="0 0 165 48" fill="none">
  <g clip-path="url(#clip0_91_5175)">
    <path d="M16.1909 19.1357C18.3021 17.3462 19.3948 14.6034 19.3948 10.9731C19.3948 9.71904 19.3948 5.93478 16.5551 3.16259C13.9236 0.566406 10.9055 0.566406 7.9766 0.566406H0.847656V21.4019H8.6382C11.5968 21.4019 14.0128 21.0132 16.1909 19.1357ZM4.68346 17.8816V4.14532H7.58261C8.30369 4.14532 8.97272 4.14532 9.57485 4.17466C10.177 4.20399 10.7196 4.292 11.2697 4.44601C13.9013 5.19406 15.165 7.36488 15.165 11.0318C15.165 14.0387 14.1986 16.1875 12.3253 17.1702C11.0542 17.8523 9.73096 17.8889 7.9766 17.8889H4.68346V17.8816Z" fill="white"></path>
    <path d="M25.5867 0.566406H21.6914V21.3945H25.5867V0.566406Z" fill="white"></path>
    <path d="M49.7169 9.65915H39.265V13.2674H45.2789C44.5504 16.5163 41.8966 18.5991 38.8413 18.5991C35.065 18.5991 32.1064 15.2035 32.1064 10.9132C32.1064 6.62294 34.9758 3.40338 38.7819 3.40338C41.287 3.40338 43.584 4.83348 44.6099 7.01163H49.137C47.8361 3.01469 43.9111 0.0078125 38.8339 0.0078125C32.5821 0.0078125 27.8691 4.74548 27.8691 11.0672C27.8691 17.389 32.5524 21.9727 38.7744 21.9727C44.9964 21.9727 49.7689 17.235 49.7689 10.9132C49.7689 10.6712 49.7689 10.1359 49.7094 9.65915H49.7169Z" fill="white"></path>
    <path d="M56.4221 0.566406H52.5269V21.3945H56.4221V0.566406Z" fill="white"></path>
    <path d="M68.7471 21.4019V4.08665H74.7016V0.566406H58.9644V4.08665H64.9113V21.4019H68.7471Z" fill="white"></path>
    <path d="M83.9713 0.566406H79.9868L72.0996 21.3945H76.151L77.9946 16.2682H85.7256L87.6287 21.3945H91.8585L83.9713 0.566406ZM79.2583 12.7553L81.8229 5.57542L84.4247 12.7553H79.2583Z" fill="white"></path>
    <path d="M97.5082 0.566406H93.6724V21.4019H110.041V17.8816H97.5082V0.566406Z" fill="white"></path>
    <path d="M13.7747 35.5404C13.0834 35.2398 12.3846 35.0637 11.2101 34.7924L8.37038 34.1397C6.55655 33.6923 4.9583 33.1863 4.9583 31.6388C4.9583 29.8201 7.06948 29.1967 8.82384 29.1967C10.1842 29.1967 11.2398 29.468 11.998 30.0034C12.8157 30.5974 13.2395 31.4335 13.2989 32.7756H17.2834C17.1645 31.1035 16.711 29.0207 14.5032 27.4146C13.0536 26.3731 11.1803 25.9258 8.76437 25.9258C7.19585 25.9258 4.92856 26.1018 3.02553 27.7152C1.63542 28.874 0.973818 30.3408 0.973818 31.9762C0.973818 34.301 2.08888 35.7018 3.60536 36.5672C4.3636 37.0146 5.20361 37.3446 6.05105 37.5793C6.8985 37.8139 7.74594 37.9973 8.49675 38.144L10.2214 38.5327C12.5184 39.0094 13.5145 39.7207 13.5145 41.1875C13.5145 43.2116 11.8568 44.4364 9.16579 44.4364C7.59727 44.4364 6.35584 44.077 5.44892 43.307C4.81706 42.7423 4.48254 42.0822 4.33386 41.4882C4.24466 41.1875 4.18519 40.9235 4.18519 40.6521C4.15545 40.4101 4.15545 40.2048 4.12572 40.0288H0C0.0297349 46.9152 6.40044 47.744 9.03198 47.744C11.4479 47.744 13.3212 47.2379 14.8006 46.2552C16.6441 45.0304 17.6402 43.219 17.6402 40.9822C17.6402 39.5227 17.1273 36.9265 13.7747 35.5551V35.5404Z" fill="white"></path>
    <path d="M29.8463 29.1944C32.5075 29.1944 34.8938 30.7418 35.7635 33.3673H40.2014C38.96 28.7177 34.8863 25.8281 29.8983 25.8281C23.6168 25.8281 18.9038 30.5951 18.9038 36.9169C18.9038 43.2387 23.6168 48.0057 29.8983 48.0057C34.8789 48.0057 38.96 45.1161 40.2014 40.4665H35.7635C34.8863 43.0627 32.5001 44.6101 29.8463 44.6101C26.0105 44.6101 23.141 41.5079 23.141 36.9242C23.141 32.3406 26.0105 29.209 29.8463 29.209V29.1944Z" fill="white"></path>
    <path d="M46.5501 26.3945H42.6548V47.2226H46.5501V26.3945Z" fill="white"></path>
    <path d="M53.3445 38.2827H63.0084V34.7111H53.3445V29.9074H64.458V26.3945H49.479V47.2226H64.7925V43.6804H53.3445V38.2827Z" fill="white"></path>
    <path d="M81.1984 40.0721L71.0142 26.3945H67.3345V47.2226H71.2595V33.5157L81.4065 47.2226H85.1234V26.3945H81.1984V40.0721Z" fill="white"></path>
    <path d="M87.7178 29.9074H93.6648V47.2226H97.5006V29.9074H103.455V26.3945H87.7178V29.9074Z" fill="white"></path>
    <path d="M110.019 26.3945H106.124V47.2226H110.019V26.3945Z" fill="white"></path>
    <path d="M125.667 35.5404C124.968 35.2398 124.277 35.0637 123.102 34.7924L120.263 34.1397C118.449 33.6923 116.851 33.1863 116.851 31.6388C116.851 29.8201 118.962 29.1967 120.716 29.1967C122.077 29.1967 123.132 29.468 123.89 30.0034C124.708 30.5974 125.132 31.4335 125.191 32.7756H129.176C129.057 31.1035 128.603 29.0207 126.396 27.4146C124.946 26.3731 123.073 25.9258 120.657 25.9258C119.088 25.9258 116.821 26.1018 114.918 27.7152C113.528 28.874 112.866 30.3408 112.866 31.9762C112.866 34.301 113.981 35.7018 115.498 36.5672C116.256 37.0146 117.096 37.3446 117.943 37.5793C118.791 37.8139 119.638 37.9973 120.389 38.144L122.114 38.5327C124.411 39.0094 125.407 39.7207 125.407 41.1875C125.407 43.2116 123.749 44.4364 121.058 44.4364C119.49 44.4364 118.248 44.077 117.341 43.307C116.709 42.7423 116.375 42.0822 116.226 41.4882C116.137 41.1875 116.078 40.9235 116.078 40.6521C116.048 40.4101 116.048 40.2048 116.018 40.0288H111.907C111.937 46.9152 118.308 47.744 120.939 47.744C123.355 47.744 125.228 47.2379 126.708 46.2552C128.551 45.0304 129.547 43.219 129.547 40.9822C129.547 39.5227 129.035 36.9265 125.682 35.5551L125.667 35.5404Z" fill="white"></path>
    <path d="M130.439 29.9074H136.394V47.2226H140.23V29.9074H146.177V26.3945H130.439V29.9074Z" fill="white"></path>
    <path d="M160.435 35.5404C159.743 35.2398 159.045 35.0637 157.87 34.7924L155.03 34.1397C153.216 33.6923 151.618 33.1863 151.618 31.6388C151.618 29.8201 153.729 29.1967 155.484 29.1967C156.844 29.1967 157.9 29.468 158.658 30.0034C159.476 30.5974 159.899 31.4335 159.959 32.7756H163.943C163.824 31.1035 163.371 29.0207 161.163 27.4146C159.714 26.3731 157.84 25.9258 155.424 25.9258C153.856 25.9258 151.589 26.1018 149.685 27.7152C148.295 28.874 147.634 30.3408 147.634 31.9762C147.634 34.301 148.749 35.7018 150.265 36.5672C151.024 37.0146 151.864 37.3446 152.711 37.5793C153.558 37.8139 154.406 37.9973 155.157 38.144L156.881 38.5327C159.178 39.0094 160.174 39.7207 160.174 41.1875C160.174 43.2116 158.517 44.4364 155.826 44.4364C154.257 44.4364 153.016 44.077 152.109 43.307C151.477 42.7423 151.142 42.0822 150.994 41.4882C150.905 41.1875 150.845 40.9235 150.845 40.6521C150.815 40.4101 150.815 40.2048 150.786 40.0288H146.675C146.705 46.9152 153.075 47.744 155.707 47.744C158.123 47.744 159.996 47.2379 161.475 46.2552C163.319 45.0304 164.315 43.219 164.315 40.9822C164.315 39.5227 163.802 36.9265 160.45 35.5551L160.435 35.5404Z" fill="white"></path>
  </g>
  <defs>
    <clipPath id="clip0_91_5175">
      <rect width="164.308" height="48" fill="white"></rect>
    </clipPath>
  </defs>
</svg>
