<?xml version="1.0" encoding="UTF-8"?>
<svg xmlns="http://www.w3.org/2000/svg" width="88" height="88" viewBox="0 0 88 88" fill="none">
  <rect width="88" height="88" rx="44" fill="#F1F2EA"></rect>
  <path d="M51.8839 65.9999H35.1294C34.0023 65.9999 33.0986 65.0963 33.0986 63.9692V36.5542C33.0986 35.4271 34.0023 34.5234 35.1294 34.5234H54.4214C55.5485 34.5234 56.4522 35.4271 56.4522 36.5542V40.7852" stroke="#231F20" stroke-width="2" stroke-linecap="round" stroke-linejoin="round"></path>
  <mask id="path-3-inside-1_11076_52456" fill="white">
    <path d="M50.9891 60.3104H35.4238V37.5703H54.2091L54.2091 40.7015"></path>
  </mask>
  <path d="M50.9891 62.3104C52.0937 62.3104 52.9891 61.4149 52.9891 60.3104C52.9891 59.2058 52.0937 58.3104 50.9891 58.3104V62.3104ZM35.4238 60.3104H33.4238C33.4238 61.4149 34.3193 62.3104 35.4238 62.3104V60.3104ZM35.4238 37.5703V35.5703C34.3193 35.5703 33.4238 36.4657 33.4238 37.5703H35.4238ZM54.2091 37.5703L56.2091 37.5703C56.2091 36.4657 55.3137 35.5703 54.2091 35.5703V37.5703ZM52.2091 40.7015C52.2091 41.806 53.1045 42.7015 54.2091 42.7015C55.3137 42.7015 56.2091 41.806 56.2091 40.7015L52.2091 40.7015ZM50.9891 58.3104H35.4238V62.3104H50.9891V58.3104ZM37.4238 60.3104V37.5703H33.4238V60.3104H37.4238ZM35.4238 39.5703H54.2091V35.5703H35.4238V39.5703ZM52.2091 37.5703L52.2091 40.7015L56.2091 40.7015L56.2091 37.5703L52.2091 37.5703Z" fill="#231F20" mask="url(#path-3-inside-1_11076_52456)"></path>
  <path d="M44.2676 63.4609H45.2829" stroke="#231F20" stroke-width="2" stroke-linecap="round" stroke-linejoin="round"></path>
  <path d="M40.2549 51.2421H42.494V53.4771V54.4771H43.494H46.8786H47.8786V53.4771V51.2421H50.2633H51.2633V50.2421V46.8534V45.8534H50.2633H47.8786V43.4688V42.4688H46.8786H43.494H42.494V43.4688V45.8534H40.2549H39.2549V46.8534V50.2421V51.2421H40.2549Z" fill="#26D9C4" stroke="#231F20" stroke-width="2"></path>
  <path d="M56.0377 43.4678H64.4868C65.5289 43.4678 66.3644 44.3033 66.3644 45.3453V64.1211C66.3644 65.1632 65.5289 65.9987 64.4868 65.9987H56.0377C54.9957 65.9987 54.1602 65.1632 54.1602 64.1211V45.3453C54.1602 44.3033 54.9957 43.4678 56.0377 43.4678Z" stroke="#231F20" stroke-width="2" stroke-linecap="round" stroke-linejoin="round"></path>
  <path d="M54.1602 46.2842H66.3644" stroke="#231F20" stroke-width="2" stroke-linecap="round" stroke-linejoin="round"></path>
  <path d="M54.1602 62.2422H66.3644" stroke="#231F20" stroke-width="2" stroke-linecap="round" stroke-linejoin="round"></path>
  <path d="M30.4142 57.6971H23.3735C22.6147 57.6971 22 57.0827 22 56.3241V23.373C22 22.6144 22.6147 22 23.3735 22H63.2064C63.9653 22 64.5799 22.6144 64.5799 23.373V40.7853" stroke="#231F20" stroke-width="2" stroke-linecap="round" stroke-linejoin="round"></path>
  <path d="M22 28.8643H64.5799" stroke="#231F20" stroke-width="2" stroke-linecap="round" stroke-linejoin="round"></path>
  <path d="M25.4326 25.4316H27.2068" stroke="#231F20" stroke-width="2" stroke-linejoin="round"></path>
  <path d="M28.8682 25.4316H30.6423" stroke="#231F20" stroke-width="2" stroke-linejoin="round"></path>
  <path d="M32.3008 25.4316H34.0749" stroke="#231F20" stroke-width="2" stroke-linejoin="round"></path>
</svg>
