<?xml version="1.0" encoding="UTF-8"?>
<svg xmlns="http://www.w3.org/2000/svg" width="88" height="88" viewBox="0 0 88 88" fill="none">
  <rect width="88" height="88" rx="44" fill="#F1F2EA"></rect>
  <path d="M59.483 39.4053H36.6729V43.207H59.483V39.4053Z" stroke="#333333" stroke-width="2" stroke-linecap="round" stroke-linejoin="round"></path>
  <path d="M43.4804 55.8794H36.6729V47.0088H51.2677" stroke="#333333" stroke-width="2" stroke-linecap="round" stroke-linejoin="round"></path>
  <path d="M27.8018 47.0088H32.8707" stroke="#333333" stroke-width="2" stroke-linecap="round" stroke-linejoin="round"></path>
  <path d="M27.8018 39.4053H32.8707" stroke="#333333" stroke-width="2" stroke-linecap="round" stroke-linejoin="round"></path>
  <path d="M43.4798 60.9479H25.2672C24.5671 60.9479 24 60.3808 24 59.6807V29.2672C24 28.5671 24.5671 28 25.2672 28H62.0169C62.717 28 63.2841 28.5671 63.2841 29.2672V51.8602" stroke="#333333" stroke-width="2" stroke-linecap="round" stroke-linejoin="round"></path>
  <path d="M24 34.3359H63.2841" stroke="#333333" stroke-width="2" stroke-linecap="round" stroke-linejoin="round"></path>
  <path d="M27.168 31.168H28.4352" stroke="#333333" stroke-width="3" stroke-linejoin="round"></path>
  <path d="M30.3359 31.168H31.6032" stroke="#333333" stroke-width="3" stroke-linejoin="round"></path>
  <path d="M33.5039 31.168H34.7711" stroke="#333333" stroke-width="3" stroke-linejoin="round"></path>
  <path d="M59.5338 53.8066V54.8066H60.5338H66.9999V60.2695H60.5338H59.5338V61.2695V67.4078H54.071V61.2695V60.2695H53.071H46.9326V54.8066H53.071H54.071V53.8066V47.3438H59.5338V53.8066Z" fill="#26D9C4" stroke="#333333" stroke-width="2"></path>
</svg>
