<?xml version="1.0" encoding="UTF-8"?>
<svg xmlns="http://www.w3.org/2000/svg" width="88" height="88" viewBox="0 0 88 88" fill="none">
  <rect width="88" height="88" rx="44" fill="#F1F2EA"></rect>
  <path d="M43.2464 49.6465L65.9998 49.6465" stroke="#231F20" stroke-width="2" stroke-linecap="round" stroke-linejoin="round"></path>
  <path d="M65.835 46.7074L51.5003 46.7074L46.3876 41.6094" stroke="#231F20" stroke-width="2" stroke-linecap="round" stroke-linejoin="round"></path>
  <path d="M65.8437 52.5859L51.4992 52.5859L46.4056 57.6649" stroke="#231F20" stroke-width="2" stroke-linecap="round" stroke-linejoin="round"></path>
  <path d="M41.4253 52.1983C40.0837 52.1983 38.997 51.1116 38.997 49.77C38.997 48.4284 40.0837 47.3418 41.4253 47.3418C42.7669 47.3418 43.8535 48.4284 43.8535 49.77C43.8535 51.1116 42.7669 52.1983 41.4253 52.1983Z" fill="#26D9C4" stroke="#231F20" stroke-width="2" stroke-linecap="round" stroke-linejoin="round"></path>
  <path d="M45.0146 42.0046C44.0375 42.0046 43.246 41.2154 43.246 40.2411C43.246 39.2667 44.0375 38.4775 45.0146 38.4775C45.9918 38.4775 46.7832 39.2667 46.7832 40.2411C46.7832 41.2154 45.9918 42.0046 45.0146 42.0046Z" fill="#26D9C4" stroke="#231F20" stroke-width="2" stroke-linecap="round" stroke-linejoin="round"></path>
  <path d="M45.0146 60.8161C44.0375 60.8161 43.246 60.0269 43.246 59.0526C43.246 58.0782 44.0375 57.2891 45.0146 57.2891C45.9918 57.2891 46.7832 58.0782 46.7832 59.0526C46.7832 60.0269 45.9918 60.8161 45.0146 60.8161Z" fill="#26D9C4" stroke="#231F20" stroke-width="2" stroke-linecap="round" stroke-linejoin="round"></path>
  <path d="M29.6578 63.8839H63.6136C64.822 63.8839 65.8582 62.8951 65.8582 61.6744L65.8582 52.5831M61.4264 33.0727V31.9679C61.4264 30.8632 60.5625 29.9905 59.4689 29.9905H44.7356C43.9865 29.9905 43.3522 29.5817 43.0077 29.0017L40.7632 24.9887C40.3585 24.348 39.727 24 39.0353 24H23.9575C22.8639 24 22 24.9307 22 25.9775V60.8624C22 62.5499 23.3232 63.8867 24.9937 63.8867C26.6641 63.8867 27.9874 62.5472 27.9874 60.8624V38.2456C27.9874 37.0249 28.8287 35.6852 30.0371 35.6852H63.4762C64.6846 35.6852 65.8582 37.0249 65.8582 38.2456L65.8582 46.6995" stroke="#231F20" stroke-width="2" stroke-linecap="round" stroke-linejoin="round"></path>
</svg>
