<?xml version="1.0" encoding="UTF-8"?>
<svg xmlns="http://www.w3.org/2000/svg" width="170" height="170" viewBox="0 0 170 170" fill="none">
  <rect width="170" height="170" rx="85" fill="#F1F2EA"></rect>
  <path d="M90.0624 120.155H51.6552C49.0716 120.155 47 118.084 47 115.5V52.6552C47 50.0716 49.0716 48 51.6552 48H95.8793C98.4629 48 100.534 50.0716 100.534 52.6552V62.3541" stroke="#231F20" stroke-width="2" stroke-linecap="round" stroke-linejoin="round"></path>
  <path d="M88.0119 107.113H52.3308V54.9844H95.3933L95.3933 62.1621" stroke="#231F20" stroke-width="2" stroke-linecap="round" stroke-linejoin="round"></path>
  <path d="M72.6045 114.34H74.932" stroke="#231F20" stroke-width="2" stroke-linecap="round" stroke-linejoin="round"></path>
  <path d="M63.4045 85.0328H69.8296V91.4486V92.4486H70.8296H78.5884H79.5884V91.4486V85.0328H86.3472H87.3472V84.0328V76.2647V75.2647H86.3472H79.5884V68.5059V67.5059H78.5884H70.8296H69.8296V68.5059V75.2647H63.4045H62.4045V76.2647V84.0328V85.0328H63.4045Z" fill="#26D9C4" stroke="#231F20" stroke-width="2"></path>
  <path d="M98.2158 68H118.119C120.573 68 122.542 69.9682 122.542 72.4229V116.652C122.542 119.106 120.573 121.075 118.119 121.075H98.2158C95.7611 121.075 93.793 119.106 93.793 116.652V72.4229C93.793 69.9682 95.7611 68 98.2158 68Z" stroke="#231F20" stroke-width="2" stroke-linecap="round" stroke-linejoin="round"></path>
  <path d="M93.793 74.6348H122.542" stroke="#231F20" stroke-width="2" stroke-linecap="round" stroke-linejoin="round"></path>
  <path d="M93.793 112.227H122.542" stroke="#231F20" stroke-width="2" stroke-linecap="round" stroke-linejoin="round"></path>
</svg>
