<?xml version="1.0" encoding="UTF-8"?>
<svg xmlns="http://www.w3.org/2000/svg" width="170" height="170" viewBox="0 0 170 170" fill="none">
  <rect width="170" height="170" rx="85" fill="white"></rect>
  <path d="M109.483 124.922H60.0747L84.7803 79.3789L109.483 124.922Z" fill="#26D9C4" stroke="#333333" stroke-width="3" stroke-linecap="round" stroke-linejoin="round"></path>
  <path d="M76.7104 94.2532L90.1543 89.2871" stroke="#333333" stroke-width="3" stroke-linecap="round" stroke-linejoin="round"></path>
  <path d="M56.1987 124.922H41.4429L60.0747 90.5742L67.0904 104.582" stroke="#333333" stroke-width="3" stroke-linecap="round" stroke-linejoin="round"></path>
  <path d="M113.362 124.922H128.115L109.483 90.5742L102.025 104.14" stroke="#333333" stroke-width="3" stroke-linecap="round" stroke-linejoin="round"></path>
  <rect x="41.3317" y="86.4371" width="0.663317" height="28.5226" rx="0.331658" stroke="#333333" stroke-width="0.663317"></rect>
  <rect x="53.7135" y="79.8043" width="0.663317" height="12.1608" rx="0.331658" stroke="#333333" stroke-width="0.663317"></rect>
  <rect x="66.0956" y="73.6129" width="0.663317" height="20.1206" rx="0.331658" stroke="#333333" stroke-width="0.663317"></rect>
  <rect x="78.4774" y="66.9801" width="0.663317" height="13.4874" rx="0.331658" stroke="#333333" stroke-width="0.663317"></rect>
  <rect x="90.8592" y="60.3473" width="0.663317" height="20.1206" rx="0.331658" stroke="#333333" stroke-width="0.663317"></rect>
  <rect x="103.241" y="54.1559" width="0.663317" height="36.9246" rx="0.331658" stroke="#333333" stroke-width="0.663317"></rect>
  <rect x="115.623" y="47.9645" width="0.663317" height="43.1156" rx="0.331658" stroke="#333333" stroke-width="0.663317"></rect>
  <rect x="128.005" y="41.3317" width="0.663317" height="74.0704" rx="0.331658" stroke="#333333" stroke-width="0.663317"></rect>
</svg>
