<?xml version="1.0" encoding="UTF-8"?>
<svg xmlns="http://www.w3.org/2000/svg" width="88" height="88" viewBox="0 0 88 88" fill="none">
  <rect width="88" height="88" rx="44" fill="#F1F2EA"></rect>
  <path d="M54.525 31.0749C55.125 30.8078 55.8 30.667 56.5 30.667C59.2579 30.667 61.5 32.9091 61.5 35.667C61.5 35.7841 61.5 35.892 61.4829 35.9999" stroke="#231F20" stroke-width="2" stroke-linecap="round" stroke-linejoin="round"></path>
  <path d="M48.1674 26.2331C48.9253 25.866 49.7674 25.666 50.6674 25.666C53.6096 25.666 56.0346 27.8331 56.4346 30.666" stroke="#231F20" stroke-width="2" stroke-linecap="round" stroke-linejoin="round"></path>
  <path d="M39.325 27.2329C40.0329 25.35 41.8579 24 44 24C46.7579 24 49 26.2421 49 29C49 30.6579 48.1921 32.125 46.9579 33.0329" stroke="#231F20" stroke-width="2" stroke-linecap="round" stroke-linejoin="round"></path>
  <path d="M27.9252 37.3918C27.5423 36.6168 27.3331 35.7497 27.3331 34.8339C27.3331 31.6089 29.941 29.001 33.166 29.001" stroke="#231F20" stroke-width="2" stroke-linecap="round" stroke-linejoin="round"></path>
  <path d="M46.5 44.0003C45.1079 44.0003 43.925 43.1503 43.425 41.9424L46.5 44.0003Z" fill="#F1F2EA"></path>
  <path d="M46.5 44.0003C45.1079 44.0003 43.925 43.1503 43.425 41.9424" stroke="#231F20" stroke-width="2" stroke-linecap="round" stroke-linejoin="round"></path>
  <path d="M56.8 36.992C57.55 36.1749 58.6329 35.667 59.8329 35.667C62.1329 35.667 64 37.5341 64 39.8341C64 42.1341 62.1329 44.0012 59.8329 44.0012L46.4999 44.0012" stroke="#231F20" stroke-width="2" stroke-linecap="round" stroke-linejoin="round"></path>
  <path d="M40.1829 35.6826C42.325 35.8576 44 37.6497 44 39.8326C44 42.1326 42.1329 43.9997 39.8329 43.9997L27.3328 43.9997C25.4907 43.9997 23.9999 42.5076 23.9999 40.6668C23.9999 38.826 25.492 37.3339 27.3328 37.3339C28.3328 37.3339 29.2328 37.776 29.85 38.476" stroke="#231F20" stroke-width="2" stroke-linecap="round" stroke-linejoin="round"></path>
  <path d="M51.1763 38.6671C51.8842 37.375 53.2566 36.5 54.8329 36.5C57.1342 36.5 59 38.3658 59 40.6671" stroke="#231F20" stroke-width="2" stroke-linecap="round" stroke-linejoin="round"></path>
  <path d="M33.8649 31.042C33.4267 30.4775 33.1662 29.7696 33.1662 28.9999C33.1662 27.1591 34.6583 25.667 36.4991 25.667C38.3399 25.667 39.832 27.1591 39.832 28.9999C39.832 29.3854 39.7662 29.7565 39.6452 30.1012" stroke="#231F20" stroke-width="2" stroke-linecap="round" stroke-linejoin="round"></path>
  <path d="M41.5 61.5C41.5 62.8807 42.6193 64 44 64C45.3807 64 46.5 62.8807 46.5 61.5C46.5 60.1193 45.3807 59 44 59C42.6193 59 41.5 60.1193 41.5 61.5Z" fill="#26D9C4" stroke="#231F20" stroke-width="2" stroke-linecap="round" stroke-linejoin="round"></path>
  <path d="M31.5 59.833C31.5 61.2137 32.6193 62.333 34 62.333C35.3807 62.333 36.5 61.2137 36.5 59.833C36.5 58.4523 35.3807 57.333 34 57.333C32.6193 57.333 31.5 58.4523 31.5 59.833Z" fill="#26D9C4" stroke="#231F20" stroke-width="2" stroke-linecap="round" stroke-linejoin="round"></path>
  <path d="M24 51.5C24 52.8807 25.1193 54 26.5 54C27.8807 54 29 52.8807 29 51.5C29 50.1193 27.8807 49 26.5 49C25.1193 49 24 50.1193 24 51.5Z" fill="#26D9C4" stroke="#231F20" stroke-width="2" stroke-linecap="round" stroke-linejoin="round"></path>
  <path d="M44 47.333L44 59.0002" stroke="#231F20" stroke-width="2" stroke-linecap="round" stroke-linejoin="round"></path>
  <path d="M39 47.333L39 51.5001L29 51.5001" stroke="#231F20" stroke-width="2" stroke-linecap="round" stroke-linejoin="round"></path>
  <path d="M34 47.333L34 49.0001" stroke="#231F20" stroke-width="2" stroke-linecap="round" stroke-linejoin="round"></path>
  <path d="M34 54L34 57.3329" stroke="#231F20" stroke-width="2" stroke-linecap="round" stroke-linejoin="round"></path>
  <path d="M51.5 59.833C51.5 61.2137 52.6193 62.333 54 62.333C55.3807 62.333 56.5 61.2137 56.5 59.833C56.5 58.4523 55.3807 57.333 54 57.333C52.6193 57.333 51.5 58.4523 51.5 59.833Z" fill="#26D9C4" stroke="#231F20" stroke-width="2" stroke-linecap="round" stroke-linejoin="round"></path>
  <path d="M59 51.5C59 52.8807 60.1193 54 61.5 54C62.8807 54 64 52.8807 64 51.5C64 50.1193 62.8807 49 61.5 49C60.1193 49 59 50.1193 59 51.5Z" fill="#26D9C4" stroke="#231F20" stroke-width="2" stroke-linecap="round" stroke-linejoin="round"></path>
  <path d="M49 47.333L49 51.5001L59 51.5001" stroke="#231F20" stroke-width="2" stroke-linecap="round" stroke-linejoin="round"></path>
  <path d="M54 47.333L54 49.0001" stroke="#231F20" stroke-width="2" stroke-linecap="round" stroke-linejoin="round"></path>
  <path d="M54 54L54 57.3329" stroke="#231F20" stroke-width="2" stroke-linecap="round" stroke-linejoin="round"></path>
</svg>
