<?xml version="1.0" encoding="UTF-8"?>
<svg xmlns="http://www.w3.org/2000/svg" width="170" height="170" viewBox="0 0 170 170" fill="none">
  <rect width="170" height="170" rx="85" fill="white"></rect>
  <rect x="61.5" y="57.5" width="13" height="13" rx="6.5" stroke="#333333" stroke-width="3"></rect>
  <rect x="43.5" y="73.5" width="13" height="13" rx="6.5" stroke="#333333" stroke-width="3"></rect>
  <rect x="51.5" y="99.5" width="13" height="13" rx="6.5" stroke="#333333" stroke-width="3"></rect>
  <rect x="65.5" y="81.5" width="13" height="13" rx="6.5" stroke="#333333" stroke-width="3"></rect>
  <rect x="114.5" y="48.5" width="13" height="13" rx="6.5" fill="#26D9C4" stroke="#333333" stroke-width="3"></rect>
  <rect x="114.5" y="68.5" width="13" height="13" rx="6.5" fill="#26D9C4" stroke="#333333" stroke-width="3"></rect>
  <rect x="114.5" y="88.5" width="13" height="13" rx="6.5" fill="#26D9C4" stroke="#333333" stroke-width="3"></rect>
  <rect x="114.5" y="108.5" width="13" height="13" rx="6.5" fill="#26D9C4" stroke="#333333" stroke-width="3"></rect>
  <path d="M107.061 86.0607C107.646 85.4749 107.646 84.5251 107.061 83.9393L97.5147 74.3934C96.9289 73.8076 95.9792 73.8076 95.3934 74.3934C94.8076 74.9792 94.8076 75.9289 95.3934 76.5147L103.879 85L95.3934 93.4853C94.8076 94.0711 94.8076 95.0208 95.3934 95.6066C95.9792 96.1924 96.9289 96.1924 97.5147 95.6066L107.061 86.0607ZM90 86.5L106 86.5L106 83.5L90 83.5L90 86.5Z" fill="#333333"></path>
  <path d="M89.75 47L89.75 123" stroke="#333333" stroke-width="3" stroke-linecap="round"></path>
</svg>
