<?xml version="1.0" encoding="UTF-8"?>
<svg xmlns="http://www.w3.org/2000/svg" width="88" height="88" viewBox="0 0 88 88" fill="none">
  <rect width="88" height="88" rx="44" fill="#F1F2EA"></rect>
  <path d="M44.6328 62.8615C34.1852 62.8857 25.7158 54.4749 25.7158 44.0756" stroke="#231F20" stroke-width="2" stroke-miterlimit="10" stroke-linecap="round" stroke-linejoin="round"></path>
  <path d="M44.71 25.1307C55.1575 25.1065 63.627 33.5173 63.627 43.9166" stroke="#231F20" stroke-width="2" stroke-miterlimit="10" stroke-linecap="round" stroke-linejoin="round"></path>
  <path d="M44.7097 25.1161H28.2493V22L22 27.1424L28.2493 32.2903V29.1687" stroke="#231F20" stroke-width="2" stroke-linecap="round" stroke-linejoin="round"></path>
  <path d="M44 62.8842H59.7546V66.0003L66 60.8579L59.7546 55.71V58.8316" stroke="#231F20" stroke-width="2" stroke-linecap="round" stroke-linejoin="round"></path>
  <circle cx="44.5321" cy="43.8231" r="13.371" fill="#26D9C4" stroke="#231F20" stroke-width="2"></circle>
  <path d="M40.3203 40.965H42.7754C44.5803 40.965 45.7574 38.7416 46.2394 37.1292C46.6094 35.9237 46.8574 35.4854 47.4067 35.4854C48.9201 35.4854 49.2901 36.669 49.2901 37.4909C49.2901 38.6635 48.169 40.965 48.169 40.965H52.6083C53.3258 40.965 53.6285 41.6006 53.742 42.1595C53.8541 42.7294 53.707 43.2445 53.2361 43.6062C53.5949 44.0226 53.6523 44.6459 53.55 45.1733C53.4491 45.7103 53.1016 45.9843 52.6083 46.2583C53.0792 47.0241 52.8213 48.0556 52.0254 48.5159C52.3057 48.8776 52.3841 49.4789 52.251 49.9077C52.1151 50.3242 51.7339 50.8283 51.0515 50.8283H45.0988C44.3364 50.8283 43.5741 50.6639 42.8903 50.3351L42.6661 50.2255C41.9823 49.8968 41.2199 49.7324 40.4576 49.7324H40.3231" fill="#F1F2EA"></path>
  <path d="M40.3203 40.965H42.7754C44.5803 40.965 45.7574 38.7416 46.2394 37.1292C46.6094 35.9237 46.8574 35.4854 47.4067 35.4854C48.9201 35.4854 49.2901 36.669 49.2901 37.4909C49.2901 38.6635 48.169 40.965 48.169 40.965H52.6083C53.3258 40.965 53.6285 41.6006 53.742 42.1595C53.8541 42.7294 53.707 43.2445 53.2361 43.6062C53.5949 44.0226 53.6523 44.6459 53.55 45.1733C53.4491 45.7103 53.1016 45.9843 52.6083 46.2583C53.0792 47.0241 52.8213 48.0556 52.0254 48.5159C52.3057 48.8776 52.3841 49.4789 52.251 49.9077C52.1151 50.3242 51.7339 50.8283 51.0515 50.8283H45.0988C44.3364 50.8283 43.5741 50.6639 42.8903 50.3351L42.6661 50.2255C41.9823 49.8968 41.2199 49.7324 40.4576 49.7324H40.3231" stroke="#231F20" stroke-width="2" stroke-linecap="round" stroke-linejoin="round"></path>
  <path d="M40.3207 41.0199V40.9651C40.2884 40.3513 39.7279 39.8691 39.0427 39.8691H37.1159C36.4082 39.8691 35.8379 40.3856 35.8379 41.0199V49.6777C35.8379 50.3119 36.4096 50.8284 37.1159 50.8284H39.0427C39.7279 50.8284 40.2884 50.3462 40.3207 49.7325V41.0199Z" fill="#F1F2EA" stroke="#231F20" stroke-width="2" stroke-linecap="round" stroke-linejoin="round"></path>
</svg>
