<?xml version="1.0" encoding="UTF-8"?>
<svg xmlns="http://www.w3.org/2000/svg" width="120" height="120" viewBox="0 0 120 120" fill="none">
  <rect width="120" height="120" rx="60" fill="#F1F2EA"></rect>
  <path d="M70.75 78.5H85C88.3137 78.5 91 75.8137 91 72.5V40.5C91 37.1863 88.3137 34.5 85 34.5H35C31.6863 34.5 29 37.1863 29 40.5V72.5C29 75.8137 31.6863 78.5 35 78.5H48.75" stroke="#231F20" stroke-width="1.5" stroke-linecap="round"></path>
  <path d="M29.25 44.2656L90.5 44.2656" stroke="#231F20" stroke-width="1.5" stroke-linecap="round" stroke-linejoin="round"></path>
  <path d="M33.8828 39.3828H35.8356" stroke="#231F20" stroke-width="1.5" stroke-linejoin="round"></path>
  <path d="M38.7637 39.3828H40.7164" stroke="#231F20" stroke-width="1.5" stroke-linejoin="round"></path>
  <path d="M43.6445 39.3828H45.5973" stroke="#231F20" stroke-width="1.5" stroke-linejoin="round"></path>
  <path d="M64.0912 89.9957C64.0912 89.9957 67.1404 79.9409 67.8314 78.8518L60.6094 66.0156L59.346 66.0397L52.1504 78.8545C53.1422 80.3984 55.8906 89.9984 55.8906 89.9984H64.0886L64.0912 89.9957Z" fill="#D1F259" stroke="#231F20" stroke-width="1.5" stroke-linecap="round" stroke-linejoin="round"></path>
  <path d="M59.9941 67V74.847" stroke="#231F20" stroke-width="1.5" stroke-linecap="round" stroke-linejoin="round"></path>
  <path d="M59.9396 78.3881C60.9278 78.3881 61.7288 77.5955 61.7288 76.6179C61.7288 75.6402 60.9278 74.8477 59.9396 74.8477C58.9514 74.8477 58.1504 75.6402 58.1504 76.6179C58.1504 77.5955 58.9514 78.3881 59.9396 78.3881Z" fill="#333333" stroke="#231F20" stroke-width="1.5" stroke-linecap="round" stroke-linejoin="round"></path>
  <path d="M62.105 58.6406H58V62.702H62.105V58.6406Z" fill="#D1F259" stroke="#231F20" stroke-width="1.5" stroke-linecap="round" stroke-linejoin="round"></path>
  <path d="M48.6733 49.4141H44.5684V53.4754H48.6733V49.4141Z" fill="#D1F259" stroke="#231F20" stroke-width="1.5" stroke-linecap="round" stroke-linejoin="round"></path>
  <path d="M54.7447 61.1882C50.9587 61.6997 48.295 60.2177 46.8366 56.6225" stroke="#231F20" stroke-width="1.5" stroke-linecap="round" stroke-linejoin="round"></path>
</svg>
