<?xml version="1.0" encoding="UTF-8"?>
<svg xmlns="http://www.w3.org/2000/svg" width="88" height="88" viewBox="0 0 88 88" fill="none">
  <rect width="88" height="88" rx="44" fill="#F1F2EA"></rect>
  <path d="M56.8717 35.8454C56.8717 35.0459 56.8717 29.8491 56.8717 29.146V24.8584C56.8717 23.272 55.5997 22 54.0133 22H26.8584C25.272 22 24 23.272 24 24.8584V63.4469C24 65.0333 25.272 66.3053 26.8584 66.3053H54.0133C57.1099 65.8597 56.8717 64.3413 56.8717 61.8333C56.8717 60.8796 56.8717 53.3195 56.8717 48.7678" stroke="#231F20" stroke-width="2" stroke-linecap="round" stroke-linejoin="round"></path>
  <path d="M54.1295 49.69V59.1588H26.9746V26.2871H54.1295V29.1455V34.9216" stroke="#231F20" stroke-width="2" stroke-linecap="round" stroke-linejoin="round"></path>
  <path d="M39.7207 62.7324H41.1499" stroke="#231F20" stroke-width="2" stroke-linecap="round" stroke-linejoin="round"></path>
  <path d="M67.4643 42.0146L49.8447 42.0146" stroke="#231F20" stroke-width="2" stroke-linecap="round" stroke-linejoin="round"></path>
  <path d="M49.8447 45.152L58.6545 45.152L64.1119 50.5938" stroke="#231F20" stroke-width="2" stroke-linecap="round" stroke-linejoin="round"></path>
  <path d="M49.8447 38.8779L58.6545 38.8779L64.0914 33.4566" stroke="#231F20" stroke-width="2" stroke-linecap="round" stroke-linejoin="round"></path>
  <path d="M69.4083 39.2898C70.8404 39.2898 72.0003 40.4496 72.0003 41.8817C72.0003 43.3137 70.8404 44.4736 69.4083 44.4736C67.9763 44.4736 66.8164 43.3137 66.8164 41.8817C66.8164 40.4496 67.9763 39.2898 69.4083 39.2898Z" fill="#26D9C4" stroke="#231F20" stroke-width="2" stroke-linecap="round" stroke-linejoin="round"></path>
  <path d="M65.5763 50.1717C66.6193 50.1717 67.4641 51.0141 67.4641 52.0541C67.4641 53.0941 66.6193 53.9365 65.5763 53.9365C64.5333 53.9365 63.6885 53.0941 63.6885 52.0541C63.6885 51.0141 64.5333 50.1717 65.5763 50.1717Z" fill="#26D9C4" stroke="#231F20" stroke-width="2" stroke-linecap="round" stroke-linejoin="round"></path>
  <path d="M65.5763 30.0926C66.6193 30.0926 67.4641 30.935 67.4641 31.975C67.4641 33.015 66.6193 33.8574 65.5763 33.8574C64.5333 33.8574 63.6885 33.015 63.6885 31.975C63.6885 30.935 64.5333 30.0926 65.5763 30.0926Z" fill="#26D9C4" stroke="#231F20" stroke-width="2" stroke-linecap="round" stroke-linejoin="round"></path>
  <path d="M52.8792 39.3885L52.8807 39.4082V44.3661V44.3662V44.3662V44.3662V44.3662V44.3663V44.3663V44.3663V44.3663V44.3664V44.3664V44.3664V44.3664V44.3665V44.3665V44.3665V44.3665V44.3666V44.3666V44.3666V44.3666V44.3667V44.3667V44.3667V44.3667V44.3668V44.3668V44.3668V44.3668V44.3669V44.3669V44.3669V44.3669V44.367V44.367V44.367V44.3671V44.3671V44.3671V44.3671V44.3672V44.3672V44.3672V44.3672V44.3673V44.3673V44.3673V44.3674V44.3674V44.3674V44.3674V44.3675V44.3675V44.3675V44.3675V44.3676V44.3676V44.3676V44.3677V44.3677V44.3677V44.3678V44.3678V44.3678V44.3678V44.3679V44.3679V44.3679V44.368V44.368V44.368V44.368V44.3681V44.3681V44.3681V44.3682V44.3682V44.3682V44.3683V44.3683V44.3683V44.3683V44.3684V44.3684V44.3684V44.3685V44.3685V44.3685V44.3686V44.3686V44.3686V44.3687V44.3687V44.3687V44.3688V44.3688V44.3688V44.3688V44.3689V44.3689V44.3689V44.369V44.369V44.369V44.3691V44.3691V44.3691V44.3692V44.3692V44.3692V44.3693V44.3693V44.3693V44.3694V44.3694V44.3694V44.3695V44.3695V44.3695V44.3696V44.3696V44.3696V44.3697V44.3697V44.3697V44.3698V44.3698V44.3698V44.3699V44.3699V44.3699V44.37V44.37V44.37V44.3701V44.3701V44.3701V44.3702V44.3702V44.3702V44.3703V44.3703V44.3704V44.3704V44.3704V44.3705V44.3705V44.3705V44.3706V44.3706V44.3706V44.3707V44.3707V44.3707V44.3708V44.3708V44.3708V44.3709V44.3709V44.371V44.371V44.371V44.3711V44.3711V44.3711V44.3712V44.3712V44.3712V44.3713V44.3713V44.3714V44.3714V44.3714V44.3715V44.3715V44.3715V44.3716V44.3716V44.3717V44.3717V44.3717V44.3718V44.3718V44.3718V44.3719V44.3719V44.372V44.372V44.372V44.3721V44.3721V44.3721V44.3722V44.3722V44.3723V44.3723V44.3723V44.3724V44.3724V44.3725V44.3725V44.3725V44.3726V44.3726V44.3726V44.3727V44.3727V44.3728V44.3728V44.3728V44.3729V44.3729V44.373V44.373V44.373V44.3731V44.3731V44.3732V44.3732V44.3732V44.3733V44.3733V44.3734V44.3734V44.3734V44.3735V44.3735V44.3736V44.3736V44.3736V44.3737V44.3737V44.3738V44.3738V44.3738V44.3739V44.3739V44.374V44.374V44.374V44.3741V44.3741V44.3742V44.3742V44.3742V44.3743V44.3743V44.3744V44.3744V44.3744V44.3745V44.3745V44.3746V44.3746V44.3747V44.3747V44.3747V44.3748V44.3748V44.3749V44.3749V44.3749V44.375V44.375V44.3751V44.3751V44.3752V44.3752V44.3752V44.3753V44.3753V44.3754V44.3754V44.3754V44.3755V44.3755V44.3756V44.3756V44.3757V44.3757V44.3757V44.3758V44.3758V44.3759V44.3759V44.376V44.376V44.376V44.3761V44.3761V44.3762V44.3762V44.3763V44.3763V44.3763V44.3764V44.3764V44.3765V44.3765V44.3766V44.3766V44.3766V44.3767V44.3767V44.3768V44.3768V44.3769V44.3769V44.3769V44.377V44.377V44.3771V44.3771V44.3772V44.3772V44.3773V44.3773V44.3773V44.3774V44.3774V44.3775V44.3775V44.3776V44.3776V44.3777V44.3777V44.3777V44.3778V44.3778V44.3779V44.3779V44.378V44.378V44.3781V44.3781V44.3781V44.3782V44.3782V44.3783V44.3783V44.3784V44.3784V44.3785V44.3785V44.3785V44.3786V44.3786V44.3787V44.3787V44.3788V44.3788V44.3789V44.3789V44.3789V44.379V44.379V44.3791V44.3791V44.3792V44.3792V44.3793V44.3793V44.3794V44.3794V44.3794V44.3795V44.3795V44.3796V44.3796V44.3797V44.3797V44.3798V44.3798V44.3799V44.3799V44.3799V44.38V44.38V44.3801V44.3801V44.3802V44.3802V44.3803V44.3803V44.3804V44.3804V44.3804V44.3805V44.3805V44.3806V44.3806V44.3807V44.3807V44.3808V44.3808V44.3809V44.3809V44.381V44.381V44.381V44.3811V44.3811V44.3812V44.3812V44.3813V44.3813V44.3814V44.3814V44.3815V44.3815V44.3816V44.3816V44.3817V44.3817V44.3817V44.3818V44.3818V44.3819V44.3819V44.382V44.382V44.3821V44.3821V44.3822V44.3822V44.3823V44.3823V44.3824V44.3824V44.3824V44.3825V44.3825V44.3826V44.3826V44.3827V44.3827V44.3828V44.3828V44.3829V44.3829V44.383V44.383V44.3831V44.3831V44.3831V44.3832V44.3832V44.3833V44.3833V44.3834V44.3834V44.3835V44.3835V44.3836V44.3836V44.3837V44.3837V44.3838V44.3838V44.3839V44.3839V44.3839V44.384V44.384V44.3841V44.3841V44.3842V44.3842V44.3843V44.3843V44.3844V44.3844V44.3845V44.3845V44.3846V44.3846V44.3847V44.3847V44.3848V44.3848V44.3848V44.3849V44.3849V44.385C52.8691 47.7503 50.0766 50.5018 46.6101 50.4913H46.6071H39.2183H38.8057L38.5131 50.7823L35.7546 53.5262V51.3862V50.629L35.0259 50.4237C32.361 49.6728 30.5381 47.2842 30.5381 44.5845V39.8209C30.5381 36.4547 33.32 33.6957 36.787 33.6957H46.5618V33.6958L46.5724 33.6957C49.8934 33.6606 52.6432 36.169 52.8792 39.3885Z" fill="#26D9C4" stroke="#231F20" stroke-width="2"></path>
  <path d="M43.7497 40.2454V36.7529H40.2573V40.2454H36.915V43.742H40.2573V47.0801H43.7497V43.742H47.2422V40.2454H43.7497Z" fill="#231F20"></path>
</svg>
