<?xml version="1.0" encoding="UTF-8"?>
<svg xmlns="http://www.w3.org/2000/svg" width="88" height="88" viewBox="0 0 88 88" fill="none">
  <rect width="88" height="88" rx="44" fill="#F1F2EA"></rect>
  <path d="M26 61C26 61.5523 26.4477 62 27 62H62V60H28V38H28.8712C30.8868 38 32.8924 38.6123 34.7353 39.8148C36.5811 41.0192 38.2174 42.7864 39.5 45.0011C40.9186 47.4509 42.7615 49.4633 44.9025 50.8604C47.0465 52.2593 49.4283 53.0002 51.8597 53H58.3663L55.2927 56.0748C54.9023 56.4654 54.9024 57.0986 55.293 57.489C55.6836 57.8795 56.3168 57.8793 56.7073 57.4887L61.4873 52.7067C61.8776 52.3162 61.8776 51.6833 61.4873 51.2928L56.7073 46.5108C56.3168 46.1202 55.6836 46.1201 55.293 46.5105C54.9024 46.901 54.9023 47.5341 55.2927 47.9247L58.3667 51H51.8596C49.844 51.0001 47.8383 50.3879 45.9954 49.1854C44.1496 47.981 42.5133 46.2137 41.2308 43.9988C39.8121 41.5492 37.9693 39.5368 35.8282 38.1398C33.6843 36.7409 31.3026 36 28.8712 36H28V26H26V61Z" fill="#333333"></path>
  <mask id="path-3-inside-1_11076_52168" fill="white">
    <path d="M51.65 26C51.0977 26 50.65 26.4477 50.65 27C50.65 27.5013 51.0189 27.9165 51.5 27.9888V29.4816C50.561 29.6364 49.6942 30.0058 48.9518 30.5376L47.9642 29.55L48.1071 29.4071C48.4976 29.0166 48.4976 28.3834 48.1071 27.9929C47.7166 27.6024 47.0834 27.6024 46.6929 27.9929L44.9929 29.6929C44.6024 30.0834 44.6024 30.7166 44.9929 31.1071C45.3834 31.4976 46.0166 31.4976 46.4071 31.1071L46.55 30.9642L47.5376 31.9518C47.0058 32.6942 46.6364 33.561 46.4816 34.5H44.9888C44.9165 34.0189 44.5013 33.65 44 33.65C43.4477 33.65 43 34.0977 43 34.65V36.35C43 36.9023 43.4477 37.35 44 37.35C44.5013 37.35 44.9165 36.9811 44.9888 36.5H46.4816C46.6364 37.439 47.0058 38.3058 47.5376 39.0482L46.55 40.0358L46.4071 39.8929C46.0166 39.5024 45.3834 39.5024 44.9929 39.8929C44.6024 40.2834 44.6024 40.9166 44.9929 41.3071L46.6929 43.0071C47.0834 43.3976 47.7166 43.3976 48.1071 43.0071C48.4976 42.6166 48.4976 41.9834 48.1071 41.5929L47.9642 41.45L48.9518 40.4624C49.6942 40.9942 50.561 41.3636 51.5 41.5184V43.0112C51.0189 43.0835 50.65 43.4987 50.65 44C50.65 44.5523 51.0977 45 51.65 45H53.35C53.9023 45 54.35 44.5523 54.35 44C54.35 43.4987 53.9811 43.0835 53.5 43.0112V41.5184C54.6467 41.3293 55.6857 40.8204 56.5221 40.0863L57.8858 41.45L57.7429 41.5929C57.3524 41.9834 57.3524 42.6166 57.7429 43.0071C58.1334 43.3976 58.7666 43.3976 59.1571 43.0071L60.8571 41.3071C61.2476 40.9166 61.2476 40.2834 60.8571 39.8929C60.4666 39.5024 59.8334 39.5024 59.4429 39.8929L59.3 40.0358L57.795 38.5308C58.1491 37.9136 58.3983 37.2285 58.5184 36.5H60.0112C60.0835 36.9811 60.4987 37.35 61 37.35C61.5523 37.35 62 36.9023 62 36.35V34.65C62 34.0977 61.5523 33.65 61 33.65C60.4987 33.65 60.0835 34.0189 60.0112 34.5H58.5184C58.3636 33.561 57.9942 32.6942 57.4624 31.9518L58.45 30.9642L58.5929 31.1071C58.9834 31.4976 59.6166 31.4976 60.0071 31.1071C60.3976 30.7166 60.3976 30.0834 60.0071 29.6929L58.3071 27.9929C57.9166 27.6024 57.2834 27.6024 56.8929 27.9929C56.5024 28.3834 56.5024 29.0166 56.8929 29.4071L57.0358 29.55L56.0482 30.5376C55.3058 30.0058 54.439 29.6364 53.5 29.4816V27.9888C53.9811 27.9165 54.35 27.5013 54.35 27C54.35 26.4477 53.9023 26 53.35 26H51.65Z"></path>
  </mask>
  <path d="M51.65 26C51.0977 26 50.65 26.4477 50.65 27C50.65 27.5013 51.0189 27.9165 51.5 27.9888V29.4816C50.561 29.6364 49.6942 30.0058 48.9518 30.5376L47.9642 29.55L48.1071 29.4071C48.4976 29.0166 48.4976 28.3834 48.1071 27.9929C47.7166 27.6024 47.0834 27.6024 46.6929 27.9929L44.9929 29.6929C44.6024 30.0834 44.6024 30.7166 44.9929 31.1071C45.3834 31.4976 46.0166 31.4976 46.4071 31.1071L46.55 30.9642L47.5376 31.9518C47.0058 32.6942 46.6364 33.561 46.4816 34.5H44.9888C44.9165 34.0189 44.5013 33.65 44 33.65C43.4477 33.65 43 34.0977 43 34.65V36.35C43 36.9023 43.4477 37.35 44 37.35C44.5013 37.35 44.9165 36.9811 44.9888 36.5H46.4816C46.6364 37.439 47.0058 38.3058 47.5376 39.0482L46.55 40.0358L46.4071 39.8929C46.0166 39.5024 45.3834 39.5024 44.9929 39.8929C44.6024 40.2834 44.6024 40.9166 44.9929 41.3071L46.6929 43.0071C47.0834 43.3976 47.7166 43.3976 48.1071 43.0071C48.4976 42.6166 48.4976 41.9834 48.1071 41.5929L47.9642 41.45L48.9518 40.4624C49.6942 40.9942 50.561 41.3636 51.5 41.5184V43.0112C51.0189 43.0835 50.65 43.4987 50.65 44C50.65 44.5523 51.0977 45 51.65 45H53.35C53.9023 45 54.35 44.5523 54.35 44C54.35 43.4987 53.9811 43.0835 53.5 43.0112V41.5184C54.6467 41.3293 55.6857 40.8204 56.5221 40.0863L57.8858 41.45L57.7429 41.5929C57.3524 41.9834 57.3524 42.6166 57.7429 43.0071C58.1334 43.3976 58.7666 43.3976 59.1571 43.0071L60.8571 41.3071C61.2476 40.9166 61.2476 40.2834 60.8571 39.8929C60.4666 39.5024 59.8334 39.5024 59.4429 39.8929L59.3 40.0358L57.795 38.5308C58.1491 37.9136 58.3983 37.2285 58.5184 36.5H60.0112C60.0835 36.9811 60.4987 37.35 61 37.35C61.5523 37.35 62 36.9023 62 36.35V34.65C62 34.0977 61.5523 33.65 61 33.65C60.4987 33.65 60.0835 34.0189 60.0112 34.5H58.5184C58.3636 33.561 57.9942 32.6942 57.4624 31.9518L58.45 30.9642L58.5929 31.1071C58.9834 31.4976 59.6166 31.4976 60.0071 31.1071C60.3976 30.7166 60.3976 30.0834 60.0071 29.6929L58.3071 27.9929C57.9166 27.6024 57.2834 27.6024 56.8929 27.9929C56.5024 28.3834 56.5024 29.0166 56.8929 29.4071L57.0358 29.55L56.0482 30.5376C55.3058 30.0058 54.439 29.6364 53.5 29.4816V27.9888C53.9811 27.9165 54.35 27.5013 54.35 27C54.35 26.4477 53.9023 26 53.35 26H51.65Z" fill="#26D9C4"></path>
  <path d="M51.5 27.9888H53.5V26.2672L51.7975 26.0111L51.5 27.9888ZM51.5 29.4816L51.8254 31.4549L53.5 31.1787V29.4816H51.5ZM48.9518 30.5376L47.5376 31.9518L48.7372 33.1515L50.1165 32.1635L48.9518 30.5376ZM47.9642 29.55L46.55 28.1357L45.1357 29.5499L46.55 30.9642L47.9642 29.55ZM48.1071 29.4071L49.5213 30.8214L49.5214 30.8213L48.1071 29.4071ZM48.1071 27.9929L49.5214 26.5787L49.5213 26.5787L48.1071 27.9929ZM46.6929 27.9929L48.1071 29.4071L48.1071 29.4071L46.6929 27.9929ZM44.9929 29.6929L43.5787 28.2787L43.5787 28.2787L44.9929 29.6929ZM46.4071 31.1071L47.8213 32.5213L47.8213 32.5213L46.4071 31.1071ZM46.55 30.9642L47.9642 29.55L46.55 28.1358L45.1358 29.55L46.55 30.9642ZM47.5376 31.9518L49.1635 33.1165L50.1515 31.7372L48.9518 30.5376L47.5376 31.9518ZM46.4816 34.5V36.5H48.1789L48.455 34.8253L46.4816 34.5ZM44.9888 34.5L43.011 34.7972L43.2669 36.5H44.9888V34.5ZM44.9888 36.5V34.5H43.2669L43.011 36.2028L44.9888 36.5ZM46.4816 36.5L48.455 36.1747L48.1789 34.5H46.4816V36.5ZM47.5376 39.0482L48.9518 40.4624L50.1515 39.2628L49.1635 37.8835L47.5376 39.0482ZM46.55 40.0358L45.1358 41.45L46.55 42.8642L47.9642 41.45L46.55 40.0358ZM46.4071 39.8929L47.8213 38.4787L47.8213 38.4787L46.4071 39.8929ZM48.1071 41.5929L49.5213 40.1787L49.5213 40.1787L48.1071 41.5929ZM47.9642 41.45L46.55 40.0358L45.1358 41.45L46.55 42.8642L47.9642 41.45ZM48.9518 40.4624L50.1165 38.8365L48.7372 37.8485L47.5376 39.0482L48.9518 40.4624ZM51.5 41.5184H53.5V39.8211L51.8253 39.545L51.5 41.5184ZM51.5 43.0112L51.7972 44.989L53.5 44.7331V43.0112H51.5ZM53.5 43.0112H51.5V44.7331L53.2028 44.989L53.5 43.0112ZM53.5 41.5184L53.1746 39.5451L51.5 39.8212V41.5184H53.5ZM56.5221 40.0863L57.9363 38.6721L56.6112 37.347L55.2028 38.5832L56.5221 40.0863ZM57.8858 41.45L59.3 42.8642L60.7142 41.45L59.3 40.0358L57.8858 41.45ZM59.1571 43.0071L57.7429 41.5929V41.5929L59.1571 43.0071ZM60.8571 41.3071L62.2713 42.7213V42.7213L60.8571 41.3071ZM59.4429 39.8929L60.8571 41.3071L60.8571 41.3071L59.4429 39.8929ZM59.3 40.0358L57.8858 41.45L59.3 42.8642L60.7142 41.45L59.3 40.0358ZM57.795 38.5308L56.0602 37.5355L55.2987 38.8629L56.3808 39.945L57.795 38.5308ZM58.5184 36.5V34.5H56.8211L56.545 36.1747L58.5184 36.5ZM60.0112 36.5L61.989 36.2028L61.7331 34.5H60.0112V36.5ZM60.0112 34.5V36.5H61.7331L61.989 34.7972L60.0112 34.5ZM58.5184 34.5L56.545 34.8253L56.8211 36.5H58.5184V34.5ZM57.4624 31.9518L56.0482 30.5376L54.8485 31.7372L55.8365 33.1165L57.4624 31.9518ZM58.45 30.9642L59.8642 29.55L58.45 28.1358L57.0358 29.55L58.45 30.9642ZM58.5929 31.1071L57.1787 32.5213L57.1787 32.5213L58.5929 31.1071ZM60.0071 29.6929L61.4213 28.2787L61.4213 28.2787L60.0071 29.6929ZM58.3071 27.9929L56.8928 29.4071L56.8929 29.4071L58.3071 27.9929ZM56.8929 27.9929L55.4786 26.5787L55.4786 26.5787L56.8929 27.9929ZM56.8929 29.4071L55.4786 30.8213L55.4787 30.8214L56.8929 29.4071ZM57.0358 29.55L58.45 30.9642L59.8643 29.5499L58.45 28.1357L57.0358 29.55ZM56.0482 30.5376L54.8835 32.1635L56.2628 33.1515L57.4624 31.9518L56.0482 30.5376ZM53.5 29.4816H51.5V31.1787L53.1746 31.4549L53.5 29.4816ZM53.5 27.9888L53.2025 26.0111L51.5 26.2672V27.9888H53.5ZM51.65 24C49.9931 24 48.65 25.3432 48.65 27H52.65C52.65 27.5523 52.2023 28 51.65 28V24ZM48.65 27C48.65 28.5058 49.7574 29.7492 51.2025 29.9666L51.7975 26.0111C52.2804 26.0837 52.65 26.4968 52.65 27H48.65ZM49.5 27.9888V29.4816H53.5V27.9888H49.5ZM51.1746 27.5082C49.9251 27.7143 48.7725 28.2059 47.7871 28.9117L50.1165 32.1635C50.6159 31.8057 51.1969 31.5586 51.8254 31.4549L51.1746 27.5082ZM50.366 29.1234L49.3784 28.1358L46.55 30.9642L47.5376 31.9518L50.366 29.1234ZM49.3784 30.9643L49.5213 30.8214L46.6929 27.9928L46.55 28.1357L49.3784 30.9643ZM49.5214 30.8213C50.6928 29.6497 50.6928 27.7503 49.5214 26.5787L46.6928 29.407C46.3024 29.0165 46.3024 28.3835 46.6928 27.993L49.5214 30.8213ZM49.5213 26.5787C48.3498 25.4071 46.4502 25.4071 45.2787 26.5787L48.1071 29.4071C47.7166 29.7976 47.0834 29.7976 46.6928 29.4071L49.5213 26.5787ZM45.2787 26.5787L43.5787 28.2787L46.4071 31.1071L48.1071 29.4071L45.2787 26.5787ZM43.5787 28.2787C42.4072 29.4502 42.4071 31.3498 43.5787 32.5213L46.4071 29.6929C46.7977 30.0834 46.7976 30.7166 46.4071 31.1071L43.5787 28.2787ZM43.5787 32.5213C44.7502 33.6929 46.6498 33.6929 47.8213 32.5213L44.9929 29.6929C45.3834 29.3023 46.0166 29.3023 46.4071 29.6929L43.5787 32.5213ZM47.8213 32.5213L47.9642 32.3784L45.1358 29.55L44.9929 29.6929L47.8213 32.5213ZM45.1358 32.3784L46.1234 33.366L48.9518 30.5376L47.9642 29.55L45.1358 32.3784ZM45.9117 30.7871C45.2059 31.7724 44.7142 32.9251 44.5082 34.1747L48.455 34.8253C48.5586 34.1969 48.8057 33.616 49.1635 33.1165L45.9117 30.7871ZM46.4816 32.5H44.9888V36.5H46.4816V32.5ZM46.9666 34.2028C46.7494 32.7573 45.5056 31.65 44 31.65V35.65C43.497 35.65 43.0836 35.2805 43.011 34.7972L46.9666 34.2028ZM44 31.65C42.3431 31.65 41 32.9931 41 34.65H45C45 35.2023 44.5523 35.65 44 35.65V31.65ZM41 34.65V36.35H45V34.65H41ZM41 36.35C41 38.0069 42.3431 39.35 44 39.35V35.35C44.5523 35.35 45 35.7977 45 36.35H41ZM44 39.35C45.5056 39.35 46.7494 38.2427 46.9666 36.7972L43.011 36.2028C43.0836 35.7195 43.497 35.35 44 35.35V39.35ZM44.9888 38.5H46.4816V34.5H44.9888V38.5ZM44.5082 36.8253C44.7142 38.0749 45.2059 39.2276 45.9117 40.2129L49.1635 37.8835C48.8057 37.384 48.5586 36.8031 48.455 36.1747L44.5082 36.8253ZM46.1234 37.634L45.1358 38.6216L47.9642 41.45L48.9518 40.4624L46.1234 37.634ZM47.9642 38.6216L47.8213 38.4787L44.9929 41.3071L45.1358 41.45L47.9642 38.6216ZM47.8213 38.4787C46.6498 37.3071 44.7502 37.3071 43.5787 38.4787L46.4071 41.3071C46.0166 41.6977 45.3834 41.6977 44.9929 41.3071L47.8213 38.4787ZM43.5787 38.4787C42.4071 39.6502 42.4071 41.5498 43.5787 42.7213L46.4071 39.8929C46.7977 40.2834 46.7977 40.9166 46.4071 41.3071L43.5787 38.4787ZM43.5787 42.7213L45.2787 44.4213L48.1071 41.5929L46.4071 39.8929L43.5787 42.7213ZM45.2787 44.4213C46.4502 45.5929 48.3498 45.5929 49.5213 44.4213L46.6929 41.5929C47.0834 41.2023 47.7166 41.2023 48.1071 41.5929L45.2787 44.4213ZM49.5213 44.4213C50.6929 43.2498 50.6929 41.3502 49.5213 40.1787L46.6929 43.0071C46.3023 42.6166 46.3023 41.9834 46.6929 41.5929L49.5213 44.4213ZM49.5213 40.1787L49.3784 40.0358L46.55 42.8642L46.6929 43.0071L49.5213 40.1787ZM49.3784 42.8642L50.366 41.8766L47.5376 39.0482L46.55 40.0358L49.3784 42.8642ZM47.7871 42.0883C48.7724 42.7941 49.9251 43.2858 51.1747 43.4918L51.8253 39.545C51.1969 39.4414 50.616 39.1943 50.1165 38.8365L47.7871 42.0883ZM49.5 41.5184V43.0112H53.5V41.5184H49.5ZM51.2028 41.0334C49.7573 41.2506 48.65 42.4944 48.65 44H52.65C52.65 44.503 52.2805 44.9164 51.7972 44.989L51.2028 41.0334ZM48.65 44C48.65 45.6569 49.9931 47 51.65 47V43C52.2023 43 52.65 43.4477 52.65 44H48.65ZM51.65 47H53.35V43H51.65V47ZM53.35 47C55.0069 47 56.35 45.6569 56.35 44H52.35C52.35 43.4477 52.7977 43 53.35 43V47ZM56.35 44C56.35 42.4944 55.2427 41.2506 53.7972 41.0334L53.2028 44.989C52.7195 44.9164 52.35 44.503 52.35 44H56.35ZM55.5 43.0112V41.5184H51.5V43.0112H55.5ZM53.8254 43.4917C55.3516 43.2401 56.7324 42.5628 57.8414 41.5894L55.2028 38.5832C54.639 39.078 53.9418 39.4185 53.1746 39.5451L53.8254 43.4917ZM55.1079 41.5005L56.4716 42.8642L59.3 40.0358L57.9363 38.6721L55.1079 41.5005ZM56.4716 40.0358L56.3287 40.1787L59.1571 43.0071L59.3 42.8642L56.4716 40.0358ZM56.3287 40.1787C55.1571 41.3502 55.1571 43.2498 56.3287 44.4213L59.1571 41.5929C59.5477 41.9834 59.5477 42.6166 59.1571 43.0071L56.3287 40.1787ZM56.3287 44.4213C57.5002 45.5929 59.3998 45.5929 60.5713 44.4213L57.7429 41.5929C58.1334 41.2023 58.7666 41.2023 59.1571 41.5929L56.3287 44.4213ZM60.5713 44.4213L62.2713 42.7213L59.4429 39.8929L57.7429 41.5929L60.5713 44.4213ZM62.2713 42.7213C63.4429 41.5498 63.4429 39.6502 62.2713 38.4787L59.4429 41.3071C59.0523 40.9166 59.0523 40.2834 59.4429 39.8929L62.2713 42.7213ZM62.2713 38.4787C61.0998 37.3071 59.2002 37.3071 58.0287 38.4787L60.8571 41.3071C60.4666 41.6977 59.8334 41.6977 59.4429 41.3071L62.2713 38.4787ZM58.0287 38.4787L57.8858 38.6216L60.7142 41.45L60.8571 41.3071L58.0287 38.4787ZM60.7142 38.6216L59.2092 37.1166L56.3808 39.945L57.8858 41.45L60.7142 38.6216ZM59.5298 39.5261C60.0004 38.7057 60.332 37.7943 60.4918 36.8253L56.545 36.1747C56.4646 36.6627 56.2978 37.1215 56.0602 37.5355L59.5298 39.5261ZM58.5184 38.5H60.0112V34.5H58.5184V38.5ZM58.0334 36.7972C58.2506 38.2427 59.4944 39.35 61 39.35V35.35C61.503 35.35 61.9164 35.7195 61.989 36.2028L58.0334 36.7972ZM61 39.35C62.6569 39.35 64 38.0069 64 36.35H60C60 35.7977 60.4477 35.35 61 35.35V39.35ZM64 36.35V34.65H60V36.35H64ZM64 34.65C64 32.9931 62.6569 31.65 61 31.65V35.65C60.4477 35.65 60 35.2023 60 34.65H64ZM61 31.65C59.4944 31.65 58.2506 32.7573 58.0334 34.2028L61.989 34.7972C61.9164 35.2805 61.503 35.65 61 35.65V31.65ZM60.0112 32.5H58.5184V36.5H60.0112V32.5ZM60.4918 34.1747C60.2858 32.9251 59.7941 31.7724 59.0883 30.7871L55.8365 33.1165C56.1943 33.616 56.4414 34.1969 56.545 34.8253L60.4918 34.1747ZM58.8766 33.366L59.8642 32.3784L57.0358 29.55L56.0482 30.5376L58.8766 33.366ZM57.0358 32.3784L57.1787 32.5213L60.0071 29.6929L59.8642 29.55L57.0358 32.3784ZM57.1787 32.5213C58.3502 33.6929 60.2498 33.6929 61.4213 32.5213L58.5929 29.6929C58.9834 29.3023 59.6166 29.3023 60.0071 29.6929L57.1787 32.5213ZM61.4213 32.5213C62.5929 31.3498 62.5928 29.4502 61.4213 28.2787L58.5929 31.1071C58.2024 30.7166 58.2023 30.0834 58.5929 29.6929L61.4213 32.5213ZM61.4213 28.2787L59.7213 26.5787L56.8929 29.4071L58.5929 31.1071L61.4213 28.2787ZM59.7213 26.5787C58.5498 25.4071 56.6502 25.4071 55.4786 26.5787L58.3071 29.4071C57.9166 29.7976 57.2834 29.7976 56.8928 29.4071L59.7213 26.5787ZM55.4786 26.5787C54.3072 27.7503 54.3072 29.6497 55.4786 30.8213L58.3072 27.993C58.6976 28.3835 58.6976 29.0165 58.3072 29.407L55.4786 26.5787ZM55.4787 30.8214L55.6216 30.9643L58.45 28.1357L58.3071 27.9928L55.4787 30.8214ZM55.6216 28.1358L54.634 29.1234L57.4624 31.9518L58.45 30.9642L55.6216 28.1358ZM57.2129 28.9117C56.2275 28.2059 55.0749 27.7143 53.8254 27.5082L53.1746 31.4549C53.8031 31.5586 54.3841 31.8057 54.8835 32.1635L57.2129 28.9117ZM55.5 29.4816V27.9888H51.5V29.4816H55.5ZM53.7975 29.9666C55.2426 29.7492 56.35 28.5057 56.35 27H52.35C52.35 26.4969 52.7196 26.0837 53.2025 26.0111L53.7975 29.9666ZM56.35 27C56.35 25.3432 55.0069 24 53.35 24V28C52.7977 28 52.35 27.5523 52.35 27H56.35ZM53.35 24H51.65V28H53.35V24Z" fill="#333333" mask="url(#path-3-inside-1_11076_52168)"></path>
</svg>
