<?xml version="1.0" encoding="UTF-8"?>
<svg xmlns="http://www.w3.org/2000/svg" width="170" height="170" viewBox="0 0 170 170" fill="none">
  <rect width="170" height="170" rx="85" fill="white"></rect>
  <path d="M101.765 112.773C97.8192 116.993 93.5096 120.626 88.4591 123.607L85.632 125.308L82.7741 123.607C76.0214 119.591 70.129 114.37 65.412 108.233C64.3903 106.909 63.4223 105.541 62.5081 104.136C56.2777 94.5002 52.9743 83.3782 52.982 72.0343V58.4202C54.3264 58.6198 55.6862 58.7234 57.046 58.7382C67.5938 58.7086 77.2505 53.0292 82.075 44H90.6409C95.4654 53.0292 105.122 58.716 115.67 58.7382C116.546 58.7382 117.414 58.6864 118.282 58.5976V72.0343" stroke="#333333" stroke-width="3" stroke-miterlimit="10" stroke-linecap="round"></path>
  <path d="M126.733 92.4361V75.4277H109.063V92.4361H92.162V109.445H109.063V125.713H126.733V109.445H144.402V92.4361H126.733Z" fill="#26D9C4"></path>
</svg>
