<?xml version="1.0" encoding="UTF-8"?>
<svg xmlns="http://www.w3.org/2000/svg" width="120" height="120" viewBox="0 0 120 120" fill="none">
  <rect width="120" height="120" rx="60" fill="#F1F2EA"></rect>
  <path d="M47.668 46.7802C55.4457 46.7802 73.7513 41.7527 74.3346 62.8913C60.4458 62.8913 48.7791 66.2245 47.668 46.7802Z" fill="#D1F259"></path>
  <path d="M74.5556 69.1423C74.5325 76.6682 68.4348 82.7554 60.9436 82.7322H47.116L38.7625 91.2249V82.5311C32.9881 80.8681 29 75.5621 29 69.5213V60.4098C29 52.8839 35.0746 46.7812 42.5658 46.7812H44.5M74.5556 69.1423C74.5556 69.1268 74.5556 69.1114 74.5556 69.1036M74.5556 69.1423V67.5027" stroke="#231F20" stroke-width="1.5" stroke-linecap="round" stroke-linejoin="round"></path>
  <path d="M48.25 46.7781H60.8589C68.0344 46.7008 74.032 52.2466 74.5479 59.4399V63.2495" stroke="#231F20" stroke-width="1.5" stroke-linejoin="round"></path>
  <path d="M48.0349 40.6408C48.0349 40.6229 48.0356 40.6051 48.0369 40.5873C48.5436 33.5779 54.4334 28.1775 61.4762 28.2507H78.4268C85.7816 28.2507 91.75 34.1946 91.75 41.5302V49.9069C91.75 55.6072 88.0789 60.6336 82.7019 62.4207V69.8602C82.7019 70.1641 82.5185 70.438 82.2374 70.5537C81.9564 70.6695 81.6333 70.6041 81.4193 70.3883L73.8971 62.8024L61.3961 62.8024C61.3957 62.8024 61.3952 62.8024 61.3948 62.8024C54.0406 62.8243 48.0505 56.8961 48.0278 49.5608V49.5585V49.5584V49.5583V49.5582V49.5581V49.5581V49.558V49.5579V49.5578V49.5577V49.5576V49.5576V49.5575V49.5574V49.5573V49.5572V49.5571V49.5571V49.557V49.5569V49.5568V49.5567V49.5566V49.5566V49.5565V49.5564V49.5563V49.5562V49.5561V49.5561V49.556V49.5559V49.5558V49.5557V49.5556V49.5556V49.5555V49.5554V49.5553V49.5552V49.5551V49.5551V49.555V49.5549V49.5548V49.5547V49.5547V49.5546V49.5545V49.5544V49.5543V49.5542V49.5542V49.5541V49.554V49.5539V49.5538V49.5537V49.5537V49.5536V49.5535V49.5534V49.5533V49.5532V49.5532V49.5531V49.553V49.5529V49.5528V49.5527V49.5527V49.5526V49.5525V49.5524V49.5523V49.5523V49.5522V49.5521V49.552V49.5519V49.5518V49.5518V49.5517V49.5516V49.5515V49.5514V49.5513V49.5513V49.5512V49.5511V49.551V49.5509V49.5509V49.5508V49.5507V49.5506V49.5505V49.5504V49.5504V49.5503V49.5502V49.5501V49.55V49.55V49.5499V49.5498V49.5497V49.5496V49.5495V49.5495V49.5494V49.5493V49.5492V49.5491V49.5491V49.549V49.5489V49.5488V49.5487V49.5487V49.5486V49.5485V49.5484V49.5483V49.5482V49.5482V49.5481V49.548V49.5479V49.5478V49.5478V49.5477V49.5476V49.5475V49.5474V49.5474V49.5473V49.5472V49.5471V49.547V49.547V49.5469V49.5468V49.5467V49.5466V49.5466V49.5465V49.5464V49.5463V49.5462V49.5462V49.5461V49.546V49.5459V49.5458V49.5458V49.5457V49.5456V49.5455V49.5454V49.5454V49.5453V49.5452V49.5451V49.545V49.545V49.5449V49.5448V49.5447V49.5447V49.5446V49.5445V49.5444V49.5443V49.5443V49.5442V49.5441V49.544V49.5439V49.5439V49.5438V49.5437V49.5436V49.5436V49.5435V49.5434V49.5433V49.5432V49.5432V49.5431V49.543V49.5429V49.5429V49.5428V49.5427V49.5426V49.5425V49.5425V49.5424V49.5423V49.5422V49.5422V49.5421V49.542V49.5419V49.5419V49.5418V49.5417V49.5416V49.5415V49.5415V49.5414V49.5413V49.5412V49.5412V49.5411V49.541V49.5409V49.5409V49.5408V49.5407V49.5406V49.5406V49.5405V49.5404V49.5403V49.5403V49.5402V49.5401V49.54V49.54V49.5399V49.5398V49.5397V49.5397V49.5396V49.5395V49.5394V49.5394V49.5393V49.5392V49.5391V49.5391V49.539V49.5389V49.5388V49.5388V49.5387V49.5386V49.5385V49.5385V49.5384V49.5383V49.5383V49.5382V49.5381V49.538V49.538V49.5379V49.5378V49.5377V49.5377V49.5376V49.5375V49.5375V49.5374V49.5373V49.5372V49.5372V49.5371V49.537V49.5369V49.5369V49.5368V49.5367V49.5367V49.5366V49.5365V49.5365V49.5364V49.5363V49.5362V49.5362V49.5361V49.536V49.536V49.5359V49.5358V49.5357V49.5357V49.5356V49.5355V49.5355V49.5354V49.5353V49.5353V49.5352V49.5351V49.535V49.535V49.5349V49.5348V49.5348V49.5347V49.5346V49.5346V49.5345V49.5344V49.5344V49.5343V49.5342V49.5342V49.5341V49.534V49.534V49.5339V49.5338V49.5338V49.5337V49.5336V49.5335V49.5335V49.5334V49.5333V49.5333V49.5332V49.5331V49.5331V49.533V49.5329V49.5329V49.5328V49.5328V49.5327V49.5326V49.5326V49.5325V49.5324V49.5324V49.5323V49.5322V49.5322V49.5321V49.532V49.532V49.5319V49.5318V49.5318V49.5317V49.5316V49.5316V49.5315V49.5315V49.5314V49.5313V49.5313V49.5312V49.5311V49.5311V49.531V49.531V49.5309V49.5308V49.5308V49.5307V49.5306V49.5306V49.5305V49.5305V49.5304V49.5303V49.5303V49.5302V49.5301V49.5301V49.53V49.53V49.5299V49.5298V49.5298V49.5297V49.5297V49.5296V49.5295V49.5295V49.5294V49.5294V49.5293V49.5292V49.5292V49.5291V49.5291V49.529V49.5289V49.5289V49.5288V49.5288V49.5287V49.5287V49.5286V49.5285V49.5285V49.5284V49.5284V49.5283V49.5282V49.5282V49.5281V49.5281V49.528V49.528V49.5279V49.5278V49.5278V49.5277V49.5277V49.5276V49.5276V49.5275V49.5275V49.5274V49.5273V49.5273V49.5272V49.5272V49.5271V49.5271V49.527V49.527V49.5269V49.5269V49.5268V49.5267V49.5267V49.5266V49.5266V49.5265V49.5265V49.5264V49.5264V49.5263V49.5263V49.5262V49.5262V49.5261V49.5261V49.526V49.526V49.5259V49.5259V49.5258V49.5258V49.5257V49.5257V49.5256V49.5256V49.5255V49.5255V49.5254V49.5254V49.5253V49.5253V49.5252V49.5252V49.5251V49.5251V49.525V49.525V49.5249V49.5249V49.5248V49.5248V49.5247V49.5247V49.5246V49.5246V49.5245V49.5245V49.5244V49.5244V49.5243V49.5243V49.5242V49.5242V49.5242V49.5241V49.5241V49.524V49.524V49.5239V49.5239V49.5238V49.5238V49.5237V49.5237V49.5237V49.5236V49.5236V49.5235V49.5235V49.5234V49.5234V49.5233V49.5233V49.5233V49.5232V49.5232V49.5231V49.5231V49.523V49.523V49.523V49.5229V49.5223L48.0349 40.6408Z" stroke="#231F20" stroke-width="1.5" stroke-linejoin="round"></path>
</svg>
