<?xml version="1.0" encoding="UTF-8"?>
<svg xmlns="http://www.w3.org/2000/svg" width="170" height="170" viewBox="0 0 170 170" fill="none">
  <rect width="170" height="170" rx="85" fill="white"></rect>
  <path d="M94.6105 56.3707L94.6159 56.4455V67.9043V67.9043V67.9044V67.9044V67.9045V67.9046V67.9046V67.9047V67.9047V67.9048V67.9048V67.9049V67.9049V67.905V67.9051V67.9051V67.9052V67.9052V67.9053V67.9054V67.9054V67.9055V67.9055V67.9056V67.9056V67.9057V67.9058V67.9058V67.9059V67.906V67.906V67.9061V67.9061V67.9062V67.9063V67.9063V67.9064V67.9064V67.9065V67.9066V67.9066V67.9067V67.9068V67.9068V67.9069V67.9069V67.907V67.9071V67.9071V67.9072V67.9073V67.9073V67.9074V67.9075V67.9075V67.9076V67.9077V67.9077V67.9078V67.9079V67.9079V67.908V67.9081V67.9081V67.9082V67.9083V67.9083V67.9084V67.9085V67.9085V67.9086V67.9087V67.9087V67.9088V67.9089V67.9089V67.909V67.9091V67.9092V67.9092V67.9093V67.9094V67.9094V67.9095V67.9096V67.9096V67.9097V67.9098V67.9099V67.9099V67.91V67.9101V67.9102V67.9102V67.9103V67.9104V67.9104V67.9105V67.9106V67.9107V67.9107V67.9108V67.9109V67.911V67.911V67.9111V67.9112V67.9113V67.9113V67.9114V67.9115V67.9116V67.9116V67.9117V67.9118V67.9119V67.9119V67.912V67.9121V67.9122V67.9122V67.9123V67.9124V67.9125V67.9126V67.9126V67.9127V67.9128V67.9129V67.913V67.913V67.9131V67.9132V67.9133V67.9133V67.9134V67.9135V67.9136V67.9137V67.9137V67.9138V67.9139V67.914V67.9141V67.9141V67.9142V67.9143V67.9144V67.9145V67.9146V67.9146V67.9147V67.9148V67.9149V67.915V67.915V67.9151V67.9152V67.9153V67.9154V67.9155V67.9155V67.9156V67.9157V67.9158V67.9159V67.916V67.9161V67.9161V67.9162V67.9163V67.9164V67.9165V67.9166V67.9166V67.9167V67.9168V67.9169V67.917V67.9171V67.9172V67.9172V67.9173V67.9174V67.9175V67.9176V67.9177V67.9178V67.9179V67.9179V67.918V67.9181V67.9182V67.9183V67.9184V67.9185V67.9186V67.9186V67.9187V67.9188V67.9189V67.919V67.9191V67.9192V67.9193V67.9194V67.9195V67.9195V67.9196V67.9197V67.9198V67.9199V67.92V67.9201V67.9202V67.9203V67.9204V67.9204V67.9205V67.9206V67.9207V67.9208V67.9209V67.921V67.9211V67.9212V67.9213V67.9214V67.9215V67.9215V67.9216V67.9217V67.9218V67.9219V67.922V67.9221V67.9222V67.9223V67.9224V67.9225V67.9226V67.9227V67.9228V67.9229V67.9229V67.923V67.9231V67.9232V67.9233V67.9234V67.9235V67.9236V67.9237V67.9238V67.9239V67.924V67.9241V67.9242V67.9243V67.9244V67.9245V67.9246V67.9247V67.9248V67.9249V67.925V67.925V67.9251V67.9252V67.9253V67.9254V67.9255V67.9256V67.9257V67.9258V67.9259V67.926V67.9261V67.9262V67.9263V67.9264V67.9265V67.9266V67.9267V67.9268V67.9269V67.927V67.9271V67.9272V67.9273V67.9274V67.9275V67.9276V67.9277V67.9278V67.9279V67.928V67.9281V67.9282V67.9283V67.9284V67.9285V67.9286V67.9287V67.9288V67.9289V67.929V67.9291V67.9292V67.9293V67.9294V67.9295V67.9296V67.9297V67.9298V67.9299V67.93V67.9301V67.9302V67.9303V67.9304V67.9305V67.9306V67.9307V67.9308V67.9309V67.931V67.9311V67.9312V67.9313V67.9314V67.9315V67.9316V67.9317V67.9318V67.9319V67.932V67.9321V67.9322V67.9324V67.9325V67.9326V67.9327V67.9328V67.9329V67.933V67.9331V67.9332V67.9333V67.9334V67.9335V67.9336V67.9337V67.9338V67.9339V67.934V67.9341V67.9342V67.9343V67.9344V67.9345V67.9346V67.9347V67.9348V67.9349V67.9351V67.9352V67.9353V67.9354V67.9355V67.9356V67.9357V67.9358V67.9359V67.936V67.9361V67.9362V67.9363V67.9364V67.9365V67.9366V67.9367V67.9368V67.9369V67.9371V67.9372V67.9373V67.9374V67.9375V67.9376V67.9377V67.9378V67.9379V67.938V67.9381V67.9382V67.9383V67.9384V67.9385V67.9386V67.9388V67.9389V67.939V67.9391V67.9392V67.9393V67.9394V67.9395V67.9396V67.9397V67.9398V67.9399V67.94V67.9401V67.9402V67.9404V67.9405V67.9406V67.9407V67.9408V67.9409V67.941V67.9411V67.9412V67.9413V67.9414V67.9415V67.9416V67.9418V67.9419V67.942V67.9421V67.9422V67.9423V67.9424V67.9425V67.9426V67.9427V67.9428V67.9429V67.9431V67.9432V67.9433V67.9434V67.9435V67.9436V67.9437V67.9438V67.9439V67.944V67.9441V67.9442V67.9443V67.9445V67.9446V67.9447V67.9448V67.9449V67.945V67.9451V67.9452V67.9453V67.9454V67.9455V67.9457V67.9458V67.9459V67.946V67.9461V67.9462V67.9463V67.9464V67.9465V67.9466V67.9467V67.9469V67.947V67.9471V67.9472V67.9473V67.9474V67.9475V67.9476V67.9477V67.9478V67.9479V67.948V67.9482V67.9483V67.9484V67.9485V67.9486C94.5889 76.1651 87.7762 82.8552 79.353 82.8297H79.3485H62.3155H61.6965L61.2577 83.2662L53.5255 90.9574V84.0873V82.9515L52.4323 82.6435C45.9505 80.8171 41.5 75.0004 41.5 68.4077V57.4263C41.5 49.2087 48.2867 42.501 56.7105 42.501H79.2442H79.2521L79.26 42.5009C87.3291 42.4158 94.0345 48.513 94.6105 56.3707Z" fill="#26D9C4" stroke="#333333" stroke-width="3"></path>
  <path d="M72.5217 129V125.174" stroke="#333333" stroke-width="3" stroke-linecap="round" stroke-linejoin="round"></path>
  <path d="M84.6377 129V113.695" stroke="#333333" stroke-width="3" stroke-linecap="round" stroke-linejoin="round"></path>
  <path d="M96.7536 128.999V102.217" stroke="#333333" stroke-width="3" stroke-linecap="round" stroke-linejoin="round"></path>
  <path d="M108.87 128.999V90.7383" stroke="#333333" stroke-width="3" stroke-linecap="round" stroke-linejoin="round"></path>
  <path d="M120.986 79.2617V129.001" stroke="#333333" stroke-width="3" stroke-linecap="round" stroke-linejoin="round"></path>
  <path d="M55.6409 129L123.235 61.4062" stroke="#333333" stroke-width="3" stroke-linecap="round" stroke-linejoin="round"></path>
  <path d="M116.413 54.9062H129.435V68.133" stroke="#333333" stroke-width="3" stroke-linecap="round" stroke-linejoin="round"></path>
  <path d="M60.285 57.5174H64.697C67.9406 57.5174 70.0559 53.5218 70.9222 50.6242C71.5871 48.4577 72.0328 47.6699 73.02 47.6699C75.7397 47.6699 76.4045 49.797 76.4045 51.2741C76.4045 53.3814 74.3899 57.5174 74.3899 57.5174H82.3678C83.6572 57.5174 84.2011 58.6597 84.4051 59.6641C84.6066 60.6882 84.3422 61.6139 83.496 62.2638C84.1407 63.0122 84.244 64.1324 84.0601 65.0802C83.8788 66.0452 83.2543 66.5376 82.3678 67.03C83.214 68.4062 82.7506 70.26 81.3202 71.0871C81.8239 71.7371 81.9649 72.8178 81.7257 73.5884C81.4814 74.3368 80.7964 75.2428 79.57 75.2428H68.8723C67.5024 75.2428 66.1324 74.9473 64.9035 74.3565L64.5006 74.1595C63.2717 73.5687 61.9017 73.2733 60.5318 73.2733H60.29" fill="white"></path>
  <path d="M60.285 57.5174H64.697C67.9406 57.5174 70.0559 53.5218 70.9222 50.6242C71.5871 48.4577 72.0328 47.6699 73.02 47.6699C75.7397 47.6699 76.4045 49.797 76.4045 51.2741C76.4045 53.3814 74.3899 57.5174 74.3899 57.5174H82.3678C83.6572 57.5174 84.2011 58.6597 84.4051 59.6641C84.6066 60.6882 84.3422 61.6139 83.496 62.2638C84.1407 63.0122 84.244 64.1324 84.0601 65.0802C83.8788 66.0452 83.2543 66.5376 82.3678 67.03C83.214 68.4062 82.7506 70.26 81.3202 71.0871C81.8239 71.7371 81.9649 72.8178 81.7257 73.5884C81.4814 74.3368 80.7964 75.2428 79.57 75.2428H68.8723C67.5024 75.2428 66.1324 74.9473 64.9035 74.3565L64.5006 74.1595C63.2717 73.5687 61.9017 73.2733 60.5318 73.2733H60.29" stroke="#333333" stroke-width="3" stroke-linecap="round" stroke-linejoin="round"></path>
  <path d="M60.2853 57.6168V57.5183C60.2274 56.4154 59.22 55.5488 57.9886 55.5488H54.526C53.2542 55.5488 52.2293 56.4769 52.2293 57.6168V73.1758C52.2293 74.3156 53.2567 75.2437 54.526 75.2437H57.9886C59.22 75.2437 60.2274 74.3771 60.2853 73.2742V57.6168Z" fill="white" stroke="#333333" stroke-width="3" stroke-linecap="round" stroke-linejoin="round"></path>
</svg>
