<?xml version="1.0" encoding="UTF-8"?>
<svg xmlns="http://www.w3.org/2000/svg" width="120" height="120" viewBox="0 0 120 120" fill="none">
  <rect width="120" height="120" rx="60" fill="#F1F2EA"></rect>
  <path d="M37.8101 83.0519C37.2619 82.1251 36.1524 81.7466 35.1996 81.7466C32.3149 81.7466 29.9785 84.083 29.9785 86.9676V50.4203C29.9785 47.5356 32.3149 45.1992 35.1996 45.1992C36.1524 45.1992 37.3663 45.4211 37.8101 46.5045V83.0519Z" stroke="#231F20" stroke-width="1.5" stroke-linejoin="round"></path>
  <path d="M87 50.4219H90.0206V92.1903H35.1996C32.3149 92.1903 29.9785 89.8539 29.9785 86.9692" stroke="#231F20" stroke-width="1.5" stroke-linecap="round" stroke-linejoin="round"></path>
  <path d="M37.8105 50.4219H58.5" stroke="#231F20" stroke-width="1.5" stroke-linecap="round" stroke-linejoin="round"></path>
  <path d="M72.5 68.6935L51.516 68.6935C49.7148 68.6935 48.2529 70.1554 48.2529 71.9566C48.2529 76.525 56.0845 73.9145 56.0845 78.4829C56.0845 80.2842 54.6226 81.7461 52.8213 81.7461H41.7266" stroke="#231F20" stroke-width="1.5" stroke-linecap="round" stroke-linejoin="round"></path>
  <path d="M72.7479 64.8482C79.5 56.3203 85.8006 51.0907 85.8006 41.3534C85.8006 34.5269 79.5614 28.3008 72.7479 28.3008C65.9345 28.3008 59.6953 34.5269 59.6953 41.3534C59.6953 51.0907 65.5 55.8203 72.7479 64.8482Z" fill="#D1F259" stroke="#231F20" stroke-width="1.5" stroke-linejoin="round"></path>
  <path d="M80.7012 50.3659C80.7012 46.684 77.5147 43.6992 73.5841 43.6992H71.8182C67.8876 43.6992 64.7012 46.684 64.7012 50.3659H80.7012Z" fill="white" stroke="#231F20" stroke-width="1.5" stroke-linecap="round" stroke-linejoin="round"></path>
  <path d="M72.8948 32.8008H72.5179C70.7811 32.8008 69.373 34.3127 69.373 36.1777V38.0906C69.373 39.9556 70.7811 41.4674 72.5179 41.4674H72.8948C74.6317 41.4674 76.0397 39.9556 76.0397 38.0906V36.1777C76.0397 34.3127 74.6317 32.8008 72.8948 32.8008Z" fill="white" stroke="#231F20" stroke-width="1.5" stroke-linecap="round" stroke-linejoin="round"></path>
</svg>
