<?xml version="1.0" encoding="UTF-8"?>
<svg xmlns="http://www.w3.org/2000/svg" width="148" height="148" viewBox="0 0 148 148" fill="none">
  <rect width="148" height="148" rx="74" fill="#F1F2EA"></rect>
  <path d="M94.8954 113.83H52.4043L73.6511 74.6631L94.8954 113.83Z" fill="#26D9C4" stroke="#231F20" stroke-width="2" stroke-linecap="round" stroke-linejoin="round"></path>
  <path d="M66.7119 87.4549L78.2736 83.1841" stroke="#231F20" stroke-width="2" stroke-linecap="round" stroke-linejoin="round"></path>
  <path d="M49.0709 113.829H36.3809L52.4042 84.2905L58.4377 96.3376" stroke="#231F20" stroke-width="2" stroke-linecap="round" stroke-linejoin="round"></path>
  <path d="M98.2311 113.829H110.919L94.8952 84.2905L88.4814 95.9573" stroke="#231F20" stroke-width="2" stroke-linecap="round" stroke-linejoin="round"></path>
  <rect x="36" y="73.52" width="1.1409" height="25.0999" rx="0.570451" stroke="#231F20"></rect>
  <rect x="46.6494" y="67.8149" width="1.1409" height="11.0287" rx="0.570451" stroke="#231F20"></rect>
  <rect x="57.2969" y="62.4907" width="1.1409" height="17.8741" rx="0.570451" stroke="#231F20"></rect>
  <rect x="67.9463" y="56.7866" width="1.1409" height="12.1696" rx="0.570451" stroke="#231F20"></rect>
  <rect x="78.5938" y="51.0815" width="1.1409" height="17.8741" rx="0.570451" stroke="#231F20"></rect>
  <rect x="89.2432" y="45.7573" width="1.1409" height="32.3256" rx="0.570451" stroke="#231F20"></rect>
  <rect x="99.8906" y="40.4331" width="1.1409" height="37.6498" rx="0.570451" stroke="#231F20"></rect>
  <rect x="110.54" y="34.729" width="1.1409" height="64.2708" rx="0.570451" stroke="#231F20"></rect>
</svg>
