<?xml version="1.0" encoding="UTF-8"?>
<svg xmlns="http://www.w3.org/2000/svg" width="148" height="148" viewBox="0 0 148 148" fill="none">
  <rect width="148" height="148" rx="74" fill="#F1F2EA"></rect>
  <path d="M64.9487 90.0136C72.6078 88.1468 85.5588 82.6431 94.8027 73.3992C108.096 60.1059 107.275 42.7224 107.275 42.7224C107.275 42.7224 89.8915 41.9015 76.5982 55.1948C67.3543 64.4387 61.8506 77.3896 59.9838 85.0488L64.9487 90.0136Z" stroke="#231F20" stroke-width="2" stroke-linecap="round" stroke-linejoin="round"></path>
  <path d="M93.0518 45.0952L104.901 56.9447" stroke="#231F20" stroke-width="2" stroke-linecap="round" stroke-linejoin="round"></path>
  <path d="M86.9664 62.2439C89.2514 64.5289 92.9613 64.5237 95.2527 62.2323C97.5442 59.9409 97.5493 56.231 95.2643 53.946C92.9793 51.661 89.2694 51.6662 86.978 53.9576C84.6866 56.249 84.6814 59.9589 86.9664 62.2439Z" fill="#26D9C4" stroke="#231F20" stroke-width="2" stroke-linecap="round" stroke-linejoin="round"></path>
  <path d="M88.1651 79.0099L88.1451 93.2955L74.8684 106.572C74.8684 106.572 78.1141 96.5412 70.0545 88.4816" stroke="#231F20" stroke-width="2" stroke-linecap="round" stroke-linejoin="round"></path>
  <path d="M70.9873 61.8316L56.7017 61.8516L43.425 75.1283C43.425 75.1283 53.456 71.8826 61.5156 79.9422" stroke="#231F20" stroke-width="2" stroke-linecap="round" stroke-linejoin="round"></path>
  <path d="M79.8916 69.7119L59.9766 89.627" stroke="#231F20" stroke-width="2" stroke-linecap="round" stroke-linejoin="round"></path>
  <path d="M33.4756 108.172V104.565C33.4756 103.617 34.2458 102.85 35.1969 102.85H53.2615C54.2126 102.85 54.9828 102.083 54.9828 101.135V94.8833" stroke="#231F20" stroke-width="2" stroke-linecap="round" stroke-linejoin="round"></path>
  <path d="M58.6294 97.8044L54.9798 94.1685L51.3301 97.8044" stroke="#231F20" stroke-width="2" stroke-linecap="round" stroke-linejoin="round"></path>
  <circle cx="33.0308" cy="115.969" r="4.03079" fill="#26D9C4" stroke="#231F20" stroke-width="2"></circle>
  <line x1="29.8379" y1="90.4007" x2="36.1312" y2="84.1075" stroke="#231F20" stroke-width="2" stroke-linecap="round"></line>
  <line x1="1" y1="-1" x2="9.90004" y2="-1" transform="matrix(-0.707107 -0.707107 -0.707107 0.707107 36.5459 91.8149)" stroke="#231F20" stroke-width="2" stroke-linecap="round"></line>
  <line x1="51.2441" y1="118.909" x2="57.5374" y2="112.615" stroke="#231F20" stroke-width="2" stroke-linecap="round"></line>
  <line x1="1" y1="-1" x2="9.90004" y2="-1" transform="matrix(-0.707107 -0.707107 -0.707107 0.707107 57.9512 120.323)" stroke="#231F20" stroke-width="2" stroke-linecap="round"></line>
</svg>
