<?xml version="1.0" encoding="UTF-8"?>
<svg xmlns="http://www.w3.org/2000/svg" width="88" height="88" viewBox="0 0 88 88" fill="none">
  <rect width="88" height="88" rx="44" fill="#F1F2EA"></rect>
  <path d="M47.7322 61.9307C47.0424 62.448 44.1764 63.6206 40.1619 63.9241C39.4963 63.9724 38.8203 64 38.1512 64H37.4615C36.7717 64 36.1095 63.9724 35.4439 63.9207C30.3016 63.5379 25.4111 61.541 21.469 58.2162C21.3104 58.0817 21.1518 57.9507 21 57.8162C21.369 51.8565 25.7732 46.9246 31.6536 45.8831L31.8398 45.8486C35.2335 48.9008 40.3827 48.9008 43.7763 45.8486C44.3282 45.9417 45.9491 46.2383 46.6941 46.7556M45.9974 33.6879C45.9595 33.6672 45.9388 33.6223 45.9491 33.581C47.27 27.2799 41.9243 24 38.6375 24C35.3507 24 33.2883 26.735 33.2883 26.735C30.6775 27.0454 29.0014 30.4115 29.6774 33.7913L29.7394 34.1707C29.7463 34.2156 29.7291 34.2569 29.6946 34.2845C29.3497 34.5639 29.06 34.9743 29.3497 36.1262C29.6429 37.3471 30.3844 37.6334 30.8086 37.9438C31.4673 42.3928 34.4058 45.7279 37.934 45.7279C41.4621 45.7279 44.4006 42.379 45.0697 37.93C45.7422 37.5437 46.2112 36.885 46.3561 36.1228C46.7079 34.6674 46.4285 33.9396 45.9974 33.6879Z" stroke="#231F20" stroke-width="2" stroke-miterlimit="10" stroke-linecap="round"></path>
  <g clip-path="url(#clip0_11076_52190)">
    <path d="M48.7803 51.755L48.9834 48.9144C49.0903 47.4385 49.5501 46.0594 50.2807 44.8701" stroke="#231F20" stroke-width="2" stroke-linecap="round" stroke-linejoin="round"></path>
    <path d="M65.4854 44.8701C66.2481 46.1131 66.7292 47.5567 66.8361 49.0935L67.025 51.755" stroke="#231F20" stroke-width="2" stroke-linecap="round" stroke-linejoin="round"></path>
    <path d="M63.7173 53.5355L63.4179 49.3443C63.229 46.6971 61.283 44.4225 58.667 44.0643C55.4415 43.6236 52.6223 46.0094 52.3978 49.1617L52.0877 53.5355C51.9701 55.1832 51.3821 56.763 50.3984 58.0848L49.3398 59.5033H66.4652L65.4067 58.0848C64.4194 56.763 63.8313 55.1832 63.7173 53.5355Z" fill="#26D9C4" stroke="#231F20" stroke-width="2" stroke-linecap="round" stroke-linejoin="round"></path>
    <path d="M59.6155 44.0105H56.1904V42.2875C56.1904 41.3382 56.9567 40.5645 57.9047 40.5645C58.8492 40.5645 59.6191 41.3346 59.6191 42.2875V44.0105H59.6155Z" stroke="#231F20" stroke-width="2" stroke-linecap="round" stroke-linejoin="round"></path>
    <path d="M57.9007 62.9454C56.4822 62.9454 55.3311 61.7883 55.3311 60.3626V59.5029H60.4704V60.3626C60.4704 61.7883 59.3192 62.9454 57.9007 62.9454Z" stroke="#231F20" stroke-width="2" stroke-linecap="round" stroke-linejoin="round"></path>
    <path d="M59.1305 52.2539V49.6875H56.5642V52.2539H54.1094V54.8202H56.5642V57.275H59.1305V54.8202H61.6969V52.2539H59.1305Z" fill="#26D9C4"></path>
  </g>
  <defs>
    <clipPath id="clip0_11076_52190">
      <rect width="19.3137" height="23.4523" fill="white" transform="translate(48.2461 40.0303)"></rect>
    </clipPath>
  </defs>
</svg>
