<?xml version="1.0" encoding="UTF-8"?>
<svg xmlns="http://www.w3.org/2000/svg" width="120" height="120" viewBox="0 0 120 120" fill="none">
  <rect width="120" height="120" rx="60" fill="#F1F2EA"></rect>
  <path d="M50.5 51H41.1035C40.1126 51 39.2711 51.7255 39.1253 52.7056L33.8415 88.2056C33.6616 89.4141 34.5979 90.5 35.8197 90.5H84.6632C85.8909 90.5 86.8287 89.4042 86.6392 88.1912L81.0912 52.6912C80.9391 51.7177 80.1006 51 79.1152 51H69" stroke="#231F20" stroke-width="2" stroke-linecap="round"></path>
  <path d="M68.75 76L62.75 81.25" stroke="#231F20" stroke-width="2" stroke-miterlimit="10" stroke-linecap="round"></path>
  <path d="M62.5 66.25L68.75 71.75" stroke="#231F20" stroke-width="2" stroke-miterlimit="10" stroke-linecap="round"></path>
  <path d="M71.8251 76.5333C70.2371 76.7447 68.7815 75.6512 68.5738 74.0907C68.3661 72.5303 69.485 71.0941 71.073 70.8827C72.661 70.6713 74.1166 71.7649 74.3243 73.3253C74.532 74.8858 73.4131 76.322 71.8251 76.5333Z" fill="#26D9C4" stroke="#231F20" stroke-width="2" stroke-miterlimit="10" stroke-linecap="round"></path>
  <path d="M60.3768 85.5333C58.7888 85.7447 57.3332 84.6512 57.1255 83.0907C56.9178 81.5303 58.0367 80.0941 59.6247 79.8827C61.2128 79.6713 62.6684 80.7649 62.876 82.3253C63.0837 83.8858 61.9649 85.322 60.3768 85.5333Z" fill="#26D9C4" stroke="#231F20" stroke-width="2" stroke-miterlimit="10" stroke-linecap="round"></path>
  <path d="M60.3768 67.5333C58.7888 67.7447 57.3332 66.6512 57.1255 65.0907C56.9178 63.5303 58.0367 62.0941 59.6247 61.8827C61.2128 61.6713 62.6684 62.7649 62.876 64.3253C63.0837 65.8858 61.9649 67.322 60.3768 67.5333Z" fill="#26D9C4" stroke="#231F20" stroke-width="2" stroke-miterlimit="10" stroke-linecap="round"></path>
  <path d="M71.0712 35.4453C71.0712 38.2103 69.5771 42.4371 67.2501 46.9725C65.1501 51.0654 62.4444 55.2719 59.7856 58.6464C57.1268 55.2719 54.4211 51.0654 52.3211 46.9725C49.9941 42.4371 48.5 38.2103 48.5 35.4453C48.5 30.0582 53.441 25.5 59.7856 25.5C66.1302 25.5 71.0712 30.0582 71.0712 35.4453Z" fill="#26D9C4" stroke="#231F20" stroke-width="2" stroke-linejoin="bevel"></path>
  <circle cx="59.9675" cy="34.3796" r="3.46749" fill="white" stroke="#231F20" stroke-width="2"></circle>
</svg>
