<?xml version="1.0" encoding="UTF-8"?>
<svg xmlns="http://www.w3.org/2000/svg" width="120" height="120" viewBox="0 0 120 120" fill="none">
  <rect width="120" height="120" rx="60" fill="#F1F2EA"></rect>
  <path d="M60.1692 79.411H31.9004C30.8504 79.411 30 78.5606 30 77.5106V31.9004C30 30.8504 30.8504 30 31.9004 30H87.0127C88.0627 30 88.9131 30.8504 88.9131 31.9004V63.5754" stroke="#231F20" stroke-width="1.5" stroke-linecap="round" stroke-linejoin="round"></path>
  <path d="M30 39.502H88.9131" stroke="#231F20" stroke-width="1.5" stroke-linecap="round" stroke-linejoin="round"></path>
  <path d="M34.751 34.751H36.6514" stroke="#231F20" stroke-width="1.5" stroke-linejoin="round"></path>
  <path d="M39.502 34.751H41.4024" stroke="#231F20" stroke-width="1.5" stroke-linejoin="round"></path>
  <path d="M44.2529 34.751H46.1534" stroke="#231F20" stroke-width="1.5" stroke-linejoin="round"></path>
  <path d="M75.2326 61.3652C74.8594 61.3652 74.543 61.6396 74.4901 62.009L74.144 64.4269C72.9828 64.7143 71.8707 65.1739 70.8455 65.7905L68.8944 64.3274C68.5958 64.1035 68.178 64.1332 67.9141 64.3971L65.3707 66.9405C65.1068 67.2044 65.0771 67.6222 65.301 67.9208L66.7635 69.871C66.144 70.8965 65.6816 72.009 65.3916 73.1712L62.9828 73.5153C62.6133 73.5681 62.3389 73.8846 62.3389 74.2578V77.8559C62.3389 78.2291 62.6132 78.5455 62.9826 78.5984L65.4005 78.9444C65.6879 80.1056 66.1475 81.2178 66.7641 82.2429L65.301 84.1941C65.0771 84.4927 65.1068 84.9104 65.3707 85.1743L67.9141 87.7178C68.178 87.9817 68.5958 88.0114 68.8944 87.7875L70.8447 86.325C71.8701 86.9444 72.9826 87.4069 74.1449 87.6969L74.489 90.1057C74.5417 90.4752 74.8582 90.7496 75.2314 90.7496H78.8296C79.2027 90.7496 79.5191 90.4753 79.572 90.1059L79.9181 87.6879C81.0793 87.4006 82.1914 86.941 83.2166 86.3244L85.1677 87.7875C85.4663 88.0114 85.8841 87.9817 86.148 87.7178L88.6914 85.1743C88.9553 84.9104 88.985 84.4927 88.7611 84.1941L87.2986 82.2438C87.9181 81.2184 88.3805 80.1059 88.6705 78.9436L91.0793 78.5995C91.4488 78.5467 91.7232 78.2303 91.7232 77.857V74.2589C91.7232 73.8858 91.4489 73.5694 91.0795 73.5165L88.6616 73.1704C88.3742 72.0092 87.9146 70.8971 87.298 69.8719L88.7611 67.9208C88.985 67.6222 88.9553 67.2044 88.6914 66.9405L86.148 64.3971C85.8841 64.1332 85.4663 64.1035 85.1677 64.3274L83.2174 65.7898C82.192 65.1704 81.0795 64.708 79.9173 64.4179L79.5731 62.0092C79.5204 61.6397 79.2039 61.3652 78.8307 61.3652H75.2326Z" fill="#D1F259" stroke="#333333" stroke-width="1.5" stroke-linecap="round" stroke-linejoin="round"></path>
  <path d="M84.3771 76.0577C84.3771 80.1142 81.0878 83.4035 77.0313 83.4035C72.9749 83.4035 69.6855 80.1142 69.6855 76.0577C69.6855 72.0012 72.9749 68.7119 77.0313 68.7119C81.0878 68.7119 84.3771 72.0012 84.3771 76.0577Z" fill="white" stroke="#333333" stroke-width="1.5" stroke-linecap="round" stroke-linejoin="round"></path>
  <path d="M54.9557 50.4257C54.6135 50.5744 54.4326 50.9521 54.5313 51.312L54.9058 52.6773C54.3697 53.1059 53.8904 53.6011 53.4798 54.151L52.1047 53.8239C51.7416 53.7375 51.3702 53.9312 51.2333 54.2784L50.3745 56.4568C50.2376 56.804 50.3768 57.199 50.7012 57.3837L51.9286 58.0824C51.8521 58.7655 51.8631 59.4556 51.9613 60.1359L50.7605 60.875C50.4427 61.0706 50.3171 61.4702 50.4658 61.8125L51.3991 63.9609C51.5478 64.3031 51.9255 64.484 52.2854 64.3853L53.6508 64.0108C54.0793 64.5468 54.5746 65.0262 55.1244 65.4368L54.7973 66.8119C54.7109 67.175 54.9046 67.5464 55.2518 67.6833L57.4302 68.5421C57.7774 68.679 58.1724 68.5398 58.3571 68.2154L59.0559 66.9879C59.7389 67.0645 60.429 67.0535 61.1093 66.9553L61.8484 68.156C62.044 68.4739 62.4436 68.5995 62.7859 68.4508L64.9343 67.5175C65.2765 67.3688 65.4574 66.9911 65.3587 66.6312L64.9842 65.2658C65.5203 64.8373 65.9996 64.342 66.4102 63.7921L67.7853 64.1193C68.1484 64.2057 68.5198 64.012 68.6567 63.6648L69.5155 61.4864C69.6524 61.1392 69.5132 60.7442 69.1888 60.5595L67.9614 59.8607C68.0379 59.1777 68.0269 58.4876 67.9287 57.8073L69.1295 57.0682C69.4473 56.8726 69.5729 56.473 69.4242 56.1307L68.4909 53.9823C68.3422 53.6401 67.9645 53.4592 67.6046 53.5579L66.2392 53.9323C65.8107 53.3963 65.3154 52.917 64.7655 52.5064L65.0927 51.1312C65.1791 50.7682 64.9854 50.3968 64.6382 50.2599L62.4598 49.4011C62.1126 49.2642 61.7176 49.4034 61.5329 49.7278L60.8341 50.9552C60.1511 50.8787 59.461 50.8897 58.7807 50.9879L58.0416 49.7871C57.846 49.4693 57.4464 49.3437 57.1041 49.4924L54.9557 50.4257Z" fill="#D1F259" stroke="#333333" stroke-width="1.5" stroke-linecap="round" stroke-linejoin="round"></path>
  <path d="M64.0914 57.1708C65.0861 59.4602 64.0361 62.1233 61.7467 63.1179C59.4573 64.1126 56.7943 63.0626 55.7996 60.7732C54.805 58.4838 55.8549 55.8208 58.1443 54.8261C60.4338 53.8315 63.0968 54.8814 64.0914 57.1708Z" fill="white" stroke="#333333" stroke-width="1.5" stroke-linecap="round" stroke-linejoin="round"></path>
</svg>
