<?xml version="1.0" encoding="UTF-8"?>
<svg xmlns="http://www.w3.org/2000/svg" width="88" height="88" viewBox="0 0 88 88" fill="none">
  <rect width="88" height="88" rx="44" fill="#F1F2EA"></rect>
  <path fill-rule="evenodd" clip-rule="evenodd" d="M28 26C26.8954 26 26 26.8954 26 28V54C26 55.1046 26.8954 56 28 56H43V60H36V62H52V60H45V56H60C61.1046 56 62 55.1046 62 54V28C62 26.8954 61.1046 26 60 26H28ZM59 54V30H29V54H32V51.3799C32 49.3584 34.4066 46.7582 37.2207 45.6536C37.2282 46.068 37.2675 47.2121 37.3242 47.6659C37.3853 48.1556 37.4686 48.6436 37.5604 49.0446C37.5801 49.1306 37.6005 49.2142 37.6217 49.2944C37.0488 49.6461 36.6667 50.2784 36.6667 51C36.6667 52.1046 37.5621 53 38.6667 53C39.7712 53 40.6667 52.1046 40.6667 51C40.6667 49.984 39.909 49.1449 38.9279 49.0169C38.9061 48.9386 38.8833 48.8483 38.8601 48.747C38.7802 48.3981 38.704 47.9555 38.6472 47.5008C38.5532 46.7468 38.5057 45.9579 38.5631 45.1983C38.8195 45.1247 39.0768 45.0584 39.3333 45C39.592 44.9411 39.7674 45.3904 39.8951 45.7177C39.9342 45.8178 39.9688 45.9065 40 45.9658C41.3055 45.9658 42.6527 45.9743 44 45.9829C45.3473 45.9914 46.6945 46 48 46C48.0383 45.9272 48.0784 45.8228 48.1222 45.7086C48.2524 45.3692 48.4159 44.9429 48.6667 45C49.0242 45.0814 49.383 45.1781 49.7393 45.2886C49.7384 45.5468 49.7431 45.8102 49.7477 46.0768C49.7646 47.0451 49.7823 48.0545 49.5435 49H48.6667C48.4142 49 48.1833 49.1427 48.0704 49.3685L47.4037 50.7019C47.3574 50.7944 47.3333 50.8965 47.3333 51V52.3333C47.3333 52.7015 47.6318 53 48 53H49.3333V51.6667H48.6667V51.1574L49.0787 50.3333H50.9213L51.3333 51.1574V51.6667H50.6667V53H52C52.3682 53 52.6667 52.7015 52.6667 52.3333V51C52.6667 50.8965 52.6426 50.7944 52.5963 50.7019L51.9296 49.3685C51.8167 49.1427 51.5858 49 51.3333 49H50.9095C51.1222 47.9397 51.1355 46.8744 51.1346 45.7983C53.793 46.9215 56 49.4441 56 51.3799V54H59ZM38.6667 51.6765C39.0256 51.6765 39.3333 51.3828 39.3333 51C39.3333 50.6172 39.0256 50.3235 38.6667 50.3235C38.3077 50.3235 38 50.6172 38 51C38 51.3828 38.3077 51.6765 38.6667 51.6765ZM44 29C44.5523 29 45 28.5523 45 28C45 27.4477 44.5523 27 44 27C43.4477 27 43 27.4477 43 28C43 28.5523 43.4477 29 44 29Z" fill="#333333"></path>
  <path d="M49 38C49 40.7614 46.7614 43 44 43C41.2386 43 39 40.7614 39 38C39 35.2386 41.2386 33 44 33C46.7614 33 49 35.2386 49 38Z" fill="#26D9C4" stroke="#333333" stroke-width="2"></path>
</svg>
