<?xml version="1.0" encoding="UTF-8"?>
<svg xmlns="http://www.w3.org/2000/svg" width="170" height="170" viewBox="0 0 170 170" fill="none">
  <rect width="170" height="170" rx="85" fill="white"></rect>
  <path d="M100.258 108.452H123C126.314 108.452 129 105.765 129 102.452V52C129 48.6863 126.314 46 123 46H47C43.6863 46 41 48.6863 41 52V102.452C41 105.765 43.6863 108.452 47 108.452H69.0323" stroke="#333333" stroke-width="3" stroke-linecap="round"></path>
  <path d="M41.3549 59.8574L128.29 59.8574" stroke="#333333" stroke-width="3" stroke-linecap="round" stroke-linejoin="round"></path>
  <path d="M47.9291 52.9297H50.7007" stroke="#333333" stroke-width="3" stroke-linejoin="round"></path>
  <path d="M54.8583 52.9297H57.6299" stroke="#333333" stroke-width="3" stroke-linejoin="round"></path>
  <path d="M61.7875 52.9297H64.5592" stroke="#333333" stroke-width="3" stroke-linejoin="round"></path>
  <path d="M90.5934 124.771C90.5934 124.771 94.9212 110.499 95.9021 108.954L85.6515 90.7344L83.8583 90.7686L73.6451 108.957C75.0528 111.149 78.9539 124.774 78.9539 124.774H90.5896L90.5934 124.771Z" fill="#26D9C4" stroke="#333333" stroke-width="3" stroke-linecap="round" stroke-linejoin="round"></path>
  <path d="M84.7798 92.1289V103.267" stroke="#333333" stroke-width="3" stroke-linecap="round" stroke-linejoin="round"></path>
  <path d="M84.7008 108.293C86.1034 108.293 87.2404 107.168 87.2404 105.78C87.2404 104.392 86.1034 103.268 84.7008 103.268C83.2983 103.268 82.1613 104.392 82.1613 105.78C82.1613 107.168 83.2983 108.293 84.7008 108.293Z" fill="white" stroke="#333333" stroke-width="3" stroke-linecap="round" stroke-linejoin="round"></path>
  <path d="M87.9877 80.2598H82.1613V86.0243H87.9877V80.2598Z" fill="#26D9C4" stroke="#333333" stroke-width="3" stroke-linecap="round" stroke-linejoin="round"></path>
  <path d="M68.9243 67.168H63.0979V72.9325H68.9243V67.168Z" fill="#26D9C4" stroke="#333333" stroke-width="3" stroke-linecap="round" stroke-linejoin="round"></path>
  <path d="M77.5403 83.8761C72.1667 84.6021 68.3859 82.4986 66.316 77.3957" stroke="#333333" stroke-width="3" stroke-linecap="round" stroke-linejoin="round"></path>
</svg>
