<?xml version="1.0" encoding="UTF-8"?>
<svg xmlns="http://www.w3.org/2000/svg" width="148" height="148" viewBox="0 0 148 148" fill="none">
  <rect width="148" height="148" rx="74" fill="#F1F2EA"></rect>
  <g clip-path="url(#clip0_14054_6291)">
    <path d="M74.6143 66.7041V71.5255" stroke="#231F20" stroke-width="2" stroke-miterlimit="10" stroke-linecap="round"></path>
    <path d="M65.4414 68.5781L67.2367 73.0321" stroke="#231F20" stroke-width="2" stroke-miterlimit="10" stroke-linecap="round"></path>
    <path d="M57.6631 73.9131L60.9831 77.3224" stroke="#231F20" stroke-width="2" stroke-miterlimit="10" stroke-linecap="round"></path>
    <path d="M52.4668 81.8975L56.8038 83.7422" stroke="#231F20" stroke-width="2" stroke-miterlimit="10" stroke-linecap="round"></path>
    <path d="M50.6416 91.3164H55.3373" stroke="#231F20" stroke-width="2" stroke-miterlimit="10" stroke-linecap="round"></path>
    <path d="M52.4668 100.736L56.8038 98.8916" stroke="#231F20" stroke-width="2" stroke-miterlimit="10" stroke-linecap="round"></path>
    <path d="M96.7623 100.736L92.4238 98.8916" stroke="#231F20" stroke-width="2" stroke-miterlimit="10" stroke-linecap="round"></path>
    <path d="M98.5863 91.3164H93.8906" stroke="#231F20" stroke-width="2" stroke-miterlimit="10" stroke-linecap="round"></path>
    <path d="M96.7623 81.8975L92.4238 83.7422" stroke="#231F20" stroke-width="2" stroke-miterlimit="10" stroke-linecap="round"></path>
    <path d="M91.5671 73.9131L88.2471 77.3224" stroke="#231F20" stroke-width="2" stroke-miterlimit="10" stroke-linecap="round"></path>
    <path d="M83.788 68.5781L81.9912 73.0321" stroke="#231F20" stroke-width="2" stroke-miterlimit="10" stroke-linecap="round"></path>
    <path d="M89.5 91.4195C89.5 82.9026 82.7838 76 74.5007 76C66.2177 76 59.5 82.9026 59.5 91.4195C59.5 96.4604 61.8562 100.938 65.4956 103.75C67.08 104.973 68.0169 106.899 68.0169 108.936C68.0169 108.936 68.0169 109.214 68.0169 110.01C68.0169 110.806 68.644 111 69.4201 111H79.5814C80.3546 111 80.9831 110.807 80.9831 110.01C80.9831 109.212 80.9831 108.936 80.9831 108.936C80.9831 106.896 81.9185 104.977 83.5044 103.75C87.1453 100.936 89.5 96.4604 89.5 91.4195Z" fill="#26D9C4" stroke="#231F20" stroke-width="2" stroke-miterlimit="10"></path>
    <path d="M71.5 119H78.5" stroke="#231F20" stroke-width="2" stroke-miterlimit="10" stroke-linecap="round"></path>
    <path d="M69.5 115H80.5" stroke="#231F20" stroke-width="2" stroke-miterlimit="10" stroke-linecap="round"></path>
  </g>
  <path d="M96.4997 61.0329L74.5 39.0332L52.5003 61.0329" stroke="#231F20" stroke-width="2" stroke-linecap="round" stroke-linejoin="round" stroke-dasharray="4 4"></path>
  <path d="M84.5325 61.0325L74.5 51L64.4675 61.0325" stroke="#231F20" stroke-width="2" stroke-linecap="round" stroke-linejoin="round" stroke-dasharray="4 4"></path>
  <path d="M110 61.5L74.5 26L39 61.5" stroke="#231F20" stroke-width="2" stroke-linecap="round" stroke-linejoin="round"></path>
  <defs>
    <clipPath id="clip0_14054_6291">
      <rect width="50" height="59" fill="white" transform="translate(49.5 64)"></rect>
    </clipPath>
  </defs>
</svg>
