<?xml version="1.0" encoding="UTF-8"?>
<svg xmlns="http://www.w3.org/2000/svg" width="88" height="88" viewBox="0 0 88 88" fill="none">
  <rect width="88" height="88" rx="44" fill="#F1F2EA"></rect>
  <path d="M63.9994 51.0801V64.0004H48.5156V51.0801" stroke="#231F20" stroke-width="2" stroke-linecap="square" stroke-linejoin="round"></path>
  <path d="M63.9994 46.5576H48.5156V51.0797H63.9994V46.5576Z" fill="#26D9C4" stroke="#231F20" stroke-width="2" stroke-linecap="square" stroke-linejoin="round"></path>
  <path d="M56.2568 51.0801V64.0004" stroke="#231F20" stroke-width="2" stroke-linecap="square" stroke-linejoin="round"></path>
  <path d="M39.4838 51.0801V64.0004H24V51.0801" stroke="#231F20" stroke-width="2" stroke-linecap="square" stroke-linejoin="round"></path>
  <path d="M39.4838 46.5576H24V51.0797H39.4838V46.5576Z" fill="#26D9C4" stroke="#231F20" stroke-width="2" stroke-linecap="square" stroke-linejoin="round"></path>
  <path d="M31.7412 51.0801V64.0004" stroke="#231F20" stroke-width="2" stroke-linecap="square" stroke-linejoin="round"></path>
  <path d="M56.904 28.5225V37.5667H31.0977V28.5225" stroke="#231F20" stroke-width="2" stroke-linecap="square" stroke-linejoin="round"></path>
  <path d="M56.904 24H31.0977V28.5221H56.904V24Z" fill="#26D9C4" stroke="#231F20" stroke-width="2" stroke-linecap="square" stroke-linejoin="round"></path>
  <path d="M39.4844 28.5225V37.5667" stroke="#231F20" stroke-width="2" stroke-linecap="square" stroke-linejoin="round"></path>
  <path d="M48.5176 28.5225V37.5667" stroke="#231F20" stroke-width="2" stroke-linecap="square" stroke-linejoin="round"></path>
  <path d="M39.4297 37.4043V41.9811H31.7321V46.4199" stroke="#231F20" stroke-width="2" stroke-linecap="square" stroke-linejoin="round"></path>
  <path d="M56.2148 46.4192L56.2148 42.6342H48.5705V38.0322" stroke="#231F20" stroke-width="2" stroke-linecap="square" stroke-linejoin="round"></path>
</svg>
