<?xml version="1.0" encoding="UTF-8"?>
<svg xmlns="http://www.w3.org/2000/svg" width="120" height="120" viewBox="0 0 120 120" fill="none">
  <rect width="120" height="120" rx="60" fill="#F1F2EA"></rect>
  <path d="M88.3766 89.5C90.0634 85.6764 91 81.4476 91 77C91 59.8792 77.1208 46 60 46C42.8792 46 29 59.8792 29 77C29 81.4476 29.9366 85.6764 31.6234 89.5" stroke="#231F20" stroke-width="1.5" stroke-linecap="round"></path>
  <path d="M71.7728 96.1847C71.7728 90.4002 67.0835 85.7109 61.2991 85.7109H58.7003C52.9158 85.7109 48.2266 90.4002 48.2266 96.1847H71.7728Z" stroke="#231F20" stroke-width="1.5" stroke-linecap="round" stroke-linejoin="round"></path>
  <path d="M60.3009 70H59.6989C56.9247 70 54.6758 72.2489 54.6758 75.0231V77.8686C54.6758 80.6428 56.9247 82.8917 59.6989 82.8917H60.3009C63.0751 82.8917 65.324 80.6428 65.324 77.8686V75.0231C65.324 72.2489 63.0751 70 60.3009 70Z" stroke="#231F20" stroke-width="1.5" stroke-linecap="round" stroke-linejoin="round"></path>
  <path d="M49.3442 84.8111C48.0328 84.0283 46.4988 83.5781 44.8598 83.5781H42.6859C37.8474 83.5781 33.9258 87.4998 33.9258 92.3383H45.391" stroke="#231F20" stroke-width="1.5" stroke-linecap="round" stroke-linejoin="round"></path>
  <path d="M43.5195 69.7617H44.0241C46.3421 69.7617 48.2252 71.6435 48.2252 73.9628V76.3442C48.2252 78.6622 46.3434 80.5453 44.0241 80.5453H43.5195C41.2014 80.5453 39.3184 78.6635 39.3184 76.3442V73.9628C39.3184 71.6448 41.2001 69.7617 43.5195 69.7617Z" stroke="#231F20" stroke-width="1.5" stroke-linecap="round" stroke-linejoin="round"></path>
  <path d="M70.6543 84.8111C71.9657 84.0283 73.4997 83.5781 75.1387 83.5781H77.3126C82.1511 83.5781 86.0727 87.4998 86.0727 92.3383H74.6075" stroke="#231F20" stroke-width="1.5" stroke-linecap="round" stroke-linejoin="round"></path>
  <path d="M75.9759 80.5469H76.4805C78.8007 80.5469 80.6816 78.666 80.6816 76.3458V73.9657C80.6816 71.6455 78.8007 69.7646 76.4805 69.7646H75.9759C73.6557 69.7646 71.7748 71.6455 71.7748 73.9657V76.3458C71.7748 78.666 73.6557 80.5469 75.9759 80.5469Z" stroke="#231F20" stroke-width="1.5" stroke-linecap="round" stroke-linejoin="round"></path>
  <circle cx="60" cy="42" r="20.25" fill="#D1F259" stroke="#231F20" stroke-width="1.5"></circle>
  <path d="M72 55C72 49.4772 67.2204 45 61.3245 45H58.6755C52.7796 45 48 49.4772 48 55H72Z" fill="white" stroke="#231F20" stroke-width="1.5" stroke-linecap="round" stroke-linejoin="round"></path>
  <path d="M60.2827 29H59.7173C57.112 29 55 31.2678 55 34.0653V36.9347C55 39.7322 57.112 42 59.7173 42H60.2827C62.888 42 65 39.7322 65 36.9347V34.0653C65 31.2678 62.888 29 60.2827 29Z" fill="white" stroke="#231F20" stroke-width="1.5" stroke-linecap="round" stroke-linejoin="round"></path>
</svg>
