<?xml version="1.0" encoding="UTF-8"?>
<svg xmlns="http://www.w3.org/2000/svg" width="170" height="170" viewBox="0 0 170 170" fill="none">
  <rect width="170" height="170" rx="85" fill="white"></rect>
  <path d="M129.118 100.576V129.001H95.0078V100.576" stroke="#333333" stroke-width="3" stroke-linecap="square" stroke-linejoin="round"></path>
  <path d="M129.118 90.627H95.0076V100.576H129.118V90.627Z" fill="#26D9C4" stroke="#333333" stroke-width="3" stroke-linecap="square" stroke-linejoin="round"></path>
  <path d="M112.063 100.576V129.001" stroke="#333333" stroke-width="3" stroke-linecap="square" stroke-linejoin="round"></path>
  <path d="M75.11 100.576V129.001H41V100.576" stroke="#333333" stroke-width="3" stroke-linecap="square" stroke-linejoin="round"></path>
  <path d="M75.11 90.627H41V100.576H75.11V90.627Z" fill="#26D9C4" stroke="#333333" stroke-width="3" stroke-linecap="square" stroke-linejoin="round"></path>
  <path d="M58.0551 100.576V129.001" stroke="#333333" stroke-width="3" stroke-linecap="square" stroke-linejoin="round"></path>
  <path d="M113.483 50.9492V70.8467H56.6335V50.9492" stroke="#333333" stroke-width="3" stroke-linecap="square" stroke-linejoin="round"></path>
  <path d="M113.484 41H56.6337V50.9487H113.484V41Z" fill="#26D9C4" stroke="#333333" stroke-width="3" stroke-linecap="square" stroke-linejoin="round"></path>
  <path d="M75.1098 50.9492V70.8467" stroke="#333333" stroke-width="3" stroke-linecap="square" stroke-linejoin="round"></path>
  <path d="M95.0074 50.9492V70.8467" stroke="#333333" stroke-width="3" stroke-linecap="square" stroke-linejoin="round"></path>
  <path d="M74.9897 70.4883V80.5574H58.0324V90.3229" stroke="#333333" stroke-width="3" stroke-linecap="square" stroke-linejoin="round"></path>
  <path d="M111.968 90.3227L111.968 81.9956H95.1278V71.8711" stroke="#333333" stroke-width="3" stroke-linecap="square" stroke-linejoin="round"></path>
</svg>
