<?xml version="1.0" encoding="UTF-8"?>
<svg xmlns="http://www.w3.org/2000/svg" width="170" height="170" viewBox="0 0 170 170" fill="none">
  <rect width="170" height="170" rx="85" fill="#F1F2EA"></rect>
  <path d="M67.3994 66.1431C78.3994 66.1431 104.289 59.0328 105.114 88.9289C85.4708 88.9289 68.9708 93.6429 67.3994 66.1431Z" fill="#26D9C4"></path>
  <path d="M105.429 97.7695C105.396 108.413 96.772 117.022 86.1773 116.989H66.6212L54.8069 129.001V116.705C46.6404 114.353 41 106.849 41 98.3055V85.4192C41 74.7755 49.5912 66.1445 60.1859 66.1445H62.9214M105.429 97.7695C105.429 97.7476 105.429 97.7257 105.429 97.7148M105.429 97.7695V95.4506" stroke="#231F20" stroke-width="2" stroke-linecap="round" stroke-linejoin="round"></path>
  <path d="M68.2246 66.1457H86.0572C96.2054 66.0363 104.688 73.8796 105.417 84.053V89.4409" stroke="#231F20" stroke-width="2" stroke-linejoin="round"></path>
  <path d="M67.9813 57.4634C67.9814 57.4396 67.9822 57.4158 67.9839 57.3921C68.6983 47.511 77.0014 39.8977 86.9302 40.001H110.903C121.272 40.001 129.686 48.3804 129.686 58.7213V70.5684C129.686 78.6185 124.492 85.7154 116.889 88.2225V98.788C116.889 99.1933 116.644 99.5584 116.27 99.7127C115.895 99.867 115.464 99.7799 115.179 99.4922L104.522 88.7456L86.817 88.7456C86.8165 88.7456 86.8161 88.7456 86.8157 88.7456C76.4479 88.7767 68.0032 80.4193 67.9712 70.0787V70.0756V70.0754V70.0753V70.0752V70.0751V70.075V70.0749V70.0747V70.0746V70.0745V70.0744V70.0743V70.0742V70.074V70.0739V70.0738V70.0737V70.0736V70.0734V70.0733V70.0732V70.0731V70.073V70.0729V70.0727V70.0726V70.0725V70.0724V70.0723V70.0722V70.072V70.0719V70.0718V70.0717V70.0716V70.0714V70.0713V70.0712V70.0711V70.071V70.0709V70.0707V70.0706V70.0705V70.0704V70.0703V70.0702V70.07V70.0699V70.0698V70.0697V70.0696V70.0694V70.0693V70.0692V70.0691V70.069V70.0689V70.0687V70.0686V70.0685V70.0684V70.0683V70.0682V70.068V70.0679V70.0678V70.0677V70.0676V70.0675V70.0673V70.0672V70.0671V70.067V70.0669V70.0668V70.0666V70.0665V70.0664V70.0663V70.0662V70.0661V70.0659V70.0658V70.0657V70.0656V70.0655V70.0654V70.0652V70.0651V70.065V70.0649V70.0648V70.0647V70.0646V70.0644V70.0643V70.0642V70.0641V70.064V70.0639V70.0637V70.0636V70.0635V70.0634V70.0633V70.0632V70.063V70.0629V70.0628V70.0627V70.0626V70.0625V70.0624V70.0622V70.0621V70.062V70.0619V70.0618V70.0617V70.0616V70.0614V70.0613V70.0612V70.0611V70.061V70.0609V70.0608V70.0606V70.0605V70.0604V70.0603V70.0602V70.0601V70.06V70.0598V70.0597V70.0596V70.0595V70.0594V70.0593V70.0592V70.059V70.0589V70.0588V70.0587V70.0586V70.0585V70.0584V70.0583V70.0581V70.058V70.0579V70.0578V70.0577V70.0576V70.0575V70.0574V70.0572V70.0571V70.057V70.0569V70.0568V70.0567V70.0566V70.0565V70.0563V70.0562V70.0561V70.056V70.0559V70.0558V70.0557V70.0556V70.0555V70.0553V70.0552V70.0551V70.055V70.0549V70.0548V70.0547V70.0546V70.0545V70.0543V70.0542V70.0541V70.054V70.0539V70.0538V70.0537V70.0536V70.0535V70.0534V70.0532V70.0531V70.053V70.0529V70.0528V70.0527V70.0526V70.0525V70.0524V70.0523V70.0522V70.052V70.0519V70.0518V70.0517V70.0516V70.0515V70.0514V70.0513V70.0512V70.0511V70.051V70.0509V70.0508V70.0506V70.0505V70.0504V70.0503V70.0502V70.0501V70.05V70.0499V70.0498V70.0497V70.0496V70.0495V70.0494V70.0493V70.0492V70.0491V70.0489V70.0488V70.0487V70.0486V70.0485V70.0484V70.0483V70.0482V70.0481V70.048V70.0479V70.0478V70.0477V70.0476V70.0475V70.0474V70.0473V70.0472V70.0471V70.047V70.0469V70.0468V70.0466V70.0465V70.0464V70.0463V70.0462V70.0461V70.046V70.0459V70.0458V70.0457V70.0456V70.0455V70.0454V70.0453V70.0452V70.0451V70.045V70.0449V70.0448V70.0447V70.0446V70.0445V70.0444V70.0443V70.0442V70.0441V70.044V70.0439V70.0438V70.0437V70.0436V70.0435V70.0434V70.0433V70.0432V70.0431V70.043V70.0429V70.0428V70.0427V70.0426V70.0425V70.0424V70.0423V70.0422V70.0421V70.042V70.0419V70.0418V70.0417V70.0416V70.0415V70.0415V70.0414V70.0413V70.0412V70.0411V70.041V70.0409V70.0408V70.0407V70.0406V70.0405V70.0404V70.0403V70.0402V70.0401V70.04V70.0399V70.0398V70.0397V70.0396V70.0396V70.0395V70.0394V70.0393V70.0392V70.0391V70.039V70.0389V70.0388V70.0387V70.0386V70.0385V70.0384V70.0383V70.0383V70.0382V70.0381V70.038V70.0379V70.0378V70.0377V70.0376V70.0375V70.0374V70.0373V70.0373V70.0372V70.0371V70.037V70.0369V70.0368V70.0367V70.0366V70.0365V70.0365V70.0364V70.0363V70.0362V70.0361V70.036V70.0359V70.0358V70.0358V70.0357V70.0356V70.0355V70.0354V70.0353V70.0352V70.0351V70.0351V70.035V70.0349V70.0348V70.0347V70.0346V70.0345V70.0345V70.0344V70.0343V70.0342V70.0341V70.034V70.034V70.0339V70.0338V70.0337V70.0336V70.0335V70.0335V70.0334V70.0333V70.0332V70.0331V70.0331V70.033V70.0329V70.0328V70.0327V70.0326V70.0326V70.0325V70.0324V70.0323V70.0322V70.0322V70.0321V70.032V70.0319V70.0319V70.0318V70.0317V70.0316V70.0315V70.0315V70.0314V70.0313V70.0312V70.0311V70.0311V70.031V70.0309V70.0308V70.0308V70.0307V70.0306V70.0305V70.0305V70.0304V70.0303V70.0302V70.0302V70.0301V70.03V70.0299V70.0299V70.0298V70.0297V70.0296V70.0296V70.0295V70.0294V70.0294V70.0293V70.0292V70.0291V70.0291V70.029V70.0289V70.0289V70.0288V70.0287V70.0286V70.0286V70.0285V70.0284V70.0284V70.0283V70.0282V70.0282V70.0281V70.028V70.028V70.0279V70.0278V70.0277V70.0277V70.0276V70.0275V70.0275V70.0274V70.0273V70.0273V70.0272V70.0271V70.0271V70.027V70.027V70.0269V70.0268V70.0268V70.0267V70.0266V70.0266V70.0265V70.0264V70.0264V70.0263V70.0263V70.0262V70.0261V70.0261V70.026V70.0259V70.0259V70.0258V70.0258V70.0257V70.0256V70.0256V70.0255V70.0255V70.0254V70.0253V70.0253V70.0245L67.9813 57.4634Z" stroke="#231F20" stroke-width="2" stroke-linejoin="round"></path>
</svg>
