<?xml version="1.0" encoding="UTF-8"?>
<svg xmlns="http://www.w3.org/2000/svg" width="170" height="170" viewBox="0 0 170 170" fill="none">
  <rect width="170" height="170" rx="85" fill="#F1F2EA"></rect>
  <path d="M108.155 56.5673C109.475 55.9797 110.96 55.6699 112.5 55.6699C118.567 55.6699 123.5 60.6026 123.5 66.6699C123.5 66.9275 123.5 67.1649 123.462 67.4023" stroke="#231F20" stroke-width="2" stroke-linecap="round" stroke-linejoin="round"></path>
  <path d="M94.1683 45.9136C95.8357 45.106 97.6883 44.666 99.6683 44.666C106.141 44.666 111.476 49.4336 112.356 55.666" stroke="#231F20" stroke-width="2" stroke-linecap="round" stroke-linejoin="round"></path>
  <path d="M74.715 48.1124C76.2724 43.97 80.2874 41 85 41C91.0674 41 96 45.9326 96 52C96 55.6474 94.2226 58.875 91.5074 60.8724" stroke="#231F20" stroke-width="2" stroke-linecap="round" stroke-linejoin="round"></path>
  <path d="M49.6358 70.4597C48.7934 68.7547 48.3332 66.8471 48.3332 64.8324C48.3332 57.7374 54.0705 52 61.1655 52" stroke="#231F20" stroke-width="2" stroke-linecap="round" stroke-linejoin="round"></path>
  <path d="M90.5 84.9981C87.4374 84.9981 84.835 83.1281 83.735 80.4707L90.5 84.9981Z" fill="#F1F2EA"></path>
  <path d="M90.5 84.9981C87.4374 84.9981 84.835 83.1281 83.735 80.4707" stroke="#231F20" stroke-width="2" stroke-linecap="round" stroke-linejoin="round"></path>
  <path d="M113.16 69.5849C114.81 67.7873 117.192 66.6699 119.832 66.6699C124.892 66.6699 129 70.7776 129 75.8375C129 80.8975 124.892 85.0052 119.832 85.0052L90.5 85.0052" stroke="#231F20" stroke-width="2" stroke-linecap="round" stroke-linejoin="round"></path>
  <path d="M76.6024 66.7031C81.315 67.0881 85 71.0308 85 75.8331C85 80.8931 80.8924 85.0007 75.8324 85.0007L48.3324 85.0007C44.2797 85.0007 41 81.7181 41 77.6684C41 73.6186 44.2826 70.336 48.3324 70.336C50.5324 70.336 52.5124 71.3086 53.87 72.8486" stroke="#231F20" stroke-width="2" stroke-linecap="round" stroke-linejoin="round"></path>
  <path d="M100.788 73.2676C102.345 70.425 105.364 68.5 108.832 68.5C113.895 68.5 118 72.6047 118 77.6676" stroke="#231F20" stroke-width="2" stroke-linecap="round" stroke-linejoin="round"></path>
  <path d="M62.7029 56.491C61.739 55.2492 61.1658 53.6918 61.1658 51.9984C61.1658 47.9486 64.4485 44.666 68.4982 44.666C72.5479 44.666 75.8306 47.9486 75.8306 51.9984C75.8306 52.8465 75.6858 53.6629 75.4195 54.4213" stroke="#231F20" stroke-width="2" stroke-linecap="round" stroke-linejoin="round"></path>
  <path d="M79.5 123.5C79.5 126.538 81.9624 129 85 129C88.0376 129 90.5 126.538 90.5 123.5C90.5 120.462 88.0376 118 85 118C81.9624 118 79.5 120.462 79.5 123.5Z" fill="#26D9C4" stroke="#231F20" stroke-width="2" stroke-linecap="round" stroke-linejoin="round"></path>
  <path d="M57.5 119.834C57.5 122.872 59.9624 125.334 63 125.334C66.0376 125.334 68.5 122.872 68.5 119.834C68.5 116.796 66.0376 114.334 63 114.334C59.9624 114.334 57.5 116.796 57.5 119.834Z" fill="#26D9C4" stroke="#231F20" stroke-width="2" stroke-linecap="round" stroke-linejoin="round"></path>
  <path d="M41.0005 101.5C41.0005 104.538 43.4629 107 46.5005 107C49.5381 107 52.0005 104.538 52.0005 101.5C52.0005 98.4624 49.5381 96 46.5005 96C43.4629 96 41.0005 98.4624 41.0005 101.5Z" fill="#26D9C4" stroke="#231F20" stroke-width="2" stroke-linecap="round" stroke-linejoin="round"></path>
  <path d="M85 92.334L85 118.002" stroke="#231F20" stroke-width="2" stroke-linecap="round" stroke-linejoin="round"></path>
  <path d="M74 92.334L74 101.502L52 101.502" stroke="#231F20" stroke-width="2" stroke-linecap="round" stroke-linejoin="round"></path>
  <path d="M63 92.334L63 96.0016" stroke="#231F20" stroke-width="2" stroke-linecap="round" stroke-linejoin="round"></path>
  <path d="M63 107L63 114.332" stroke="#231F20" stroke-width="2" stroke-linecap="round" stroke-linejoin="round"></path>
  <path d="M101.5 119.834C101.5 122.872 103.962 125.334 107 125.334C110.038 125.334 112.5 122.872 112.5 119.834C112.5 116.796 110.038 114.334 107 114.334C103.962 114.334 101.5 116.796 101.5 119.834Z" fill="#26D9C4" stroke="#231F20" stroke-width="2" stroke-linecap="round" stroke-linejoin="round"></path>
  <path d="M118 101.5C118 104.538 120.462 107 123.5 107C126.538 107 129 104.538 129 101.5C129 98.4624 126.538 96 123.5 96C120.462 96 118 98.4624 118 101.5Z" fill="#26D9C4" stroke="#231F20" stroke-width="2" stroke-linecap="round" stroke-linejoin="round"></path>
  <path d="M96 92.334L96 101.502L118 101.502" stroke="#231F20" stroke-width="2" stroke-linecap="round" stroke-linejoin="round"></path>
  <path d="M107 92.334L107 96.0016" stroke="#231F20" stroke-width="2" stroke-linecap="round" stroke-linejoin="round"></path>
  <path d="M107 107L107 114.332" stroke="#231F20" stroke-width="2" stroke-linecap="round" stroke-linejoin="round"></path>
</svg>
