<?xml version="1.0" encoding="UTF-8"?>
<svg xmlns="http://www.w3.org/2000/svg" width="336" height="146" viewBox="0 0 336 146" fill="none">
  <g clip-path="url(#clip0_10811_14149)">
    <g opacity="0.6">
      <path d="M215.652 52.2871V82.554C215.652 84.9617 213.694 86.9127 211.276 86.9127H207.528C205.11 86.9127 203.152 84.9617 203.152 82.554V58.1933H200.32V82.554C200.32 84.9617 198.361 86.9127 195.944 86.9127H192.196C189.778 86.9127 187.819 84.9617 187.819 82.554V52.2871H184.258C183.314 64.9419 177.5 76.2488 168.672 84.3676C177.406 92.3932 189.084 97.3017 201.918 97.3017C227.735 97.3017 248.881 77.4593 250.756 52.2871H215.661H215.652Z" fill="white"></path>
      <path d="M183.621 40.044H250.119C246.028 17.2796 226.003 0 201.914 0C189.079 0 177.398 4.90851 168.667 12.9342C176.325 19.971 181.711 29.4112 183.626 40.044H183.621ZM201.905 12.8455C207.043 12.8455 211.21 16.9958 211.21 22.1127C211.21 27.2296 207.043 31.3799 201.905 31.3799C196.768 31.3799 192.601 27.2296 192.601 22.1127C192.601 16.9958 196.768 12.8455 201.905 12.8455Z" fill="white"></path>
    </g>
    <path d="M149.284 52.2871V82.554C149.284 84.9617 147.325 86.9127 144.908 86.9127H141.159C138.742 86.9127 136.783 84.9617 136.783 82.554V58.1933H133.952V82.554C133.952 84.9617 131.993 86.9127 129.576 86.9127H125.827C123.41 86.9127 121.451 84.9617 121.451 82.554V52.2871H86.5884C88.4626 77.4549 109.609 97.3017 135.425 97.3017C161.242 97.3017 182.388 77.4593 184.262 52.2871H149.293H149.284Z" fill="white"></path>
    <path d="M148.006 40.044H183.626C179.534 17.2796 159.505 0 135.416 0C111.327 0 91.2983 17.2796 87.207 40.044H148.006ZM135.412 12.8455C140.549 12.8455 144.716 16.9958 144.716 22.1127C144.716 27.2296 140.549 31.3799 135.412 31.3799C130.274 31.3799 126.108 27.2296 126.108 22.1127C126.108 16.9958 130.274 12.8455 135.412 12.8455Z" fill="white"></path>
    <path d="M35.8282 135.075C32.3379 141.305 26.0831 145.074 19.2939 145.074C9.06354 145.074 0.529297 137.009 0.529297 126.624C0.529297 116.239 8.91663 108.125 19.245 108.125C25.8872 108.125 32.8232 111.938 35.6813 117.88H31.6568C28.8922 113.774 24.0441 111.362 19.196 111.362C11.196 111.362 4.11751 118.412 4.11751 126.673C4.11751 134.933 11.196 141.837 19.245 141.837C24.142 141.837 28.5538 139.376 31.8037 135.075H35.8282Z" fill="white"></path>
    <path d="M38.8823 131.405C38.8823 123.627 45.1862 117.349 52.7009 117.349C60.2157 117.349 66.6175 123.818 66.6175 131.21C66.6175 138.601 60.1667 145.07 52.7009 145.07C45.2351 145.07 38.8823 138.743 38.8823 131.405ZM63.2252 131.068C63.2252 125.321 58.5685 120.395 52.7009 120.395C46.8334 120.395 42.2746 125.37 42.2746 131.356C42.2746 137.342 46.9758 142.029 52.7499 142.029C58.524 142.029 63.2252 137.102 63.2252 131.068Z" fill="white"></path>
    <path d="M106.475 144.445V128.944C106.475 123.92 104.049 120.395 99.2494 120.395C94.4503 120.395 92.024 123.871 92.024 129.041V144.445H88.6317V128.992C88.6317 123.827 86.1119 120.395 81.4063 120.395C76.7007 120.395 74.1809 123.822 74.1809 128.992V144.445H70.7886V118.027H74.1809V121.069C75.7791 118.559 78.4948 117.349 81.4063 117.349C85.2349 117.349 88.4358 119.136 90.3278 122.421C92.4113 119.184 95.3718 117.349 99.2494 117.349C106.087 117.349 109.867 122.372 109.867 128.602V144.441H106.475V144.445Z" fill="white"></path>
    <path d="M150.936 144.445V128.944C150.936 123.92 148.509 120.395 143.71 120.395C138.911 120.395 136.485 123.871 136.485 129.041V144.445H133.093V128.992C133.093 123.827 130.573 120.395 125.867 120.395C121.162 120.395 118.642 123.822 118.642 128.992V144.445H115.25V118.027H118.642V121.069C120.24 118.559 122.956 117.349 125.867 117.349C129.696 117.349 132.897 119.136 134.789 122.421C136.872 119.184 139.833 117.349 143.71 117.349C150.548 117.349 154.328 122.372 154.328 128.602V144.441H150.936V144.445Z" fill="white"></path>
    <path d="M179.539 144.445V140.339H179.441C177.936 143.381 174.833 145.07 171.004 145.07C165.333 145.07 159.514 142.077 159.514 133.143V118.027H162.906V132.757C162.906 138.747 165.475 142.028 171.004 142.028C175.563 142.028 179.343 138.84 179.343 132.513V118.022H182.735V144.441H179.534L179.539 144.445Z" fill="white"></path>
    <path d="M208.049 144.445V129.715C208.049 123.774 204.46 120.395 199.804 120.395C194.662 120.395 191.514 124.306 191.514 129.476V144.445H188.122V118.027H191.514V121.406H191.612C193.309 118.847 196.314 117.349 199.759 117.349C207.083 117.349 211.445 122.372 211.445 129.711V144.441H208.053L208.049 144.445Z" fill="white"></path>
    <path d="M216.676 114.791V108.707H220.069V114.791H216.676ZM216.676 144.446V118.027H220.069V144.446H216.676Z" fill="white"></path>
    <path d="M259.588 135.075C256.098 141.305 249.843 145.074 243.054 145.074C232.824 145.074 224.29 137.009 224.29 126.624C224.29 116.239 232.677 108.125 243.005 108.125C249.647 108.125 256.583 111.938 259.442 117.88H255.417C252.652 113.774 247.804 111.362 242.956 111.362C234.956 111.362 227.878 118.412 227.878 126.673C227.878 134.933 234.956 141.837 243.005 141.837C247.902 141.837 252.314 139.376 255.564 135.075H259.588Z" fill="white"></path>
    <path d="M287.324 144.445V139.807H287.226C285.044 143.093 281.211 145.07 276.897 145.07C268.946 145.07 262.643 139.08 262.643 131.161C262.643 123.242 269.142 117.349 276.897 117.349C281.309 117.349 285.093 119.331 287.226 122.661H287.324V118.023H290.716V144.441H287.324V144.445ZM287.52 131.263C287.52 125.37 282.863 120.395 276.853 120.395C270.843 120.395 266.039 125.033 266.039 131.312C266.039 137.59 270.647 142.033 276.902 142.033C282.818 142.033 287.52 137.204 287.52 131.263Z" fill="white"></path>
    <path d="M295.853 144.445V118.027H299.245V121.84H299.343C300.505 119.087 302.544 117.593 306.809 117.349V120.922H306.76C301.863 121.406 299.245 124.594 299.245 128.842V144.441H295.853V144.445Z" fill="white"></path>
    <path d="M311.274 132.467C311.564 137.731 316.416 142.032 321.554 142.032C325.676 142.032 329.603 139.664 331.059 135.802H334.647C332.608 141.499 327.274 145.073 321.603 145.073C314.088 145.073 307.784 138.99 307.784 131.261C307.784 123.533 314.137 117.352 321.554 117.352C329.505 117.352 335.47 124.162 335.47 131.452C335.47 131.789 335.421 132.13 335.421 132.467H311.274ZM331.98 129.426C331.01 124.114 326.794 120.393 321.554 120.393C316.608 120.393 312.196 123.967 311.274 129.426H331.98Z" fill="white"></path>
  </g>
  <defs>
    <clipPath id="clip0_10811_14149">
      <rect width="334.941" height="146" fill="white" transform="translate(0.529297)"></rect>
    </clipPath>
  </defs>
</svg>
