<?xml version="1.0" encoding="UTF-8"?>
<svg xmlns="http://www.w3.org/2000/svg" width="132" height="39" viewBox="0 0 132 39" fill="none">
  <path d="M8.22556 0H29.7446C34.2844 0 37.9702 3.67724 37.9702 8.20652V29.6758C37.9702 34.205 34.2844 37.8823 29.7446 37.8823H8.22556C3.68577 37.8823 0 34.205 0 29.6758V8.20652C0 3.67724 3.68577 0 8.22556 0Z" fill="#FFD02F"></path>
  <path d="M26.3858 4.73145H22.2169L25.6891 10.8191L18.0479 4.73145H13.8789L17.6996 12.1756L9.70998 4.73145H5.54102L9.70998 14.2048L5.54102 33.1516H9.70998L17.6996 12.8483L13.8789 33.1516H18.0479L25.6891 11.5029L22.2169 33.1516H26.3858L34.0271 9.46253L26.3858 4.73145Z" fill="#050038"></path>
  <path fill-rule="evenodd" clip-rule="evenodd" d="M88.0709 34.0362L83.4357 32.9258V14.1841L88.0709 13.298V34.0362ZM120.495 29.6171C117.133 29.6283 114.408 26.9029 114.385 23.5269V23.4933C114.385 20.1734 117.099 17.4479 120.483 17.4479C123.868 17.4479 126.582 20.1734 126.582 23.4933C126.593 26.8692 123.868 29.6059 120.517 29.6171H120.495ZM131.005 23.4933C131.005 29.3255 126.303 34.0474 120.495 34.0474C114.687 34.0474 109.985 29.3255 109.985 23.4933C109.985 17.7395 114.698 13.0176 120.506 13.0176C126.314 13.0176 131.005 17.7395 131.005 23.4933ZM71.3732 32.937L75.9301 33.8904V21.2725C75.9301 15.2159 71.228 13.0849 67.9889 13.0849C65.8556 13.0849 64.0909 13.6008 62.5496 15.1486C60.9301 13.6008 59.0202 13.0064 57.4788 13.0064C55.2004 13.0064 53.2904 13.9598 51.9613 15.5861V13.4438L47.3262 14.3299V32.9258L51.9613 33.8792V21.1267C51.9613 19.063 53.4356 17.661 55.703 17.661C57.8363 17.661 59.3776 19.063 59.3776 21.1267V32.937L63.9346 33.8904V21.1267C63.9346 19.063 65.4759 17.661 67.6874 17.661C69.8207 17.661 71.362 19.063 71.362 21.1267L71.3732 32.937ZM106.522 13.0176L103.797 13.3877C98.7262 14.5654 95.4201 16.1917 95.4201 21.7997V32.937L100.055 33.8231V22.4614C100.055 19.8817 101.53 18.6929 103.808 18.2554L106.533 17.818L106.522 13.0176ZM83.6591 5.33473C82.5534 6.46754 82.5534 8.26208 83.6591 9.39489C84.7872 10.5613 86.6524 10.5726 87.8028 9.43975L87.8475 9.39489C88.9533 8.2733 88.9533 6.45632 87.8475 5.33473C86.6636 4.22436 84.8319 4.22436 83.6591 5.33473Z" fill="#050038"></path>
</svg>
