<?xml version="1.0" encoding="UTF-8"?>
<svg xmlns="http://www.w3.org/2000/svg" width="170" height="170" viewBox="0 0 170 170" fill="none">
  <rect width="170" height="170" rx="85" fill="white"></rect>
  <path d="M54.787 116.413C54.032 115.136 52.5038 114.615 51.1914 114.615C47.2181 114.615 44 117.833 44 121.806V71.4668C44 67.4935 47.2181 64.2754 51.1914 64.2754C52.5038 64.2754 54.1758 64.581 54.787 66.0732V116.413Z" stroke="#333333" stroke-width="3" stroke-linejoin="round"></path>
  <path d="M122.54 71.4688H126.701V129H51.1914C47.2181 129 44 125.782 44 121.808" stroke="#333333" stroke-width="3" stroke-linecap="round" stroke-linejoin="round"></path>
  <path d="M54.7877 71.4688H83.2849" stroke="#333333" stroke-width="3" stroke-linecap="round" stroke-linejoin="round"></path>
  <path d="M102.568 96.6368L73.6653 96.6368C71.1843 96.6368 69.1707 98.6504 69.1707 101.131C69.1707 107.424 79.9578 103.828 79.9578 110.121C79.9578 112.602 77.9442 114.615 75.4632 114.615H60.1815" stroke="#333333" stroke-width="3" stroke-linecap="round" stroke-linejoin="round"></path>
  <path d="M102.91 91.3395C112.21 79.5935 120.888 72.3903 120.888 58.9784C120.888 49.5757 112.294 41 102.91 41C93.525 41 84.9313 49.5757 84.9313 58.9784C84.9313 72.3903 92.9265 78.9048 102.91 91.3395Z" fill="#26D9C4" stroke="#333333" stroke-width="3" stroke-linejoin="round"></path>
  <path d="M113.864 71.3935C113.864 66.3221 109.475 62.2109 104.061 62.2109H101.629C96.2152 62.2109 91.8263 66.3221 91.8263 71.3935H113.864Z" fill="white" stroke="#333333" stroke-width="3" stroke-linecap="round" stroke-linejoin="round"></path>
  <path d="M103.112 47.1973H102.593C100.201 47.1973 98.2612 49.2797 98.2612 51.8485V54.4833C98.2612 57.0521 100.201 59.1345 102.593 59.1345H103.112C105.504 59.1345 107.444 57.0521 107.444 54.4833V51.8485C107.444 49.2797 105.504 47.1973 103.112 47.1973Z" fill="white" stroke="#333333" stroke-width="3" stroke-linecap="round" stroke-linejoin="round"></path>
</svg>
