<?xml version="1.0" encoding="UTF-8"?>
<svg xmlns="http://www.w3.org/2000/svg" width="201" height="25" viewBox="0 0 201 25" fill="none">
  <g clip-path="url(#clip0_637_121)">
    <path d="M198.245 3.91413C198.532 3.90978 198.817 3.96259 199.083 4.06948C199.349 4.17636 199.591 4.33519 199.795 4.53667C199.999 4.73816 200.161 4.97826 200.271 5.24297C200.381 5.50768 200.437 5.79169 200.436 6.0784C200.436 6.36512 200.378 6.6488 200.266 6.91288C200.154 7.17697 199.991 7.41616 199.786 7.61648C199.581 7.81681 199.338 7.97427 199.071 8.07965C198.805 8.18503 198.52 8.23623 198.233 8.23026C196.994 8.23026 195.998 7.27256 195.998 6.05965C195.998 4.87184 196.994 3.91413 198.233 3.91413H198.245ZM198.207 4.41593C197.301 4.41593 196.61 5.14352 196.61 6.07542C196.61 6.99585 197.301 7.73636 198.219 7.73636C199.139 7.74926 199.817 6.99585 199.817 6.07542C199.817 5.14352 199.139 4.41593 198.219 4.41593H198.207ZM197.926 7.13636H197.352V5.07829C197.633 5.02166 197.92 4.99522 198.207 4.99944C198.637 4.99944 198.834 5.06324 198.973 5.16575C199.044 5.21306 199.101 5.27806 199.138 5.35428C199.176 5.43049 199.193 5.51527 199.188 5.60016C199.188 5.82955 198.996 6.00804 198.741 6.08546V6.11055C198.956 6.18725 199.072 6.35284 199.136 6.63456C199.166 6.80524 199.214 6.97224 199.28 7.13277H198.667C198.603 7.05535 198.565 6.87686 198.515 6.65965C198.465 6.44245 198.36 6.35284 198.131 6.35284H197.926V7.13636ZM197.938 5.96145H198.143C198.386 5.96145 198.565 5.87184 198.565 5.67973C198.565 5.50123 198.437 5.39872 198.169 5.39872C198.067 5.39872 197.991 5.41162 197.938 5.41162V5.96145ZM0.544922 1.5084C2.11625 1.24102 4.32342 1.04102 7.43238 1.04102C10.575 1.04102 12.8152 1.64245 14.3198 2.84603C15.7578 3.98223 16.7277 5.85679 16.7277 8.0618C16.7277 10.2668 15.9915 12.1414 14.6546 13.4116C12.9155 15.0496 10.3413 15.7858 7.33202 15.7858C6.75097 15.7917 6.17018 15.7582 5.59367 15.6855V23.7428H0.544922V1.5084ZM5.59367 11.7399C6.02808 11.8403 6.56356 11.8733 7.29904 11.8733C10.0066 11.8733 11.679 10.5027 11.679 8.19585C11.679 6.12274 10.241 4.88546 7.70048 4.88546C6.6632 4.88546 5.96141 4.98582 5.59367 5.08618V11.7399Z" fill="#373A36"></path>
    <path d="M32.6412 15.3843C32.6412 21.3686 28.3953 24.1105 24.0154 24.1105C19.2341 24.1105 15.5566 20.9678 15.5566 15.6854C15.5566 10.403 19.0341 7.02518 24.2835 7.02518C29.2986 7.02518 32.6412 10.4696 32.6412 15.3843ZM20.8054 15.5513C20.8054 18.3599 21.9753 20.466 24.1495 20.466C26.1222 20.466 27.3925 18.4933 27.3925 15.5513C27.3925 13.1141 26.4563 10.6359 24.1495 10.6359C21.7086 10.6359 20.8054 13.1435 20.8054 15.5513ZM39.6943 2.84597C39.6943 4.25027 38.6247 5.38719 36.9531 5.38719C35.348 5.38719 34.2785 4.25027 34.3115 2.84597C34.2785 1.375 35.348 0.275362 36.9882 0.275362C38.6283 0.275362 39.662 1.375 39.6943 2.84597ZM34.4455 23.7427V7.39292H39.528V23.7427H34.4455ZM42.2685 12.6087C42.2685 10.57 42.2018 8.83092 42.1351 7.39292H46.548L46.7817 9.63307H46.8807C47.5495 8.59651 49.2212 7.02518 51.9294 7.02518C55.2735 7.02518 57.7803 9.23163 57.7803 14.0503V23.7427H52.7V14.684C52.7 12.5779 51.9652 11.1399 50.1258 11.1399C48.7208 11.1399 47.885 12.1098 47.5509 13.046C47.4169 13.38 47.3502 13.8481 47.3502 14.3169V23.7427H42.2685V12.6087ZM66.0061 2.94633V7.39077H69.6505V11.1356H66.0061V17.0531C66.0061 19.0266 66.4742 19.9284 68.0133 19.9284C68.7151 19.9284 69.0169 19.8962 69.5186 19.7951L69.5523 23.6402C68.8828 23.9076 67.6799 24.1083 66.2419 24.1083C64.6032 24.1083 63.2312 23.5062 62.4305 22.6711C61.4921 21.7033 61.024 20.132 61.024 17.8252V11.1377H58.852V7.39292H61.024V4.31694L66.0061 2.94633ZM87.971 23.1076C87.0348 23.5757 84.9287 24.1112 82.1867 24.1112C74.3968 24.1112 70.3839 19.2295 70.3839 12.8108C70.3839 5.12052 75.8677 0.83952 82.6885 0.83952C85.3301 0.83952 87.3351 1.375 88.2391 1.8431L87.2025 5.88827C85.8459 5.32724 84.3909 5.04306 82.9229 5.05242C78.8771 5.05242 75.7344 7.49328 75.7344 12.5076C75.7344 17.0237 78.409 19.8632 82.9559 19.8632C84.4936 19.8632 86.1996 19.5298 87.2025 19.1277L87.971 23.1076ZM89.7079 0.00439453H94.7903V23.7427H89.7079V0.00439453ZM102.813 2.84597C102.813 4.25027 101.744 5.38719 100.072 5.38719C98.4677 5.38719 97.3975 4.25027 97.4312 2.84597C97.3975 1.375 98.4677 0.271778 100.106 0.271778C101.744 0.271778 102.78 1.375 102.813 2.84597ZM97.5617 23.7427V7.39292H102.643V23.7427H97.5617ZM117.658 23.3413C116.754 23.7427 115.051 24.1105 113.11 24.1105C107.828 24.1105 104.451 20.8675 104.451 15.7184C104.451 10.937 107.727 7.02518 113.813 7.02518C115.149 7.02518 116.621 7.25959 117.691 7.66103L116.889 11.4388C116.286 11.1714 115.384 10.937 114.046 10.937C111.372 10.937 109.633 12.8431 109.667 15.5177C109.667 18.5284 111.674 20.0983 114.147 20.0983C115.351 20.0983 116.286 19.8983 117.055 19.5635L117.658 23.3413ZM124.209 14.2804H124.276C124.645 13.6116 125.045 12.9435 125.446 12.3076L128.757 7.39292H134.874L129.024 14.013L135.711 23.7427H129.461L125.519 17.0223L124.209 18.6266V23.7413H119.127V0.00439453H124.209V14.2804Z" fill="#373A36"></path>
    <path d="M152.627 23.1077C151.691 23.5758 149.586 24.1113 146.843 24.1113C139.052 24.1113 135.04 19.2296 135.04 12.8109C135.04 5.1206 140.524 0.8396 147.344 0.8396C149.986 0.8396 151.991 1.37508 152.895 1.84318L151.858 5.88834C150.501 5.32725 149.046 5.04306 147.578 5.0525C143.533 5.0525 140.391 7.49336 140.391 12.5077C140.391 17.0238 143.065 19.8633 147.611 19.8633C149.15 19.8633 150.856 19.5299 151.858 19.1278L152.627 23.1077ZM167.772 19.7643C167.772 21.3349 167.839 22.841 168.006 23.7428H163.424L163.124 22.1048H163.023C161.953 23.4081 160.282 24.112 158.342 24.112C155.032 24.112 153.059 21.7048 153.059 19.0941C153.059 14.8475 156.871 12.8088 162.655 12.8417V12.6073C162.655 11.7385 162.188 10.5012 159.68 10.5012C158.009 10.5012 156.239 11.0697 155.164 11.7385L154.227 8.46182C155.364 7.8267 157.605 7.02383 160.58 7.02383C166.028 7.02383 167.77 10.2339 167.77 14.079L167.772 19.7643ZM162.826 16.0195C160.151 15.9858 158.078 16.6217 158.078 18.5937C158.078 19.8984 158.948 20.5342 160.085 20.5342C161.356 20.5342 162.391 19.6969 162.726 18.6611C162.794 18.3763 162.828 18.0844 162.826 17.7916L162.826 16.0195ZM170.443 12.7765C170.443 10.3693 170.377 8.79731 170.31 7.393H174.694L174.862 10.4038H174.995C175.83 8.02956 177.836 7.0267 179.408 7.0267C179.876 7.0267 180.11 7.0267 180.479 7.09408V11.9084C180.031 11.791 179.57 11.7348 179.107 11.7414C177.235 11.7414 175.965 12.745 175.63 14.3163C175.56 14.6912 175.527 15.0719 175.53 15.4532V23.7428H170.443V12.7765ZM185.455 17.193C185.622 19.2991 187.695 20.3034 190.069 20.3034C191.808 20.3034 193.211 20.069 194.586 19.6339L195.253 23.0783C193.583 23.7464 191.543 24.1142 189.336 24.1142C183.785 24.1142 180.609 20.8711 180.609 15.7557C180.609 11.6102 183.184 7.02885 188.868 7.02885C194.15 7.02885 196.156 11.1414 196.156 15.1866C196.156 15.8591 196.1 16.5304 195.989 17.1937L185.455 17.193ZM191.441 13.7156C191.441 12.479 190.905 10.4059 188.565 10.4059C186.425 10.4059 185.554 12.3414 185.421 13.7156H191.441Z" fill="#373A36"></path>
  </g>
  <defs>
    <clipPath id="clip0_637_121">
      <rect width="200" height="24.1577" fill="white" transform="translate(0.5)"></rect>
    </clipPath>
  </defs>
</svg>
