<?xml version="1.0" encoding="UTF-8"?>
<svg xmlns="http://www.w3.org/2000/svg" width="170" height="170" viewBox="0 0 170 170" fill="none">
  <rect width="170" height="170" rx="85" fill="white"></rect>
  <rect x="39.5" y="44.5" width="77" height="63.4516" rx="5.5" stroke="#333333" stroke-width="3"></rect>
  <path d="M61.871 66.2266H46.3871V73.9685H61.871V66.2266Z" fill="#26D9C4" stroke="#333333" stroke-width="3" stroke-linecap="round" stroke-linejoin="round"></path>
  <path d="M109.613 82.3555H46.3871V101.065H109.613V82.3555Z" fill="#26D9C4" stroke="#333333" stroke-width="3" stroke-linecap="round" stroke-linejoin="round"></path>
  <path d="M109.613 66.2266H94.1291V73.9685H109.613V66.2266Z" fill="#26D9C4" stroke="#333333" stroke-width="3" stroke-linecap="round" stroke-linejoin="round"></path>
  <path d="M85.7419 66.2266H70.2581V73.9685H85.7419V66.2266Z" fill="#26D9C4" stroke="#333333" stroke-width="3" stroke-linecap="round" stroke-linejoin="round"></path>
  <path d="M38.9677 56.2441L116.755 56.2441" stroke="#333333" stroke-width="3" stroke-linecap="round" stroke-linejoin="round"></path>
  <path d="M44.9444 49.9434H47.4641" stroke="#333333" stroke-width="3" stroke-linejoin="round"></path>
  <path d="M51.2436 49.9434H53.7633" stroke="#333333" stroke-width="3" stroke-linejoin="round"></path>
  <path d="M57.5428 49.9434H60.0625" stroke="#333333" stroke-width="3" stroke-linejoin="round"></path>
  <path d="M98.8396 128.418L106.323 120.974H118.849C127.155 120.998 133.974 114.386 134 106.138V106.132V106.132V106.132V106.132V106.132V106.132V106.131V106.131V106.131V106.131V106.131V106.131V106.131V106.131V106.131V106.131V106.131V106.13V106.13V106.13V106.13V106.13V106.13V106.13V106.13V106.13V106.13V106.13V106.13V106.129V106.129V106.129V106.129V106.129V106.129V106.129V106.129V106.129V106.129V106.129V106.129V106.128V106.128V106.128V106.128V106.128V106.128V106.128V106.128V106.128V106.128V106.128V106.128V106.127V106.127V106.127V106.127V106.127V106.127V106.127V106.127V106.127V106.127V106.127V106.126V106.126V106.126V106.126V106.126V106.126V106.126V106.126V106.126V106.126V106.126V106.126V106.125V106.125V106.125V106.125V106.125V106.125V106.125V106.125V106.125V106.125V106.125V106.125V106.124V106.124V106.124V106.124V106.124V106.124V106.124V106.124V106.124V106.124V106.124V106.124V106.123V106.123V106.123V106.123V106.123V106.123V106.123V106.123V106.123V106.123V106.123V106.123V106.122V106.122V106.122V106.122V106.122V106.122V106.122V106.122V106.122V106.122V106.122V106.122V106.121V106.121V106.121V106.121V106.121V106.121V106.121V106.121V106.121V106.121V106.121V106.121V106.12V106.12V106.12V106.12V106.12V106.12V106.12V106.12V106.12V106.12V106.12V106.12V106.119V106.119V106.119V106.119V106.119V106.119V106.119V106.119V106.119V106.119V106.119V106.119V106.118V106.118V106.118V106.118V106.118V106.118V106.118V106.118V106.118V106.118V106.118V106.118V106.117V106.117V106.117V106.117V106.117V106.117V106.117V106.117V106.117V106.117V106.117V106.117V106.117V106.116V106.116V106.116V106.116V106.116V106.116V106.116V106.116V106.116V106.116V106.116V106.116V106.115V106.115V106.115V106.115V106.115V106.115V106.115V106.115V106.115V106.115V106.115V106.115V106.115V106.114V106.114V106.114V106.114V106.114V106.114V106.114V106.114V106.114V106.114V106.114V106.114V106.114V106.113V106.113V106.113V106.113V106.113V106.113V106.113V106.113V106.113V106.113V106.113V106.113V106.113V106.112V106.112V106.112V106.112V106.112V106.112V106.112V106.112V106.112V106.112V106.112V106.112V106.112V106.111V106.111V106.111V106.111V106.111V106.111V106.111V106.111V106.111V106.111V106.111V106.111V106.111V106.11V106.11V106.11V106.11V106.11V106.11V106.11V106.11V106.11V106.11V106.11V106.11V106.11V106.11V106.109V106.109V106.109V106.109V106.109V106.109V106.109V106.109V106.109V106.109V106.109V106.109V106.109V106.109V106.108V106.108V106.108V106.108V106.108V106.108V106.108V106.108V106.108V106.108V106.108V106.108V106.108V106.108V106.107V106.107V106.107V106.107V106.107V106.107V106.107V106.107V106.107V106.107V106.107V106.107V106.107V106.107V106.106V106.106V106.106V106.106V106.106V106.106V106.106V106.106V106.106V106.106V106.106V106.106V106.106V106.106V106.106V106.105V106.105V106.105V106.105V106.105V106.105V106.105V106.105V106.105V106.105V106.105V106.105V106.105V106.105V106.104V106.104V106.104V106.104V106.104V106.104V106.104V106.104V106.104V106.104V106.104V106.104V106.104V106.104V106.104V106.104V106.103V106.103V106.103V106.103V106.103V106.103V106.103V106.103V106.103V106.103V106.103V106.103V106.103V106.103V106.103V106.103V106.102V106.102V106.102V106.102V106.102V106.102V106.102V106.102V106.102V106.102V106.102V106.102V106.102V106.102V106.102V106.102V106.101V106.101V106.101V106.101V106.101V106.101V106.101V106.101V106.101V106.101V106.101V106.101V106.101V106.101V106.101V106.101V106.101V106.1V106.1V106.1V106.1V106.1V106.1V106.1V106.1V106.1V106.1V106.1V106.1V106.1V106.1V106.1V106.1V106.1V106.1V106.099V106.099V106.099V106.099V106.099V106.099V106.099V106.099V106.099V106.099V106.099V106.099V106.099V106.099V106.099V106.099V106.099V106.099V106.098V106.098V106.098V106.098V106.098V106.098V106.098V106.098V106.098V106.098V106.098V106.098V106.098V106.098V106.098V106.098V106.098V106.098V106.098V106.097V106.097V106.097V106.097V106.097V106.097V106.097V106.097V106.097V106.097V106.097V106.097V106.097V106.097V106.097V106.097V106.097V106.097V106.097V106.097V106.097V106.096V106.096V106.096V106.096V106.096V106.096V106.096V106.096V106.096V106.096V106.096V106.096V106.096V106.096V106.096V106.096V106.096V106.096V106.096V106.096V106.096V106.096V106.095V106.095V106.095V96.9588V92.1923L133.188 92.9897C131.1 87.075 125.363 82.9357 118.761 83.0008H101.103C92.7952 83.0008 86 89.6309 86 97.8797V106.49C86 112.602 89.8017 117.998 95.4291 120.218V127V131.81L98.8396 128.418Z" stroke="white" stroke-width="4"></path>
  <path d="M130.497 97.0757L130.5 97.1226V106.095V106.095V106.095V106.096V106.096V106.096V106.096V106.096V106.096V106.096V106.096V106.096V106.096V106.096V106.096V106.096V106.096V106.096V106.096V106.096V106.096V106.096V106.096V106.096V106.096V106.097V106.097V106.097V106.097V106.097V106.097V106.097V106.097V106.097V106.097V106.097V106.097V106.097V106.097V106.097V106.097V106.097V106.097V106.097V106.097V106.097V106.098V106.098V106.098V106.098V106.098V106.098V106.098V106.098V106.098V106.098V106.098V106.098V106.098V106.098V106.098V106.098V106.098V106.098V106.098V106.099V106.099V106.099V106.099V106.099V106.099V106.099V106.099V106.099V106.099V106.099V106.099V106.099V106.099V106.099V106.099V106.099V106.099V106.1V106.1V106.1V106.1V106.1V106.1V106.1V106.1V106.1V106.1V106.1V106.1V106.1V106.1V106.1V106.1V106.1V106.1V106.101V106.101V106.101V106.101V106.101V106.101V106.101V106.101V106.101V106.101V106.101V106.101V106.101V106.101V106.101V106.101V106.101V106.102V106.102V106.102V106.102V106.102V106.102V106.102V106.102V106.102V106.102V106.102V106.102V106.102V106.102V106.102V106.102V106.103V106.103V106.103V106.103V106.103V106.103V106.103V106.103V106.103V106.103V106.103V106.103V106.103V106.103V106.103V106.103V106.104V106.104V106.104V106.104V106.104V106.104V106.104V106.104V106.104V106.104V106.104V106.104V106.104V106.104V106.104V106.104V106.105V106.105V106.105V106.105V106.105V106.105V106.105V106.105V106.105V106.105V106.105V106.105V106.105V106.105V106.106V106.106V106.106V106.106V106.106V106.106V106.106V106.106V106.106V106.106V106.106V106.106V106.106V106.106V106.106V106.107V106.107V106.107V106.107V106.107V106.107V106.107V106.107V106.107V106.107V106.107V106.107V106.107V106.107V106.108V106.108V106.108V106.108V106.108V106.108V106.108V106.108V106.108V106.108V106.108V106.108V106.108V106.108V106.109V106.109V106.109V106.109V106.109V106.109V106.109V106.109V106.109V106.109V106.109V106.109V106.109V106.109V106.11V106.11V106.11V106.11V106.11V106.11V106.11V106.11V106.11V106.11V106.11V106.11V106.11V106.11V106.111V106.111V106.111V106.111V106.111V106.111V106.111V106.111V106.111V106.111V106.111V106.111V106.111V106.112V106.112V106.112V106.112V106.112V106.112V106.112V106.112V106.112V106.112V106.112V106.112V106.112V106.113V106.113V106.113V106.113V106.113V106.113V106.113V106.113V106.113V106.113V106.113V106.113V106.113V106.114V106.114V106.114V106.114V106.114V106.114V106.114V106.114V106.114V106.114V106.114V106.114V106.114V106.115V106.115V106.115V106.115V106.115V106.115V106.115V106.115V106.115V106.115V106.115V106.115V106.115V106.116V106.116V106.116V106.116V106.116V106.116V106.116V106.116V106.116V106.116V106.116V106.116V106.117V106.117V106.117V106.117V106.117V106.117V106.117V106.117V106.117V106.117V106.117V106.117V106.117V106.118V106.118V106.118V106.118V106.118V106.118V106.118V106.118V106.118V106.118V106.118V106.118V106.119V106.119V106.119V106.119V106.119V106.119V106.119V106.119V106.119V106.119V106.119V106.119V106.12V106.12V106.12V106.12V106.12V106.12V106.12V106.12V106.12V106.12V106.12V106.12V106.121V106.121V106.121V106.121V106.121V106.121V106.121V106.121V106.121V106.121V106.121V106.121V106.122V106.122V106.122V106.122V106.122V106.122V106.122V106.122V106.122V106.122V106.122V106.122V106.123V106.123V106.123V106.123V106.123V106.123V106.123V106.123V106.123V106.123V106.123V106.123V106.124V106.124V106.124V106.124V106.124V106.124V106.124V106.124V106.124V106.124V106.124V106.124V106.125V106.125V106.125V106.125V106.125V106.125V106.125V106.125V106.125V106.125V106.125V106.125V106.126V106.126V106.126V106.126V106.126V106.126V106.126V106.126V106.126V106.126V106.126V106.126V106.127V106.127V106.127V106.127V106.127V106.127V106.127V106.127V106.127V106.127V106.127V106.128V106.128V106.128V106.128V106.128V106.128V106.128V106.128V106.128V106.128V106.128V106.128V106.129V106.129V106.129V106.129V106.129V106.129V106.129V106.129V106.129V106.129V106.129V106.129V106.13V106.13C130.479 112.388 125.288 117.494 118.857 117.474H118.853H105.497H104.878L104.44 117.911L98.9291 123.392V118.784V117.649L97.8359 117.341C92.8898 115.947 89.5 111.511 89.5 106.49V97.8797C89.5 91.6205 94.6711 86.5008 101.103 86.5008H118.771H118.779L118.787 86.5007C124.948 86.4357 130.058 91.0898 130.497 97.0757Z" fill="#26D9C4" stroke="#333333" stroke-width="3"></path>
</svg>
