<?xml version="1.0" encoding="UTF-8"?>
<svg xmlns="http://www.w3.org/2000/svg" width="170" height="170" viewBox="0 0 170 170" fill="none">
  <rect width="170" height="170" rx="85" fill="#F1F2EA"></rect>
  <mask id="path-2-inside-1_4697_1459" fill="white">
    <path fill-rule="evenodd" clip-rule="evenodd" d="M65 51.041C58.8405 51.5492 54 56.7093 54 62.9999V84.9999C54 91.6274 59.3726 96.9999 66 96.9999H80C86.6274 96.9999 92 91.6274 92 84.9999V62.9999C92 56.7093 87.1595 51.5492 81 51.041V53.0493C86.0533 53.551 90 57.8146 90 62.9999V84.9999C90 90.5228 85.5228 94.9999 80 94.9999H66C60.4772 94.9999 56 90.5228 56 84.9999V62.9999C56 57.8146 59.9467 53.551 65 53.0493V51.041Z"></path>
  </mask>
  <path fill-rule="evenodd" clip-rule="evenodd" d="M65 51.041C58.8405 51.5492 54 56.7093 54 62.9999V84.9999C54 91.6274 59.3726 96.9999 66 96.9999H80C86.6274 96.9999 92 91.6274 92 84.9999V62.9999C92 56.7093 87.1595 51.5492 81 51.041V53.0493C86.0533 53.551 90 57.8146 90 62.9999V84.9999C90 90.5228 85.5228 94.9999 80 94.9999H66C60.4772 94.9999 56 90.5228 56 84.9999V62.9999C56 57.8146 59.9467 53.551 65 53.0493V51.041Z" fill="black"></path>
  <path d="M65 51.041H67V48.8692L64.8356 49.0478L65 51.041ZM81 51.041L81.1644 49.0478L79 48.8692V51.041H81ZM81 53.0493H79V54.8606L80.8024 55.0395L81 53.0493ZM65 53.0493L65.1976 55.0395L67 54.8606V53.0493H65ZM64.8356 49.0478C57.6474 49.6408 52 55.6598 52 62.9999H56C56 57.7587 60.0336 53.4575 65.1644 53.0342L64.8356 49.0478ZM52 62.9999V84.9999H56V62.9999H52ZM52 84.9999C52 92.7319 58.268 98.9999 66 98.9999V94.9999C60.4772 94.9999 56 90.5228 56 84.9999H52ZM66 98.9999H80V94.9999H66V98.9999ZM80 98.9999C87.732 98.9999 94 92.7319 94 84.9999H90C90 90.5228 85.5228 94.9999 80 94.9999V98.9999ZM94 84.9999V62.9999H90V84.9999H94ZM94 62.9999C94 55.6598 88.3526 49.6408 81.1644 49.0478L80.8356 53.0342C85.9664 53.4575 90 57.7587 90 62.9999H94ZM79 51.041V53.0493H83V51.041H79ZM92 62.9999C92 56.7763 87.2637 51.6614 81.1976 51.0591L80.8024 55.0395C84.8429 55.4407 88 58.8529 88 62.9999H92ZM92 84.9999V62.9999H88V84.9999H92ZM80 96.9999C86.6274 96.9999 92 91.6274 92 84.9999H88C88 89.4182 84.4183 92.9999 80 92.9999V96.9999ZM66 96.9999H80V92.9999H66V96.9999ZM54 84.9999C54 91.6274 59.3726 96.9999 66 96.9999V92.9999C61.5817 92.9999 58 89.4182 58 84.9999H54ZM54 62.9999V84.9999H58V62.9999H54ZM64.8024 51.0591C58.7363 51.6614 54 56.7763 54 62.9999H58C58 58.8529 61.1571 55.4407 65.1976 55.0395L64.8024 51.0591ZM67 53.0493V51.041H63V53.0493H67Z" fill="#333333" mask="url(#path-2-inside-1_4697_1459)"></path>
  <path d="M72.5 95.9995C72.5 129.5 110 129.5 110 95.9995V81" stroke="#333333" stroke-width="2" stroke-linecap="round" stroke-linejoin="round"></path>
  <path d="M81 48L81 56" stroke="#333333" stroke-width="2" stroke-linecap="round"></path>
  <path d="M66 48L66 56" stroke="#333333" stroke-width="2" stroke-linecap="round"></path>
  <rect x="103" y="67" width="14" height="14" rx="7" fill="#26D9C4" stroke="#333333" stroke-width="2"></rect>
</svg>
