<?xml version="1.0" encoding="UTF-8"?>
<svg xmlns="http://www.w3.org/2000/svg" width="46" height="53" viewBox="0 0 46 53" fill="none">
  <path d="M42.6989 17.5723C38.4342 20.5982 36.7541 25.0559 37.2286 29.2999C37.6985 33.5024 40.2774 37.4468 44.3907 39.5125C42.7549 43.4609 40.6794 47.179 37.477 49.9591L37.5842 50.0825L37.4702 49.9633C36.1949 51.1633 34.9214 51.6265 33.6546 51.6858C32.3467 51.747 30.9535 51.3808 29.4736 50.7532L29.4665 50.7502L29.4594 50.7473C25.8558 49.2711 22.4844 49.2079 18.6896 50.7455L18.6895 50.7454L18.6769 50.7507C16.5872 51.6241 15.1594 51.8593 14.0258 51.7067C12.9266 51.5586 11.9287 51.0219 10.7368 49.9642C3.58694 42.7961 0.61213 33.83 1.36322 26.6675C1.73844 23.0893 3.03533 20.0056 5.14667 17.7811C7.23331 15.5826 10.1883 14.1444 14.0625 13.9406C15.8974 14.042 17.4764 14.5314 18.9531 15.0556C19.1629 15.1301 19.3755 15.2074 19.5901 15.2855C20.8167 15.7319 22.1088 16.202 23.3131 16.2908L23.4815 16.3032L23.6471 16.2705C25.0272 15.9981 26.4209 15.5291 27.7263 15.0899C28.1988 14.9309 28.6598 14.7758 29.1044 14.6353C30.8457 14.085 32.4732 13.7031 34.1413 13.8179C37.8761 14.1069 40.699 15.3806 42.6989 17.5723ZM26.3153 10.7792C25.5897 11.0763 24.9195 11.2453 24.3365 11.3035C24.568 6.45056 28.4692 2.40648 33.2571 1.43109C33.1687 4.20676 31.7602 6.66352 29.8391 8.46988C28.7367 9.50638 27.4972 10.2952 26.3153 10.7792Z" stroke="black" stroke-width="2.5"></path>
</svg>
