<?xml version="1.0" encoding="UTF-8"?>
<svg xmlns="http://www.w3.org/2000/svg" width="46" height="54" viewBox="0 0 46 54" fill="none">
  <path d="M42.5037 17.4912C43.4342 17.4912 44.2236 17.8157 44.8725 18.4646C45.5214 19.1135 45.846 19.8922 45.846 20.801V34.7553C45.846 35.6869 45.5215 36.4756 44.8725 37.1246C44.2236 37.7735 43.4342 38.0981 42.5037 38.0981C41.574 38.0981 40.7894 37.7736 40.1505 37.1246C39.5129 36.4757 39.1932 35.6869 39.1932 34.7553V20.801C39.1932 19.8921 39.5177 19.1135 40.1667 18.4646C40.8157 17.8157 41.5949 17.4912 42.5037 17.4912Z" fill="black"></path>
  <path d="M15.6332 4.96472L13.3291 0.71422C13.1778 0.43282 13.2316 0.217034 13.491 0.0653C13.7725 -0.0655386 13.9887 0.000759443 14.1399 0.259507L16.4762 4.54398C18.5321 3.63504 20.7064 3.17975 22.9993 3.17975C25.2927 3.17975 27.4672 3.63514 29.5223 4.54398L31.8587 0.259507C32.0106 0.000759443 32.2268 -0.0649528 32.5077 0.0653C32.7676 0.217717 32.8214 0.43282 32.6695 0.71422L30.3653 4.96472C32.7018 6.15623 34.5626 7.81563 35.9472 9.94654C37.3317 12.0786 38.0243 14.4085 38.0243 16.9403H8.00697C8.00697 14.4091 8.69963 12.0791 10.0841 9.94654C11.4687 7.81563 13.3188 6.15623 15.6332 4.96472ZM28.9546 11.1471C29.2038 11.3969 29.5014 11.5212 29.8473 11.5212C30.194 11.5212 30.4855 11.3969 30.7234 11.1471C30.9612 10.8985 31.0802 10.6021 31.0802 10.255C31.0802 9.90905 30.9612 9.61202 30.7234 9.36284C30.4855 9.11425 30.1933 8.98995 29.8473 8.98995C29.5014 8.98995 29.2038 9.11425 28.9546 9.36284C28.706 9.61261 28.5811 9.90905 28.5811 10.255C28.5818 10.6015 28.7066 10.8985 28.9546 11.1471ZM15.2765 11.1471C15.5149 11.3969 15.8071 11.5212 16.1525 11.5212C16.4992 11.5212 16.7967 11.3969 17.0454 11.1471C17.2945 10.8985 17.4188 10.6021 17.4188 10.255C17.4188 9.90905 17.2945 9.61202 17.0454 9.36284C16.7967 9.11425 16.4992 8.98995 16.1525 8.98995C15.8065 8.98995 15.515 9.11425 15.2765 9.36284C15.0385 9.61261 14.9197 9.90905 14.9197 10.255C14.9197 10.6015 15.0386 10.8985 15.2765 11.1471Z" fill="black"></path>
  <path d="M37.8954 39.7206C37.8954 40.7167 37.5494 41.5599 36.8575 42.2519C36.1649 42.9439 35.3217 43.2898 34.3262 43.2898H31.9247L31.8918 50.6572C31.8918 51.5875 31.5673 52.3775 30.9184 53.0266C30.2695 53.6756 29.4902 54 28.5819 54C27.6521 54 26.8622 53.6756 26.2132 53.0266C25.5641 52.3775 25.2397 51.5876 25.2397 50.6572V43.2905H20.7615V50.6572C20.7615 51.5875 20.4371 52.3775 19.7881 53.0266C19.1391 53.6756 18.3499 54 17.4193 54C16.4895 54 15.6996 53.6756 15.0506 53.0266C14.4016 52.3775 14.0772 51.5876 14.0772 50.6572V43.2905H11.6432C10.6698 43.2905 9.83745 42.9445 9.1442 42.2525C8.45232 41.5605 8.10618 40.7173 8.10618 39.7213V18.1074H37.8954V39.7206Z" fill="black"></path>
  <path d="M3.49617 17.4912C4.40511 17.4912 5.18369 17.8109 5.83271 18.4485C6.48163 19.0872 6.80609 19.8719 6.80609 20.801V34.7553C6.80609 35.6869 6.48173 36.4756 5.83271 37.1246C5.18369 37.7736 4.40452 38.0981 3.49617 38.0981C2.56634 38.0981 1.77642 37.7736 1.12741 37.1246C0.478388 36.4756 0.154026 35.6869 0.154026 34.7553V20.801C0.154026 19.8718 0.478388 19.0872 1.12741 18.4485C1.77642 17.8109 2.56634 17.4912 3.49617 17.4912Z" fill="black"></path>
</svg>
