<?xml version="1.0" encoding="UTF-8"?>
<svg xmlns="http://www.w3.org/2000/svg" width="170" height="170" viewBox="0 0 170 170" fill="none">
  <rect width="170" height="170" rx="85" fill="#F1F2EA"></rect>
  <path d="M45.0275 59.876L63.5973 49.1547L82.1672 59.876V81.3186L63.5973 92.0399L45.0275 81.3186V59.876Z" fill="#26D9C4" stroke="#231F20" stroke-width="2"></path>
  <path d="M74.1742 81.8885C74.1742 76.9634 69.9118 72.9707 64.6539 72.9707H62.2917C57.0339 72.9707 52.7715 76.9634 52.7715 81.8885L63.4728 88.1309L74.1742 81.8885Z" fill="white" stroke="#231F20" stroke-width="2" stroke-linecap="round" stroke-linejoin="round"></path>
  <path d="M63.7246 58.7012H63.2205C60.8971 58.7012 59.0137 60.7236 59.0137 63.2183V65.7771C59.0137 68.2719 60.8971 70.2943 63.2205 70.2943H63.7246C66.048 70.2943 67.9315 68.2719 67.9315 65.7771V63.2183C67.9315 60.7236 66.048 58.7012 63.7246 58.7012Z" fill="white" stroke="#231F20" stroke-width="2" stroke-linecap="round" stroke-linejoin="round"></path>
  <path d="M87.8322 59.876L106.402 49.1547L124.972 59.876V81.3186L106.402 92.0399L87.8322 81.3186V59.876Z" fill="#26D9C4" stroke="#231F20" stroke-width="2"></path>
  <path d="M116.979 81.8885C116.979 76.9634 112.716 72.9707 107.459 72.9707H105.096C99.8385 72.9707 95.5762 76.9634 95.5762 81.8885L106.278 88.1309L116.979 81.8885Z" fill="white" stroke="#231F20" stroke-width="2" stroke-linecap="round" stroke-linejoin="round"></path>
  <path d="M106.529 58.7012H106.025C103.702 58.7012 101.818 60.7236 101.818 63.2183V65.7771C101.818 68.2719 103.702 70.2943 106.025 70.2943H106.529C108.853 70.2943 110.736 68.2719 110.736 65.7771V63.2183C110.736 60.7236 108.853 58.7012 106.529 58.7012Z" fill="white" stroke="#231F20" stroke-width="2" stroke-linecap="round" stroke-linejoin="round"></path>
  <path d="M66.4298 96.4385L84.9997 85.7172L103.57 96.4385V117.881L84.9997 128.602L66.4298 117.881V96.4385Z" fill="#26D9C4" stroke="#231F20" stroke-width="2"></path>
  <path d="M95.5765 118.449C95.5765 113.524 91.3141 109.531 86.0563 109.531H83.694C78.4362 109.531 74.1738 113.524 74.1738 118.449L84.8752 124.691L95.5765 118.449Z" fill="white" stroke="#231F20" stroke-width="2" stroke-linecap="round" stroke-linejoin="round"></path>
  <path d="M85.127 95.2637H84.6228C82.2995 95.2637 80.416 97.2861 80.416 99.7808V102.34C80.416 104.834 82.2995 106.857 84.6228 106.857H85.127C87.4503 106.857 89.3338 104.834 89.3338 102.34V99.7808C89.3338 97.2861 87.4503 95.2637 85.127 95.2637Z" fill="white" stroke="#231F20" stroke-width="2" stroke-linecap="round" stroke-linejoin="round"></path>
</svg>
